<svg width="32" height="34" viewBox="0 0 32 34" fill="none" xmlns="http://www.w3.org/2000/svg">
<rect width="32" height="34" rx="4" fill="#F2F2F2"/>
<path d="M26.6937 16.1468C26.4389 15.8356 26.0606 15.6585 25.6582 15.6585C25.3067 15.6585 24.9741 15.7953 24.7219 16.0421C24.6199 16.1387 24.4858 16.1951 24.3463 16.1951H22.5917C22.1061 16.1951 21.6769 15.8678 21.5427 15.4036C21.4032 14.9127 21.6098 14.3976 22.0471 14.1481L24.4187 12.7879C24.518 12.7315 24.6333 12.7074 24.7487 12.7208C24.9177 12.7396 25.1645 12.7208 25.3926 12.5142C25.6206 12.305 25.7091 11.9696 25.6099 11.6826C25.5294 11.4411 25.3577 11.2613 25.1297 11.1728C24.9016 11.087 24.6521 11.1057 24.4429 11.2265C24.2551 11.3338 24.1585 11.4921 24.1102 11.6047C24.0619 11.7121 23.9841 11.8006 23.8848 11.8569L21.5454 13.1983C21.092 13.4586 20.5206 13.3781 20.1557 12.9998C19.7989 12.6323 19.7291 12.0742 19.9786 11.6369L20.8264 10.1453C20.8962 10.0219 21.0115 9.93335 21.1457 9.89311C21.5776 9.7697 21.9103 9.45044 22.0551 9.0185C22.2242 8.51413 22.0686 7.94269 21.6661 7.59929C21.3469 7.32564 20.9498 7.21296 20.5474 7.28272C20.153 7.35247 19.8096 7.59392 19.6111 7.94269C19.4367 8.24853 19.3911 8.60535 19.4823 8.94607C19.5172 9.08289 19.4984 9.22776 19.4286 9.34849L18.5567 10.8831C18.3206 11.2962 17.8324 11.5082 17.3709 11.3955C16.8773 11.2774 16.5366 10.8482 16.5366 10.3465V7.60197C16.5366 7.48661 16.5741 7.37393 16.6439 7.28272C16.7458 7.14589 16.8505 6.92053 16.7834 6.62274C16.7163 6.31958 16.4695 6.07544 16.1717 6.01642C15.9222 5.96813 15.6807 6.02715 15.4903 6.18276C15.3025 6.33568 15.1952 6.56372 15.1952 6.80517C15.1952 7.0198 15.2837 7.18345 15.3588 7.28272C15.4259 7.37393 15.4634 7.48661 15.4634 7.60197V10.3492C15.4634 10.8482 15.1227 11.2774 14.6371 11.3955C14.1676 11.5082 13.6794 11.2962 13.4459 10.8831L12.5713 9.34849C12.5016 9.22776 12.4828 9.08289 12.5204 8.94607C12.6331 8.51145 12.5284 8.06342 12.2306 7.71733C11.8845 7.31491 11.3131 7.15662 10.8114 7.32832C10.4144 7.46247 10.1139 7.74685 9.96901 8.12781C9.82682 8.5034 9.85901 8.91924 10.0575 9.26801C10.2319 9.57385 10.5136 9.79652 10.8543 9.89311C10.9885 9.93335 11.1038 10.0219 11.1736 10.1453L12.0241 11.6369C12.2709 12.0742 12.2011 12.6323 11.8497 12.9945C11.4794 13.3781 10.9107 13.4586 10.4573 13.1983L8.11786 11.8569C8.01591 11.8006 7.93811 11.7121 7.8925 11.6047C7.82543 11.4491 7.68324 11.2452 7.39081 11.154C7.09302 11.0628 6.76035 11.154 6.55914 11.3848C6.3928 11.5752 6.32305 11.814 6.36329 12.0581C6.40353 12.2969 6.54841 12.5035 6.75767 12.6242C6.94278 12.7315 7.13058 12.7342 7.25131 12.7208C7.36667 12.7074 7.48203 12.7289 7.58398 12.7879L9.95559 14.1481C10.3902 14.3976 10.5968 14.91 10.46 15.3956C10.3231 15.8678 9.89389 16.1951 9.4083 16.1951H7.65641C7.51422 16.1951 7.38008 16.1387 7.28082 16.0421C6.95888 15.7283 6.51889 15.5968 6.06818 15.6853C5.54771 15.7873 5.12919 16.2058 5.02724 16.7263C4.94676 17.1367 5.04602 17.5365 5.30626 17.853C5.56381 18.1616 5.9394 18.3413 6.34183 18.3413C6.69328 18.3413 7.02863 18.2045 7.28082 17.9577C7.38008 17.8584 7.51422 17.8048 7.65641 17.8048H9.4083C9.89389 17.8048 10.3231 18.1294 10.4573 18.5962C10.5968 19.0871 10.3902 19.5996 9.95559 19.8491L7.58398 21.2119C7.48203 21.2683 7.36667 21.2924 7.25131 21.279C7.08497 21.2602 6.83547 21.279 6.61011 21.4856C6.37939 21.6922 6.29354 22.0275 6.39012 22.3173C6.4706 22.5587 6.6423 22.7385 6.87303 22.827C7.09838 22.9129 7.34789 22.8914 7.55983 22.7707C7.74495 22.666 7.84153 22.5078 7.8925 22.3924C7.93811 22.2878 8.01591 22.1992 8.11786 22.1429L10.4573 20.7988C10.908 20.5386 11.4794 20.6217 11.8443 21C12.2011 21.3676 12.2709 21.9256 12.0241 22.3602L11.1736 23.8545C11.1038 23.9753 10.9885 24.0665 10.8543 24.104C10.4224 24.2274 10.0924 24.5467 9.94486 24.9813C9.77584 25.4857 9.93145 26.0544 10.3366 26.4005C10.6531 26.6742 11.0502 26.7842 11.4526 26.7144C11.8497 26.6474 12.1904 26.4059 12.3889 26.0571C12.5633 25.7513 12.6089 25.3945 12.5204 25.0511C12.4828 24.9169 12.5016 24.7721 12.5713 24.6513L13.4459 23.1141C13.6391 22.776 14.0013 22.5748 14.3823 22.5748C14.4654 22.5748 14.5486 22.5829 14.6291 22.6017C14.6398 22.6043 14.6479 22.607 14.6586 22.6097C15.1227 22.7197 15.4634 23.1516 15.4634 23.648V26.3978C15.4634 26.5132 15.4259 26.6232 15.3588 26.7171C15.2569 26.8539 15.1495 27.0793 15.2166 27.3771C15.2837 27.6802 15.5305 27.9217 15.8283 27.9807C16.0778 28.0317 16.3193 27.9727 16.5097 27.8171C16.6975 27.6641 16.8048 27.4361 16.8048 27.1946C16.8048 26.98 16.7163 26.8164 16.6439 26.7171C16.5741 26.6232 16.5366 26.5132 16.5366 26.3978V23.648C16.5366 23.1516 16.8773 22.7197 17.3629 22.6043C17.8324 22.4917 18.3206 22.7036 18.554 23.1141L19.4286 24.6513C19.4984 24.7721 19.5172 24.9169 19.4823 25.0511C19.3669 25.4857 19.4716 25.9337 19.7694 26.2825C20.1155 26.6849 20.6869 26.8405 21.1913 26.6715C21.5883 26.5374 21.8861 26.253 22.031 25.872C22.1732 25.4964 22.141 25.0806 21.9425 24.7291C21.7681 24.4233 21.4864 24.2006 21.1457 24.104C21.0115 24.0665 20.8962 23.9753 20.8264 23.8545L19.9786 22.3602C19.7291 21.9256 19.7989 21.3676 20.1503 21.0054C20.5206 20.6217 21.092 20.5386 21.5454 20.7988L23.8848 22.1429C23.9841 22.1992 24.0619 22.2878 24.1102 22.3924C24.1773 22.548 24.3194 22.7546 24.6119 22.8431C24.907 22.937 25.2397 22.8431 25.4409 22.6151C25.6072 22.4219 25.677 22.1831 25.6367 21.9417C25.5965 21.7029 25.4543 21.4963 25.2423 21.3756C25.0572 21.2683 24.8721 21.2629 24.7487 21.279C24.6333 21.2924 24.518 21.2683 24.4187 21.2119L22.0471 19.8491C21.6098 19.5996 21.4032 19.0871 21.5427 18.6042C21.6769 18.1294 22.1061 17.8048 22.5917 17.8048H24.3463C24.4858 17.8048 24.6199 17.8584 24.7219 17.9577C25.0411 18.2716 25.4811 18.4003 25.9318 18.3145C26.455 18.2125 26.8735 17.794 26.9728 17.2736C27.0532 16.8604 26.954 16.4607 26.6937 16.1468ZM14.5835 18.5184C13.3842 18.5184 12.4077 17.5445 12.4077 16.3426C12.4077 16.0475 12.6492 15.8061 12.9443 15.8061C13.2421 15.8061 13.4808 16.0475 13.4808 16.3426C13.4808 16.9516 13.9771 17.4453 14.5835 17.4453C14.8813 17.4453 15.12 17.6867 15.12 17.9818C15.12 18.2796 14.8813 18.5184 14.5835 18.5184ZM16.0161 14.0488C16.0161 13.751 16.2549 13.5122 16.5527 13.5122C17.7519 13.5122 18.7284 14.4888 18.7284 15.688C18.7284 15.9831 18.487 16.2246 18.1919 16.2246C17.8941 16.2246 17.6553 15.9831 17.6553 15.688C17.6553 15.079 17.159 14.5854 16.5527 14.5854C16.2549 14.5854 16.0161 14.3439 16.0161 14.0488ZM16.88 20.4876C16.5822 20.4876 16.3434 20.2461 16.3434 19.951C16.3434 19.6532 16.5822 19.4145 16.88 19.4145C17.489 19.4145 17.9826 18.9181 17.9826 18.3118C17.9826 18.014 18.2241 17.7752 18.5192 17.7752C18.8143 17.7752 19.0557 18.014 19.0557 18.3118C19.0557 19.511 18.0792 20.4876 16.88 20.4876Z" fill="black"/>
</svg>
