<svg width="211" height="209" viewBox="0 0 211 209" fill="none" xmlns="http://www.w3.org/2000/svg">
<path d="M206.668 104.54C206.668 160.108 161.435 205.181 105.603 205.181C49.7719 205.181 4.5381 160.108 4.5381 104.54C4.5381 48.9728 49.7719 3.89992 105.603 3.89992C161.435 3.89992 206.668 48.9728 206.668 104.54Z" fill="#313B72" stroke="white" strokeWidth="7.64358"/>
<path d="M83.987 36.0781C72.1485 36.0781 62.7474 47.3219 62.7474 60.9015C62.7474 67.7649 65.488 75.3201 69.4322 81.3128C70.2754 82.594 71.1895 83.7763 72.1345 84.9007L67.5832 97.0214C58.8324 102.185 51.8803 104.91 46.2962 109.288C40.6024 113.751 36.5496 120.057 33.9697 131.929C33.8411 133.437 34.5214 134.67 35.5342 135.614C39.5444 139.015 45.2589 140.56 49.6623 141.723C56.7674 143.582 64.9546 144.948 71.5182 145.796C69.5625 150.333 68.5746 155.184 68.8159 160.244C68.9414 163.284 70.6988 166.262 73.1776 168.583C75.6563 170.904 78.9468 172.607 82.4699 172.607H118.881C122.42 172.607 125.767 170.83 128.268 168.486C130.768 166.142 132.535 163.212 132.535 160.195C132.535 158.63 132.399 157.082 132.155 155.541C138.603 155.584 147.845 155.83 156.097 155.104C161.474 154.177 167.972 154.195 171.79 150.304C172.996 148.955 173.476 147.542 173.497 146.086C172.722 135.783 169.941 128.056 165.01 121.602C161.572 117.101 157.053 113.262 151.546 109.481C158.481 96.207 159.743 80.0513 156.192 66.8647C154.333 59.9611 151.15 53.8459 146.663 49.4107C142.175 44.9752 136.335 42.2836 129.5 42.2836C123.498 42.2836 119.142 44.2561 116.131 47.4714C113.119 50.6863 111.462 54.9558 110.252 59.5436C108.02 68.0067 107.163 77.6309 103.757 84.1247C101.217 83.9835 98.3813 84.4293 96.2661 85.1916C97.2929 83.9841 98.2379 82.6606 99.1107 81.2645C102.874 75.2458 105.227 67.7024 105.227 60.9016C105.227 47.322 95.8254 36.0781 83.987 36.0781ZM76.2592 53.7744C77.7801 55.7578 79.5478 57.1905 81.4743 57.847C83.8891 58.6703 86.3931 58.7226 88.8228 58.9137C93.4529 59.2777 97.7193 59.7853 101.813 65.5074C101.043 70.3602 99.1502 75.4581 96.5506 79.616C93.1075 85.1229 88.5227 88.8278 83.987 88.8278C80.3388 88.8278 75.6337 85.1004 71.9923 79.5674C68.7868 74.6971 66.399 68.5642 65.8765 63.0832L76.2592 53.7744ZM135.616 57.7986C138.802 57.7986 142.229 59.8045 144.861 63.0348C147.493 66.2651 149.27 70.6413 149.27 74.8647C149.27 80.8539 146.76 87.1411 143.154 91.8823C140.322 95.2176 135.833 99.595 131.065 99.688C127.248 99.688 122.581 96.6229 118.975 91.8823C115.37 87.1411 112.86 80.8539 112.86 74.8647C112.86 73.496 114.317 71.6631 116.557 70.3557C118.798 69.0478 121.635 68.3604 123.242 68.6103C123.612 69.8164 123.931 71.2755 124.238 72.247C125.091 73.5099 125.932 73.4632 127.225 73.1197C128.84 72.2273 129.757 70.6102 130.496 68.9016C131.823 65.5425 132.601 62.3144 134.052 59.1081C134.389 58.2669 135.149 58.072 135.616 57.7986ZM109.873 75.8827C110.026 79.7435 111.034 83.5642 112.622 87.0824C110.881 85.9644 108.973 85.1147 106.981 84.6097C108.272 81.9212 109.147 78.9468 109.873 75.8827ZM102.524 87.3733C112.653 87.3733 120.824 97.0446 120.824 108.997C120.824 109.517 120.807 110.038 120.777 110.548H110.679C109.414 108.209 107.369 107.69 105.084 107.639C103.26 107.826 101.65 108.765 100.438 110.112L93.8482 106.088C93.0617 105.673 92.638 106.06 91.9992 106.33L88.3487 110.063L84.3188 107.3C85.0474 96.1401 92.8771 87.3733 102.524 87.3733ZM74.4576 87.4214C77.378 90.1708 80.6264 91.9303 83.987 91.9303C85.2277 91.9303 86.4225 91.7073 87.5901 91.3485C85.2778 94.0769 83.4697 97.4447 82.4224 101.191C77.7016 100.976 74.2595 99.7878 70.6648 97.5059L74.4576 87.4214ZM122.01 99.2997C124.843 101.456 127.934 102.79 131.065 102.79C134.074 102.79 137.046 101.55 139.788 99.542L141.495 105.554L129.595 121.748L123.527 111.857C123.617 110.924 123.669 109.957 123.669 108.996C123.669 105.558 123.081 102.283 122.01 99.2997ZM93.3267 109.384L99.9166 113.408C100.629 113.845 101.675 113.536 102.05 112.778C102.492 111.874 103.971 110.836 105.369 110.693C107.016 110.579 107.701 111.519 108.356 112.584C108.552 113.194 109.151 113.643 109.778 113.651H120.445C118.646 123.35 111.3 130.571 102.524 130.571C92.9869 130.571 85.1996 122.053 84.3188 111.081L87.6849 113.36C88.2679 113.769 89.1342 113.683 89.6287 113.166L93.3267 109.384ZM90.1028 129.117C90.6394 138.044 95.9078 143.108 101.576 143.323C107.448 143.545 113.301 138.573 114.282 129.748C114.542 129.541 114.788 129.289 115.04 129.069C121.061 136.808 129.5 148.788 129.5 160.195C129.5 161.833 128.232 164.285 126.182 166.207C124.131 168.129 121.409 169.504 118.881 169.504H82.4699C79.9244 169.504 77.2385 168.198 75.2162 166.304C73.1938 164.41 71.9254 161.919 71.8501 160.098C71.2766 148.073 78.5921 137.014 89.4391 128.826C89.4391 128.826 90.105 129.083 90.1028 129.117ZM93.4215 131.445C96.1886 133.016 99.2531 133.917 102.524 133.917C105.452 133.917 108.283 133.253 110.821 131.978C109.357 137.803 105.356 140.36 101.671 140.22C98.0965 140.085 94.4927 137.456 93.4215 131.445Z" fill="white"/>
</svg>
