<svg width="32" height="34" viewBox="0 0 32 34" fill="none" xmlns="http://www.w3.org/2000/svg">
<rect width="32" height="34" rx="4" fill="#F2F2F2"/>
<path d="M17.9667 25.1668V25.5751C17.9667 26.0702 17.7701 26.545 17.42 26.8951C17.0699 27.2451 16.5951 27.4418 16.1 27.4418H15.9834V30.5177C15.9849 30.6381 15.9408 30.7546 15.86 30.8439C15.7791 30.9331 15.6676 30.9885 15.5476 30.999C15.4838 31.0032 15.4198 30.9943 15.3595 30.9727C15.2993 30.9512 15.2441 30.9175 15.1975 30.8737C15.1508 30.83 15.1136 30.7771 15.0883 30.7183C15.0629 30.6596 15.0499 30.5963 15.05 30.5323V27.4418H14.9334C14.4383 27.4418 13.9635 27.2451 13.6134 26.8951C13.2634 26.545 13.0667 26.0702 13.0667 25.5751V25.1668C13.0667 25.043 13.1159 24.9243 13.2034 24.8368C13.2909 24.7493 13.4096 24.7001 13.5334 24.7001H17.5001C17.6238 24.7001 17.7425 24.7493 17.83 24.8368C17.9176 24.9243 17.9667 25.043 17.9667 25.1668ZM16.45 18.0501H14.5834C14.3358 18.0501 14.0984 18.1484 13.9234 18.3234C13.7484 18.4985 13.65 18.7359 13.65 18.9834C13.65 19.231 13.7484 19.4683 13.9234 19.6434C14.0984 19.8184 14.3358 19.9168 14.5834 19.9168H16.45C16.6976 19.9168 16.935 19.8184 17.11 19.6434C17.2851 19.4683 17.3834 19.231 17.3834 18.9834C17.3834 18.7359 17.2851 18.4985 17.11 18.3234C16.935 18.1484 16.6976 18.0501 16.45 18.0501ZM18.4526 15.4589C18.9787 16.2453 19.7516 16.8341 20.6495 17.1324C21.5473 17.4307 22.519 17.4215 23.411 17.1062C23.4814 17.081 23.5569 17.073 23.6311 17.0831C23.7052 17.0931 23.7759 17.1208 23.8371 17.1639C23.8983 17.207 23.9482 17.2641 23.9827 17.3305C24.0172 17.3969 24.0352 17.4707 24.0352 17.5455V21.4334C24.0352 21.7398 23.9748 22.0433 23.8576 22.3264C23.7403 22.6095 23.5684 22.8667 23.3517 23.0834C23.1351 23.3 22.8779 23.4719 22.5948 23.5892C22.3117 23.7064 22.0082 23.7668 21.7018 23.7668H9.33335C8.7145 23.7668 8.12101 23.5209 7.68342 23.0834C7.24583 22.6458 7 22.0523 7 21.4334V5.33335C7 4.7145 7.24583 4.12101 7.68342 3.68342C8.12101 3.24583 8.7145 3 9.33335 3H21.7001C22.3189 3 22.9124 3.24583 23.35 3.68342C23.7876 4.12101 24.0334 4.7145 24.0334 5.33335V7.62061C24.0338 7.70237 24.0127 7.78279 23.9722 7.85383C23.9317 7.92487 23.8733 7.98403 23.8028 8.02538C23.7322 8.06673 23.6521 8.08883 23.5703 8.08945C23.4886 8.09008 23.4081 8.06921 23.3369 8.02894C22.9427 7.80308 22.4979 7.68048 22.0437 7.67252C21.921 7.67084 21.8039 7.62093 21.7178 7.53359C21.6317 7.44626 21.5834 7.32852 21.5834 7.20585C21.5834 6.02577 20.6845 5.27501 19.7167 5.27501H11.3167C10.8216 5.27501 10.3468 5.47168 9.99675 5.82175C9.64668 6.17182 9.45001 6.64661 9.45001 7.14169V13.3834C9.45001 13.8785 9.64668 14.3533 9.99675 14.7033C10.3468 15.0534 10.8216 15.2501 11.3167 15.2501H18.0688C18.145 15.2506 18.2199 15.2699 18.2869 15.3064C18.3539 15.3428 18.4108 15.3952 18.4526 15.4589ZM18.3167 18.9834C18.3167 18.4883 18.1201 18.0135 17.77 17.6635C17.4199 17.3134 16.9451 17.1167 16.45 17.1167H14.5834C14.0883 17.1167 13.6135 17.3134 13.2634 17.6635C12.9134 18.0135 12.7167 18.4883 12.7167 18.9834C12.7167 19.4785 12.9134 19.9533 13.2634 20.3034C13.6135 20.6534 14.0883 20.8501 14.5834 20.8501H16.45C16.9451 20.8501 17.4199 20.6534 17.77 20.3034C18.1201 19.9533 18.3167 19.4785 18.3167 18.9834ZM24.7229 11.1988L23.4501 9.36653C23.2863 9.13081 23.0679 8.93822 22.8136 8.80521C22.5592 8.67221 22.2764 8.60274 21.9894 8.60274C21.7024 8.60274 21.4196 8.67221 21.1652 8.80521C20.9109 8.93822 20.6925 9.13081 20.5287 9.36653L19.2582 11.1988C17.7293 13.4061 19.3206 16.4167 21.9917 16.4167C24.6628 16.4167 26.2501 13.4026 24.7229 11.1988Z" fill="black"/>
</svg>
