<svg width="436" height="196" viewBox="0 0 436 196" fill="none" xmlns="http://www.w3.org/2000/svg">
<path d="M0.5 8C0.5 3.85786 3.85786 0.5 8 0.5H428C432.142 0.5 435.5 3.85786 435.5 8V28C435.5 32.1421 432.142 35.5 428 35.5H8C3.85787 35.5 0.5 32.1421 0.5 28V8Z" fill="#F8F8F8" fill-opacity="0.05" stroke="#67D7D1"/>
<path d="M0 8C0 3.58172 3.58172 0 8 0H47C51.4183 0 55 3.58172 55 8V28C55 32.4183 51.4183 36 47 36H8C3.58172 36 0 32.4183 0 28V8Z" fill="#67D7D1"/>
<path d="M62.99 23L59.308 13.2H60.582L63.676 21.754L66.798 13.2H68.044L64.362 23H62.99ZM71.5235 23.168C70.8609 23.168 70.2729 23.0187 69.7595 22.72C69.2462 22.412 68.8402 21.9873 68.5415 21.446C68.2522 20.9047 68.1075 20.2653 68.1075 19.528C68.1075 18.8 68.2522 18.1653 68.5415 17.624C68.8309 17.0733 69.2322 16.6487 69.7455 16.35C70.2682 16.042 70.8702 15.888 71.5515 15.888C72.2235 15.888 72.8022 16.042 73.2875 16.35C73.7822 16.6487 74.1602 17.0453 74.4215 17.54C74.6829 18.0347 74.8135 18.5667 74.8135 19.136C74.8135 19.2387 74.8089 19.3413 74.7995 19.444C74.7995 19.5467 74.7995 19.6633 74.7995 19.794H69.2695C69.2975 20.326 69.4189 20.7693 69.6335 21.124C69.8575 21.4693 70.1329 21.7307 70.4595 21.908C70.7955 22.0853 71.1502 22.174 71.5235 22.174C72.0089 22.174 72.4149 22.062 72.7415 21.838C73.0682 21.614 73.3062 21.3107 73.4555 20.928H74.6175C74.4309 21.572 74.0715 22.1087 73.5395 22.538C73.0169 22.958 72.3449 23.168 71.5235 23.168ZM71.5235 16.882C70.9635 16.882 70.4642 17.0547 70.0255 17.4C69.5962 17.736 69.3489 18.2307 69.2835 18.884H73.6515C73.6235 18.2587 73.4089 17.7687 73.0075 17.414C72.6062 17.0593 72.1115 16.882 71.5235 16.882ZM76.3723 23V16.056H77.4363L77.5343 17.386C77.7489 16.9287 78.0756 16.5647 78.5143 16.294C78.9529 16.0233 79.4943 15.888 80.1383 15.888V17.12H79.8163C79.4056 17.12 79.0276 17.1947 78.6823 17.344C78.3369 17.484 78.0616 17.7267 77.8563 18.072C77.6509 18.4173 77.5483 18.8933 77.5483 19.5V23H76.3723ZM82.2142 26.08L83.9362 22.328H83.5302L80.7722 16.056H82.0462L84.3422 21.46L86.7782 16.056H87.9962L83.4462 26.08H82.2142ZM96.1346 23.168C95.4159 23.168 94.7906 23.0373 94.2586 22.776C93.7266 22.5147 93.3159 22.1507 93.0266 21.684C92.7372 21.2173 92.5926 20.676 92.5926 20.06H93.8246C93.8246 20.4427 93.9132 20.7973 94.0906 21.124C94.2679 21.4413 94.5246 21.698 94.8606 21.894C95.2059 22.0807 95.6306 22.174 96.1346 22.174C96.7972 22.174 97.3106 22.0153 97.6746 21.698C98.0386 21.3807 98.2206 20.984 98.2206 20.508C98.2206 20.116 98.1366 19.8033 97.9686 19.57C97.8006 19.3273 97.5719 19.1313 97.2826 18.982C97.0026 18.8327 96.6759 18.702 96.3026 18.59C95.9386 18.478 95.5559 18.352 95.1546 18.212C94.3986 17.9507 93.8386 17.6287 93.4746 17.246C93.1106 16.854 92.9286 16.3453 92.9286 15.72C92.9192 15.1973 93.0406 14.7353 93.2926 14.334C93.5446 13.9233 93.8992 13.606 94.3566 13.382C94.8232 13.1487 95.3739 13.032 96.0086 13.032C96.6339 13.032 97.1752 13.1487 97.6326 13.382C98.0992 13.6153 98.4586 13.9373 98.7106 14.348C98.9719 14.7587 99.1072 15.2253 99.1166 15.748H97.8846C97.8846 15.4773 97.8146 15.2113 97.6746 14.95C97.5346 14.6793 97.3199 14.46 97.0306 14.292C96.7506 14.124 96.3959 14.04 95.9666 14.04C95.4346 14.0307 94.9959 14.166 94.6506 14.446C94.3146 14.726 94.1466 15.1133 94.1466 15.608C94.1466 16.028 94.2632 16.35 94.4966 16.574C94.7392 16.798 95.0752 16.9847 95.5046 17.134C95.9339 17.274 96.4286 17.4373 96.9886 17.624C97.4552 17.792 97.8752 17.988 98.2486 18.212C98.6219 18.436 98.9112 18.7253 99.1166 19.08C99.3312 19.4347 99.4386 19.8873 99.4386 20.438C99.4386 20.9047 99.3172 21.348 99.0746 21.768C98.8319 22.1787 98.4632 22.5147 97.9686 22.776C97.4832 23.0373 96.8719 23.168 96.1346 23.168ZM103.346 23.168C102.768 23.168 102.287 23.07 101.904 22.874C101.522 22.678 101.237 22.4167 101.05 22.09C100.864 21.7633 100.77 21.4087 100.77 21.026C100.77 20.3167 101.041 19.7707 101.582 19.388C102.124 19.0053 102.861 18.814 103.794 18.814H105.67V18.73C105.67 18.1233 105.512 17.666 105.194 17.358C104.877 17.0407 104.452 16.882 103.92 16.882C103.463 16.882 103.066 16.9987 102.73 17.232C102.404 17.456 102.198 17.7873 102.114 18.226H100.91C100.957 17.722 101.125 17.2973 101.414 16.952C101.713 16.6067 102.082 16.3453 102.52 16.168C102.959 15.9813 103.426 15.888 103.92 15.888C104.891 15.888 105.619 16.1493 106.104 16.672C106.599 17.1853 106.846 17.8713 106.846 18.73V23H105.796L105.726 21.754C105.53 22.146 105.241 22.482 104.858 22.762C104.485 23.0327 103.981 23.168 103.346 23.168ZM103.528 22.174C103.976 22.174 104.359 22.0573 104.676 21.824C105.003 21.5907 105.25 21.2873 105.418 20.914C105.586 20.5407 105.67 20.1487 105.67 19.738V19.724H103.892C103.202 19.724 102.712 19.8453 102.422 20.088C102.142 20.3213 102.002 20.6153 102.002 20.97C102.002 21.334 102.133 21.628 102.394 21.852C102.665 22.0667 103.043 22.174 103.528 22.174ZM111.163 23C110.528 23 110.029 22.846 109.665 22.538C109.301 22.23 109.119 21.6747 109.119 20.872V17.05H107.915V16.056H109.119L109.273 14.39H110.295V16.056H112.339V17.05H110.295V20.872C110.295 21.3107 110.384 21.6093 110.561 21.768C110.738 21.9173 111.051 21.992 111.499 21.992H112.227V23H111.163ZM114.547 14.516C114.314 14.516 114.118 14.4413 113.959 14.292C113.81 14.1333 113.735 13.9373 113.735 13.704C113.735 13.48 113.81 13.2933 113.959 13.144C114.118 12.9947 114.314 12.92 114.547 12.92C114.771 12.92 114.963 12.9947 115.121 13.144C115.28 13.2933 115.359 13.48 115.359 13.704C115.359 13.9373 115.28 14.1333 115.121 14.292C114.963 14.4413 114.771 14.516 114.547 14.516ZM113.959 23V16.056H115.135V23H113.959ZM119.843 23.168C119.012 23.168 118.321 22.958 117.771 22.538C117.22 22.118 116.898 21.5487 116.805 20.83H118.009C118.083 21.194 118.275 21.5113 118.583 21.782C118.9 22.0433 119.325 22.174 119.857 22.174C120.351 22.174 120.715 22.0713 120.949 21.866C121.182 21.6513 121.299 21.3993 121.299 21.11C121.299 20.69 121.145 20.41 120.837 20.27C120.538 20.13 120.113 20.004 119.563 19.892C119.189 19.8173 118.816 19.71 118.443 19.57C118.069 19.43 117.757 19.234 117.505 18.982C117.253 18.7207 117.127 18.38 117.127 17.96C117.127 17.3533 117.351 16.8587 117.799 16.476C118.256 16.084 118.872 15.888 119.647 15.888C120.384 15.888 120.986 16.0747 121.453 16.448C121.929 16.812 122.204 17.3347 122.279 18.016H121.117C121.07 17.6613 120.916 17.386 120.655 17.19C120.403 16.9847 120.062 16.882 119.633 16.882C119.213 16.882 118.886 16.9707 118.653 17.148C118.429 17.3253 118.317 17.5587 118.317 17.848C118.317 18.128 118.461 18.3473 118.751 18.506C119.049 18.6647 119.451 18.8 119.955 18.912C120.384 19.0053 120.79 19.122 121.173 19.262C121.565 19.3927 121.882 19.5933 122.125 19.864C122.377 20.1253 122.503 20.508 122.503 21.012C122.512 21.6373 122.274 22.1553 121.789 22.566C121.313 22.9673 120.664 23.168 119.843 23.168ZM124.561 23V17.05H123.511V16.056H124.561V14.852C124.561 14.18 124.729 13.69 125.065 13.382C125.401 13.074 125.891 12.92 126.535 12.92H127.235V13.928H126.717C126.362 13.928 126.11 14.0027 125.961 14.152C125.811 14.292 125.737 14.5347 125.737 14.88V16.056H130.049V23H128.873V17.05H125.737V23H124.561ZM129.475 14.726C129.251 14.726 129.059 14.6513 128.901 14.502C128.742 14.3433 128.663 14.1473 128.663 13.914C128.663 13.69 128.742 13.5033 128.901 13.354C129.059 13.2047 129.251 13.13 129.475 13.13C129.708 13.13 129.899 13.2047 130.049 13.354C130.207 13.5033 130.287 13.69 130.287 13.914C130.287 14.1473 130.207 14.3433 130.049 14.502C129.899 14.6513 129.708 14.726 129.475 14.726ZM135.248 23.168C134.585 23.168 133.997 23.0187 133.484 22.72C132.971 22.412 132.565 21.9873 132.266 21.446C131.977 20.9047 131.832 20.2653 131.832 19.528C131.832 18.8 131.977 18.1653 132.266 17.624C132.555 17.0733 132.957 16.6487 133.47 16.35C133.993 16.042 134.595 15.888 135.276 15.888C135.948 15.888 136.527 16.042 137.012 16.35C137.507 16.6487 137.885 17.0453 138.146 17.54C138.407 18.0347 138.538 18.5667 138.538 19.136C138.538 19.2387 138.533 19.3413 138.524 19.444C138.524 19.5467 138.524 19.6633 138.524 19.794H132.994C133.022 20.326 133.143 20.7693 133.358 21.124C133.582 21.4693 133.857 21.7307 134.184 21.908C134.52 22.0853 134.875 22.174 135.248 22.174C135.733 22.174 136.139 22.062 136.466 21.838C136.793 21.614 137.031 21.3107 137.18 20.928H138.342C138.155 21.572 137.796 22.1087 137.264 22.538C136.741 22.958 136.069 23.168 135.248 23.168ZM135.248 16.882C134.688 16.882 134.189 17.0547 133.75 17.4C133.321 17.736 133.073 18.2307 133.008 18.884H137.376C137.348 18.2587 137.133 17.7687 136.732 17.414C136.331 17.0593 135.836 16.882 135.248 16.882ZM143.247 23.168C142.556 23.168 141.95 23.0093 141.427 22.692C140.914 22.3747 140.512 21.9407 140.223 21.39C139.943 20.8393 139.803 20.214 139.803 19.514C139.803 18.814 139.948 18.1933 140.237 17.652C140.526 17.1013 140.928 16.672 141.441 16.364C141.954 16.0467 142.561 15.888 143.261 15.888C143.83 15.888 144.334 16.0047 144.773 16.238C145.212 16.4713 145.552 16.798 145.795 17.218V12.92H146.971V23H145.907L145.795 21.852C145.571 22.188 145.249 22.4913 144.829 22.762C144.409 23.0327 143.882 23.168 143.247 23.168ZM143.373 22.146C143.84 22.146 144.25 22.0387 144.605 21.824C144.969 21.6 145.249 21.292 145.445 20.9C145.65 20.508 145.753 20.0507 145.753 19.528C145.753 19.0053 145.65 18.548 145.445 18.156C145.249 17.764 144.969 17.4607 144.605 17.246C144.25 17.022 143.84 16.91 143.373 16.91C142.916 16.91 142.505 17.022 142.141 17.246C141.786 17.4607 141.506 17.764 141.301 18.156C141.105 18.548 141.007 19.0053 141.007 19.528C141.007 20.0507 141.105 20.508 141.301 20.9C141.506 21.292 141.786 21.6 142.141 21.824C142.505 22.0387 142.916 22.146 143.373 22.146Z" fill="black"/>
<path d="M397.848 23L401.74 14.208H396.364V13.2H402.944V14.082L399.094 23H397.848ZM406.265 17.75C405.845 17.75 405.462 17.6567 405.117 17.47C404.781 17.274 404.515 17.0033 404.319 16.658C404.123 16.3033 404.025 15.8833 404.025 15.398C404.025 14.9127 404.123 14.4973 404.319 14.152C404.524 13.7973 404.795 13.5267 405.131 13.34C405.476 13.144 405.859 13.046 406.279 13.046C406.699 13.046 407.077 13.144 407.413 13.34C407.749 13.5267 408.015 13.7973 408.211 14.152C408.407 14.4973 408.505 14.9127 408.505 15.398C408.505 15.8833 408.402 16.3033 408.197 16.658C408.001 17.0033 407.735 17.274 407.399 17.47C407.063 17.6567 406.685 17.75 406.265 17.75ZM405.397 23L411.095 13.2H412.271L406.573 23H405.397ZM406.265 16.84C406.592 16.84 406.876 16.7187 407.119 16.476C407.371 16.2333 407.497 15.874 407.497 15.398C407.497 14.9127 407.376 14.5487 407.133 14.306C406.89 14.054 406.606 13.928 406.279 13.928C405.952 13.928 405.658 14.054 405.397 14.306C405.145 14.5487 405.019 14.9127 405.019 15.398C405.019 15.874 405.145 16.2333 405.397 16.476C405.649 16.7187 405.938 16.84 406.265 16.84ZM411.501 23.168C411.081 23.168 410.698 23.0747 410.353 22.888C410.017 22.692 409.751 22.4213 409.555 22.076C409.359 21.7213 409.261 21.3013 409.261 20.816C409.261 20.3307 409.359 19.9153 409.555 19.57C409.76 19.2153 410.031 18.9447 410.367 18.758C410.703 18.562 411.081 18.464 411.501 18.464C411.921 18.464 412.299 18.562 412.635 18.758C412.971 18.9447 413.237 19.2153 413.433 19.57C413.629 19.9153 413.727 20.3307 413.727 20.816C413.727 21.3013 413.629 21.7213 413.433 22.076C413.237 22.4213 412.971 22.692 412.635 22.888C412.299 23.0747 411.921 23.168 411.501 23.168ZM411.487 22.258C411.823 22.258 412.112 22.1367 412.355 21.894C412.607 21.6513 412.733 21.292 412.733 20.816C412.733 20.3307 412.612 19.9667 412.369 19.724C412.126 19.4813 411.837 19.36 411.501 19.36C411.174 19.36 410.885 19.4813 410.633 19.724C410.381 19.9667 410.255 20.3307 410.255 20.816C410.255 21.292 410.376 21.6513 410.619 21.894C410.871 22.1367 411.16 22.258 411.487 22.258Z" fill="black"/>
<path d="M20.378 14.006V11.78H24.256V22H21.764V14.006H20.378ZM27.5317 22.112C27.1117 22.112 26.7663 21.9907 26.4957 21.748C26.2343 21.496 26.1037 21.188 26.1037 20.824C26.1037 20.4507 26.2343 20.138 26.4957 19.886C26.7663 19.634 27.1117 19.508 27.5317 19.508C27.9423 19.508 28.2783 19.634 28.5397 19.886C28.8103 20.138 28.9457 20.4507 28.9457 20.824C28.9457 21.188 28.8103 21.496 28.5397 21.748C28.2783 21.9907 27.9423 22.112 27.5317 22.112Z" fill="black"/>
<path d="M48.3271 13.3102C48.5384 13.109 48.8196 12.9978 49.1113 13C49.403 13.0022 49.6825 13.1177 49.8907 13.322C50.099 13.5264 50.2197 13.8036 50.2274 14.0953C50.2351 14.3869 50.1292 14.6701 49.9321 14.8852L43.9471 22.3702C43.8441 22.4811 43.7199 22.57 43.5819 22.6318C43.4438 22.6935 43.2947 22.7268 43.1434 22.7296C42.9922 22.7324 42.842 22.7046 42.7017 22.6481C42.5614 22.5915 42.434 22.5072 42.3271 22.4002L38.3581 18.4312C38.2475 18.3282 38.1589 18.204 38.0974 18.066C38.0359 17.928 38.0028 17.779 38.0002 17.628C37.9975 17.4769 38.0253 17.3269 38.0819 17.1868C38.1385 17.0467 38.2227 16.9195 38.3295 16.8126C38.4363 16.7058 38.5636 16.6216 38.7037 16.565C38.8437 16.5084 38.9938 16.4807 39.1448 16.4833C39.2959 16.486 39.4449 16.519 39.5829 16.5805C39.7209 16.642 39.8451 16.7307 39.9481 16.8412L43.0891 19.9807L48.2986 13.3432C48.3079 13.3317 48.318 13.3206 48.3286 13.3102H48.3271Z" fill="black"/>
<path d="M0.5 48C0.5 43.8579 3.85786 40.5 8 40.5H428C432.142 40.5 435.5 43.8579 435.5 48V68C435.5 72.1421 432.142 75.5 428 75.5H8C3.85787 75.5 0.5 72.1421 0.5 68V48Z" fill="#F8F8F8" fill-opacity="0.05" stroke="#67D7D1"/>
<path d="M0 48C0 43.5817 3.58172 40 8 40H159C163.418 40 167 43.5817 167 48V68C167 72.4183 163.418 76 159 76H8C3.58172 76 0 72.4183 0 68V48Z" fill="#462255" fill-opacity="0.1"/>
<path d="M63.158 63.168C62.4393 63.168 61.814 63.0373 61.282 62.776C60.75 62.5147 60.3393 62.1507 60.05 61.684C59.7607 61.2173 59.616 60.676 59.616 60.06H60.848C60.848 60.4427 60.9367 60.7973 61.114 61.124C61.2913 61.4413 61.548 61.698 61.884 61.894C62.2293 62.0807 62.654 62.174 63.158 62.174C63.8207 62.174 64.334 62.0153 64.698 61.698C65.062 61.3807 65.244 60.984 65.244 60.508C65.244 60.116 65.16 59.8033 64.992 59.57C64.824 59.3273 64.5953 59.1313 64.306 58.982C64.026 58.8327 63.6993 58.702 63.326 58.59C62.962 58.478 62.5793 58.352 62.178 58.212C61.422 57.9507 60.862 57.6287 60.498 57.246C60.134 56.854 59.952 56.3453 59.952 55.72C59.9427 55.1973 60.064 54.7353 60.316 54.334C60.568 53.9233 60.9227 53.606 61.38 53.382C61.8467 53.1487 62.3973 53.032 63.032 53.032C63.6573 53.032 64.1987 53.1487 64.656 53.382C65.1227 53.6153 65.482 53.9373 65.734 54.348C65.9953 54.7587 66.1307 55.2253 66.14 55.748H64.908C64.908 55.4773 64.838 55.2113 64.698 54.95C64.558 54.6793 64.3433 54.46 64.054 54.292C63.774 54.124 63.4193 54.04 62.99 54.04C62.458 54.0307 62.0193 54.166 61.674 54.446C61.338 54.726 61.17 55.1133 61.17 55.608C61.17 56.028 61.2867 56.35 61.52 56.574C61.7627 56.798 62.0987 56.9847 62.528 57.134C62.9573 57.274 63.452 57.4373 64.012 57.624C64.4787 57.792 64.8987 57.988 65.272 58.212C65.6453 58.436 65.9347 58.7253 66.14 59.08C66.3547 59.4347 66.462 59.8873 66.462 60.438C66.462 60.9047 66.3407 61.348 66.098 61.768C65.8553 62.1787 65.4867 62.5147 64.992 62.776C64.5067 63.0373 63.8953 63.168 63.158 63.168ZM71.2238 63.168C70.5704 63.168 69.9824 63.0187 69.4598 62.72C68.9371 62.4213 68.5218 62.0013 68.2138 61.46C67.9151 60.9093 67.7658 60.2653 67.7658 59.528C67.7658 58.7907 67.9198 58.1513 68.2278 57.61C68.5358 57.0593 68.9511 56.6347 69.4738 56.336C70.0058 56.0373 70.5984 55.888 71.2518 55.888C71.9051 55.888 72.4931 56.0373 73.0158 56.336C73.5384 56.6347 73.9491 57.0593 74.2478 57.61C74.5558 58.1513 74.7098 58.7907 74.7098 59.528C74.7098 60.2653 74.5558 60.9093 74.2478 61.46C73.9398 62.0013 73.5198 62.4213 72.9878 62.72C72.4651 63.0187 71.8771 63.168 71.2238 63.168ZM71.2238 62.16C71.6251 62.16 71.9984 62.062 72.3438 61.866C72.6891 61.67 72.9691 61.376 73.1838 60.984C73.3984 60.592 73.5058 60.1067 73.5058 59.528C73.5058 58.9493 73.3984 58.464 73.1838 58.072C72.9784 57.68 72.7031 57.386 72.3578 57.19C72.0124 56.994 71.6438 56.896 71.2518 56.896C70.8504 56.896 70.4771 56.994 70.1318 57.19C69.7864 57.386 69.5064 57.68 69.2918 58.072C69.0771 58.464 68.9698 58.9493 68.9698 59.528C68.9698 60.1067 69.0771 60.592 69.2918 60.984C69.5064 61.376 69.7818 61.67 70.1178 61.866C70.4631 62.062 70.8318 62.16 71.2238 62.16ZM76.3449 63V56.056H77.4089L77.4929 57.064C77.7169 56.6907 78.0156 56.4013 78.3889 56.196C78.7622 55.9907 79.1822 55.888 79.6489 55.888C80.1996 55.888 80.6709 56 81.0629 56.224C81.4642 56.448 81.7722 56.7887 81.9869 57.246C82.2296 56.826 82.5609 56.4947 82.9809 56.252C83.4102 56.0093 83.8722 55.888 84.3669 55.888C85.1976 55.888 85.8602 56.14 86.3549 56.644C86.8496 57.1387 87.0969 57.904 87.0969 58.94V63H85.9349V59.066C85.9349 58.3473 85.7902 57.806 85.5009 57.442C85.2116 57.078 84.7962 56.896 84.2549 56.896C83.6949 56.896 83.2282 57.1153 82.8549 57.554C82.4909 57.9833 82.3089 58.5993 82.3089 59.402V63H81.1329V59.066C81.1329 58.3473 80.9882 57.806 80.6989 57.442C80.4096 57.078 79.9942 56.896 79.4529 56.896C78.9022 56.896 78.4402 57.1153 78.0669 57.554C77.7029 57.9833 77.5209 58.5993 77.5209 59.402V63H76.3449ZM91.9903 63.168C91.3277 63.168 90.7397 63.0187 90.2263 62.72C89.713 62.412 89.307 61.9873 89.0083 61.446C88.719 60.9047 88.5743 60.2653 88.5743 59.528C88.5743 58.8 88.719 58.1653 89.0083 57.624C89.2977 57.0733 89.699 56.6487 90.2123 56.35C90.735 56.042 91.337 55.888 92.0183 55.888C92.6903 55.888 93.269 56.042 93.7543 56.35C94.249 56.6487 94.627 57.0453 94.8883 57.54C95.1497 58.0347 95.2803 58.5667 95.2803 59.136C95.2803 59.2387 95.2757 59.3413 95.2663 59.444C95.2663 59.5467 95.2663 59.6633 95.2663 59.794H89.7363C89.7643 60.326 89.8857 60.7693 90.1003 61.124C90.3243 61.4693 90.5997 61.7307 90.9263 61.908C91.2623 62.0853 91.617 62.174 91.9903 62.174C92.4757 62.174 92.8817 62.062 93.2083 61.838C93.535 61.614 93.773 61.3107 93.9223 60.928H95.0843C94.8977 61.572 94.5383 62.1087 94.0063 62.538C93.4837 62.958 92.8117 63.168 91.9903 63.168ZM91.9903 56.882C91.4303 56.882 90.931 57.0547 90.4923 57.4C90.063 57.736 89.8157 58.2307 89.7503 58.884H94.1183C94.0903 58.2587 93.8757 57.7687 93.4743 57.414C93.073 57.0593 92.5783 56.882 91.9903 56.882ZM97.9656 63L95.9356 56.056H97.1116L98.5816 61.502L100.206 56.056H101.536L103.174 61.502L104.63 56.056H105.82L103.79 63H102.586L100.878 57.274L99.1696 63H97.9656ZM107.12 63V52.92H108.296V57.246C108.53 56.8167 108.861 56.4853 109.29 56.252C109.72 56.0093 110.186 55.888 110.69 55.888C111.493 55.888 112.137 56.14 112.622 56.644C113.108 57.1387 113.35 57.904 113.35 58.94V63H112.188V59.066C112.188 57.6193 111.605 56.896 110.438 56.896C109.832 56.896 109.323 57.1153 108.912 57.554C108.502 57.9833 108.296 58.5993 108.296 59.402V63H107.12ZM117.442 63.168C116.863 63.168 116.383 63.07 116 62.874C115.617 62.678 115.333 62.4167 115.146 62.09C114.959 61.7633 114.866 61.4087 114.866 61.026C114.866 60.3167 115.137 59.7707 115.678 59.388C116.219 59.0053 116.957 58.814 117.89 58.814H119.766V58.73C119.766 58.1233 119.607 57.666 119.29 57.358C118.973 57.0407 118.548 56.882 118.016 56.882C117.559 56.882 117.162 56.9987 116.826 57.232C116.499 57.456 116.294 57.7873 116.21 58.226H115.006C115.053 57.722 115.221 57.2973 115.51 56.952C115.809 56.6067 116.177 56.3453 116.616 56.168C117.055 55.9813 117.521 55.888 118.016 55.888C118.987 55.888 119.715 56.1493 120.2 56.672C120.695 57.1853 120.942 57.8713 120.942 58.73V63H119.892L119.822 61.754C119.626 62.146 119.337 62.482 118.954 62.762C118.581 63.0327 118.077 63.168 117.442 63.168ZM117.624 62.174C118.072 62.174 118.455 62.0573 118.772 61.824C119.099 61.5907 119.346 61.2873 119.514 60.914C119.682 60.5407 119.766 60.1487 119.766 59.738V59.724H117.988C117.297 59.724 116.807 59.8453 116.518 60.088C116.238 60.3213 116.098 60.6153 116.098 60.97C116.098 61.334 116.229 61.628 116.49 61.852C116.761 62.0667 117.139 62.174 117.624 62.174ZM125.259 63C124.624 63 124.125 62.846 123.761 62.538C123.397 62.23 123.215 61.6747 123.215 60.872V57.05H122.011V56.056H123.215L123.369 54.39H124.391V56.056H126.435V57.05H124.391V60.872C124.391 61.3107 124.479 61.6093 124.657 61.768C124.834 61.9173 125.147 61.992 125.595 61.992H126.323V63H125.259ZM134.826 63.168C134.107 63.168 133.482 63.0373 132.95 62.776C132.418 62.5147 132.007 62.1507 131.718 61.684C131.429 61.2173 131.284 60.676 131.284 60.06H132.516C132.516 60.4427 132.605 60.7973 132.782 61.124C132.959 61.4413 133.216 61.698 133.552 61.894C133.897 62.0807 134.322 62.174 134.826 62.174C135.489 62.174 136.002 62.0153 136.366 61.698C136.73 61.3807 136.912 60.984 136.912 60.508C136.912 60.116 136.828 59.8033 136.66 59.57C136.492 59.3273 136.263 59.1313 135.974 58.982C135.694 58.8327 135.367 58.702 134.994 58.59C134.63 58.478 134.247 58.352 133.846 58.212C133.09 57.9507 132.53 57.6287 132.166 57.246C131.802 56.854 131.62 56.3453 131.62 55.72C131.611 55.1973 131.732 54.7353 131.984 54.334C132.236 53.9233 132.591 53.606 133.048 53.382C133.515 53.1487 134.065 53.032 134.7 53.032C135.325 53.032 135.867 53.1487 136.324 53.382C136.791 53.6153 137.15 53.9373 137.402 54.348C137.663 54.7587 137.799 55.2253 137.808 55.748H136.576C136.576 55.4773 136.506 55.2113 136.366 54.95C136.226 54.6793 136.011 54.46 135.722 54.292C135.442 54.124 135.087 54.04 134.658 54.04C134.126 54.0307 133.687 54.166 133.342 54.446C133.006 54.726 132.838 55.1133 132.838 55.608C132.838 56.028 132.955 56.35 133.188 56.574C133.431 56.798 133.767 56.9847 134.196 57.134C134.625 57.274 135.12 57.4373 135.68 57.624C136.147 57.792 136.567 57.988 136.94 58.212C137.313 58.436 137.603 58.7253 137.808 59.08C138.023 59.4347 138.13 59.8873 138.13 60.438C138.13 60.9047 138.009 61.348 137.766 61.768C137.523 62.1787 137.155 62.5147 136.66 62.776C136.175 63.0373 135.563 63.168 134.826 63.168ZM142.038 63.168C141.459 63.168 140.978 63.07 140.596 62.874C140.213 62.678 139.928 62.4167 139.742 62.09C139.555 61.7633 139.462 61.4087 139.462 61.026C139.462 60.3167 139.732 59.7707 140.274 59.388C140.815 59.0053 141.552 58.814 142.486 58.814H144.362V58.73C144.362 58.1233 144.203 57.666 143.886 57.358C143.568 57.0407 143.144 56.882 142.612 56.882C142.154 56.882 141.758 56.9987 141.422 57.232C141.095 57.456 140.89 57.7873 140.806 58.226H139.602C139.648 57.722 139.816 57.2973 140.106 56.952C140.404 56.6067 140.773 56.3453 141.212 56.168C141.65 55.9813 142.117 55.888 142.612 55.888C143.582 55.888 144.31 56.1493 144.796 56.672C145.29 57.1853 145.538 57.8713 145.538 58.73V63H144.488L144.418 61.754C144.222 62.146 143.932 62.482 143.55 62.762C143.176 63.0327 142.672 63.168 142.038 63.168ZM142.22 62.174C142.668 62.174 143.05 62.0573 143.368 61.824C143.694 61.5907 143.942 61.2873 144.11 60.914C144.278 60.5407 144.362 60.1487 144.362 59.738V59.724H142.584C141.893 59.724 141.403 59.8453 141.114 60.088C140.834 60.3213 140.694 60.6153 140.694 60.97C140.694 61.334 140.824 61.628 141.086 61.852C141.356 62.0667 141.734 62.174 142.22 62.174ZM149.855 63C149.22 63 148.721 62.846 148.357 62.538C147.993 62.23 147.811 61.6747 147.811 60.872V57.05H146.607V56.056H147.811L147.965 54.39H148.987V56.056H151.031V57.05H148.987V60.872C148.987 61.3107 149.075 61.6093 149.253 61.768C149.43 61.9173 149.743 61.992 150.191 61.992H150.919V63H149.855ZM153.239 54.516C153.005 54.516 152.809 54.4413 152.651 54.292C152.501 54.1333 152.427 53.9373 152.427 53.704C152.427 53.48 152.501 53.2933 152.651 53.144C152.809 52.9947 153.005 52.92 153.239 52.92C153.463 52.92 153.654 52.9947 153.813 53.144C153.971 53.2933 154.051 53.48 154.051 53.704C154.051 53.9373 153.971 54.1333 153.813 54.292C153.654 54.4413 153.463 54.516 153.239 54.516ZM152.651 63V56.056H153.827V63H152.651ZM158.534 63.168C157.704 63.168 157.013 62.958 156.462 62.538C155.912 62.118 155.59 61.5487 155.496 60.83H156.7C156.775 61.194 156.966 61.5113 157.274 61.782C157.592 62.0433 158.016 62.174 158.548 62.174C159.043 62.174 159.407 62.0713 159.64 61.866C159.874 61.6513 159.99 61.3993 159.99 61.11C159.99 60.69 159.836 60.41 159.528 60.27C159.23 60.13 158.805 60.004 158.254 59.892C157.881 59.8173 157.508 59.71 157.134 59.57C156.761 59.43 156.448 59.234 156.196 58.982C155.944 58.7207 155.818 58.38 155.818 57.96C155.818 57.3533 156.042 56.8587 156.49 56.476C156.948 56.084 157.564 55.888 158.338 55.888C159.076 55.888 159.678 56.0747 160.144 56.448C160.62 56.812 160.896 57.3347 160.97 58.016H159.808C159.762 57.6613 159.608 57.386 159.346 57.19C159.094 56.9847 158.754 56.882 158.324 56.882C157.904 56.882 157.578 56.9707 157.344 57.148C157.12 57.3253 157.008 57.5587 157.008 57.848C157.008 58.128 157.153 58.3473 157.442 58.506C157.741 58.6647 158.142 58.8 158.646 58.912C159.076 59.0053 159.482 59.122 159.864 59.262C160.256 59.3927 160.574 59.5933 160.816 59.864C161.068 60.1253 161.194 60.508 161.194 61.012C161.204 61.6373 160.966 62.1553 160.48 62.566C160.004 62.9673 159.356 63.168 158.534 63.168ZM163.252 63V57.05H162.202V56.056H163.252V54.852C163.252 54.18 163.42 53.69 163.756 53.382C164.092 53.074 164.582 52.92 165.226 52.92H165.926V53.928H165.408C165.054 53.928 164.802 54.0027 164.652 54.152C164.503 54.292 164.428 54.5347 164.428 54.88V56.056H168.74V63H167.564V57.05H164.428V63H163.252ZM168.166 54.726C167.942 54.726 167.751 54.6513 167.592 54.502C167.434 54.3433 167.354 54.1473 167.354 53.914C167.354 53.69 167.434 53.5033 167.592 53.354C167.751 53.2047 167.942 53.13 168.166 53.13C168.4 53.13 168.591 53.2047 168.74 53.354C168.899 53.5033 168.978 53.69 168.978 53.914C168.978 54.1473 168.899 54.3433 168.74 54.502C168.591 54.6513 168.4 54.726 168.166 54.726ZM173.94 63.168C173.277 63.168 172.689 63.0187 172.176 62.72C171.662 62.412 171.256 61.9873 170.958 61.446C170.668 60.9047 170.524 60.2653 170.524 59.528C170.524 58.8 170.668 58.1653 170.958 57.624C171.247 57.0733 171.648 56.6487 172.162 56.35C172.684 56.042 173.286 55.888 173.968 55.888C174.64 55.888 175.218 56.042 175.704 56.35C176.198 56.6487 176.576 57.0453 176.838 57.54C177.099 58.0347 177.23 58.5667 177.23 59.136C177.23 59.2387 177.225 59.3413 177.216 59.444C177.216 59.5467 177.216 59.6633 177.216 59.794H171.686C171.714 60.326 171.835 60.7693 172.05 61.124C172.274 61.4693 172.549 61.7307 172.876 61.908C173.212 62.0853 173.566 62.174 173.94 62.174C174.425 62.174 174.831 62.062 175.158 61.838C175.484 61.614 175.722 61.3107 175.872 60.928H177.034C176.847 61.572 176.488 62.1087 175.956 62.538C175.433 62.958 174.761 63.168 173.94 63.168ZM173.94 56.882C173.38 56.882 172.88 57.0547 172.442 57.4C172.012 57.736 171.765 58.2307 171.7 58.884H176.068C176.04 58.2587 175.825 57.7687 175.424 57.414C175.022 57.0593 174.528 56.882 173.94 56.882ZM181.938 63.168C181.248 63.168 180.641 63.0093 180.118 62.692C179.605 62.3747 179.204 61.9407 178.914 61.39C178.634 60.8393 178.494 60.214 178.494 59.514C178.494 58.814 178.639 58.1933 178.928 57.652C179.218 57.1013 179.619 56.672 180.132 56.364C180.646 56.0467 181.252 55.888 181.952 55.888C182.522 55.888 183.026 56.0047 183.464 56.238C183.903 56.4713 184.244 56.798 184.486 57.218V52.92H185.662V63H184.598L184.486 61.852C184.262 62.188 183.94 62.4913 183.52 62.762C183.1 63.0327 182.573 63.168 181.938 63.168ZM182.064 62.146C182.531 62.146 182.942 62.0387 183.296 61.824C183.66 61.6 183.94 61.292 184.136 60.9C184.342 60.508 184.444 60.0507 184.444 59.528C184.444 59.0053 184.342 58.548 184.136 58.156C183.94 57.764 183.66 57.4607 183.296 57.246C182.942 57.022 182.531 56.91 182.064 56.91C181.607 56.91 181.196 57.022 180.832 57.246C180.478 57.4607 180.198 57.764 179.992 58.156C179.796 58.548 179.698 59.0053 179.698 59.528C179.698 60.0507 179.796 60.508 179.992 60.9C180.198 61.292 180.478 61.6 180.832 61.824C181.196 62.0387 181.607 62.146 182.064 62.146Z" fill="black"/>
<path d="M400.088 63.168C399.463 63.168 398.898 63.056 398.394 62.832C397.89 62.5987 397.484 62.2533 397.176 61.796C396.877 61.3387 396.719 60.7693 396.7 60.088H397.89C397.899 60.648 398.095 61.1333 398.478 61.544C398.861 61.9453 399.397 62.146 400.088 62.146C400.779 62.146 401.297 61.9547 401.642 61.572C401.997 61.1893 402.174 60.7273 402.174 60.186C402.174 59.7287 402.062 59.3553 401.838 59.066C401.623 58.7767 401.329 58.562 400.956 58.422C400.592 58.282 400.191 58.212 399.752 58.212H399.024V57.218H399.752C400.387 57.218 400.881 57.0733 401.236 56.784C401.6 56.4947 401.782 56.0887 401.782 55.566C401.782 55.1273 401.637 54.768 401.348 54.488C401.068 54.1987 400.648 54.054 400.088 54.054C399.547 54.054 399.113 54.2173 398.786 54.544C398.459 54.8613 398.277 55.2627 398.24 55.748H397.05C397.078 55.216 397.218 54.7447 397.47 54.334C397.731 53.9233 398.086 53.606 398.534 53.382C398.982 53.1487 399.5 53.032 400.088 53.032C400.723 53.032 401.25 53.144 401.67 53.368C402.099 53.592 402.421 53.8907 402.636 54.264C402.86 54.6373 402.972 55.048 402.972 55.496C402.972 55.9907 402.837 56.4433 402.566 56.854C402.295 57.2553 401.889 57.526 401.348 57.666C401.927 57.7873 402.407 58.0627 402.79 58.492C403.173 58.9213 403.364 59.486 403.364 60.186C403.364 60.7273 403.238 61.2267 402.986 61.684C402.743 62.132 402.379 62.4913 401.894 62.762C401.409 63.0327 400.807 63.168 400.088 63.168ZM405.112 63V62.174C405.775 61.6513 406.4 61.124 406.988 60.592C407.586 60.0507 408.113 59.5187 408.57 58.996C409.037 58.4733 409.401 57.96 409.662 57.456C409.933 56.952 410.068 56.4667 410.068 56C410.068 55.6547 410.008 55.3327 409.886 55.034C409.774 54.7353 409.588 54.4973 409.326 54.32C409.065 54.1333 408.71 54.04 408.262 54.04C407.833 54.04 407.474 54.138 407.184 54.334C406.895 54.5207 406.676 54.7727 406.526 55.09C406.386 55.4073 406.316 55.748 406.316 56.112H405.182C405.182 55.468 405.318 54.9173 405.588 54.46C405.859 53.9933 406.228 53.6387 406.694 53.396C407.161 53.1533 407.688 53.032 408.276 53.032C409.144 53.032 409.854 53.2793 410.404 53.774C410.964 54.2593 411.244 54.9873 411.244 55.958C411.244 56.5367 411.1 57.1107 410.81 57.68C410.521 58.24 410.152 58.786 409.704 59.318C409.256 59.8407 408.776 60.3307 408.262 60.788C407.758 61.2453 407.287 61.656 406.848 62.02H411.58V63H405.112ZM415.042 57.75C414.622 57.75 414.24 57.6567 413.894 57.47C413.558 57.274 413.292 57.0033 413.096 56.658C412.9 56.3033 412.802 55.8833 412.802 55.398C412.802 54.9127 412.9 54.4973 413.096 54.152C413.302 53.7973 413.572 53.5267 413.908 53.34C414.254 53.144 414.636 53.046 415.056 53.046C415.476 53.046 415.854 53.144 416.19 53.34C416.526 53.5267 416.792 53.7973 416.988 54.152C417.184 54.4973 417.282 54.9127 417.282 55.398C417.282 55.8833 417.18 56.3033 416.974 56.658C416.778 57.0033 416.512 57.274 416.176 57.47C415.84 57.6567 415.462 57.75 415.042 57.75ZM414.174 63L419.872 53.2H421.048L415.35 63H414.174ZM415.042 56.84C415.369 56.84 415.654 56.7187 415.896 56.476C416.148 56.2333 416.274 55.874 416.274 55.398C416.274 54.9127 416.153 54.5487 415.91 54.306C415.668 54.054 415.383 53.928 415.056 53.928C414.73 53.928 414.436 54.054 414.174 54.306C413.922 54.5487 413.796 54.9127 413.796 55.398C413.796 55.874 413.922 56.2333 414.174 56.476C414.426 56.7187 414.716 56.84 415.042 56.84ZM420.278 63.168C419.858 63.168 419.476 63.0747 419.13 62.888C418.794 62.692 418.528 62.4213 418.332 62.076C418.136 61.7213 418.038 61.3013 418.038 60.816C418.038 60.3307 418.136 59.9153 418.332 59.57C418.538 59.2153 418.808 58.9447 419.144 58.758C419.48 58.562 419.858 58.464 420.278 58.464C420.698 58.464 421.076 58.562 421.412 58.758C421.748 58.9447 422.014 59.2153 422.21 59.57C422.406 59.9153 422.504 60.3307 422.504 60.816C422.504 61.3013 422.406 61.7213 422.21 62.076C422.014 62.4213 421.748 62.692 421.412 62.888C421.076 63.0747 420.698 63.168 420.278 63.168ZM420.264 62.258C420.6 62.258 420.89 62.1367 421.132 61.894C421.384 61.6513 421.51 61.292 421.51 60.816C421.51 60.3307 421.389 59.9667 421.146 59.724C420.904 59.4813 420.614 59.36 420.278 59.36C419.952 59.36 419.662 59.4813 419.41 59.724C419.158 59.9667 419.032 60.3307 419.032 60.816C419.032 61.292 419.154 61.6513 419.396 61.894C419.648 62.1367 419.938 62.258 420.264 62.258Z" fill="black"/>
<path d="M20.546 60.082C20.8633 59.83 21.008 59.7133 20.98 59.732C21.8947 58.976 22.6133 58.3553 23.136 57.87C23.668 57.3847 24.116 56.876 24.48 56.344C24.844 55.812 25.026 55.294 25.026 54.79C25.026 54.4073 24.9373 54.1087 24.76 53.894C24.5827 53.6793 24.3167 53.572 23.962 53.572C23.6073 53.572 23.3273 53.7073 23.122 53.978C22.926 54.2393 22.828 54.6127 22.828 55.098H20.518C20.5367 54.3047 20.7047 53.642 21.022 53.11C21.3487 52.578 21.7733 52.186 22.296 51.934C22.828 51.682 23.416 51.556 24.06 51.556C25.1707 51.556 26.006 51.8407 26.566 52.41C27.1353 52.9793 27.42 53.7213 27.42 54.636C27.42 55.6347 27.0793 56.5633 26.398 57.422C25.7167 58.2713 24.8487 59.102 23.794 59.914H27.574V61.86H20.546V60.082ZM30.266 62.112C29.846 62.112 29.5007 61.9907 29.23 61.748C28.9687 61.496 28.838 61.188 28.838 60.824C28.838 60.4507 28.9687 60.138 29.23 59.886C29.5007 59.634 29.846 59.508 30.266 59.508C30.6767 59.508 31.0127 59.634 31.274 59.886C31.5447 60.138 31.68 60.4507 31.68 60.824C31.68 61.188 31.5447 61.496 31.274 61.748C31.0127 61.9907 30.6767 62.112 30.266 62.112Z" fill="black"/>
<path d="M0.5 88C0.5 83.8579 3.85786 80.5 8 80.5H428C432.142 80.5 435.5 83.8579 435.5 88V108C435.5 112.142 432.142 115.5 428 115.5H8C3.85787 115.5 0.5 112.142 0.5 108V88Z" fill="#F8F8F8" fill-opacity="0.05" stroke="#67D7D1"/>
<path d="M0 88C0 83.5817 3.58172 80 8 80H81C85.4183 80 89 83.5817 89 88V108C89 112.418 85.4183 116 81 116H8C3.58172 116 0 112.418 0 108V88Z" fill="#462255" fill-opacity="0.1"/>
<path d="M60.036 103V93.2H61.212L66.434 101.054V93.2H67.61V103H66.434L61.212 95.146V103H60.036ZM72.7403 103.168C72.0777 103.168 71.4897 103.019 70.9763 102.72C70.463 102.412 70.057 101.987 69.7583 101.446C69.469 100.905 69.3243 100.265 69.3243 99.528C69.3243 98.8 69.469 98.1653 69.7583 97.624C70.0477 97.0733 70.449 96.6487 70.9623 96.35C71.485 96.042 72.087 95.888 72.7683 95.888C73.4403 95.888 74.019 96.042 74.5043 96.35C74.999 96.6487 75.377 97.0453 75.6383 97.54C75.8997 98.0347 76.0303 98.5667 76.0303 99.136C76.0303 99.2387 76.0257 99.3413 76.0163 99.444C76.0163 99.5467 76.0163 99.6633 76.0163 99.794H70.4863C70.5143 100.326 70.6357 100.769 70.8503 101.124C71.0743 101.469 71.3497 101.731 71.6763 101.908C72.0123 102.085 72.367 102.174 72.7403 102.174C73.2257 102.174 73.6317 102.062 73.9583 101.838C74.285 101.614 74.523 101.311 74.6723 100.928H75.8343C75.6477 101.572 75.2883 102.109 74.7563 102.538C74.2337 102.958 73.5617 103.168 72.7403 103.168ZM72.7403 96.882C72.1803 96.882 71.681 97.0547 71.2423 97.4C70.813 97.736 70.5657 98.2307 70.5003 98.884H74.8683C74.8403 98.2587 74.6257 97.7687 74.2243 97.414C73.823 97.0593 73.3283 96.882 72.7403 96.882ZM80.123 103.168C79.3017 103.168 78.6484 102.921 78.163 102.426C77.6777 101.922 77.435 101.152 77.435 100.116V96.056H78.611V99.99C78.611 101.437 79.2037 102.16 80.389 102.16C80.9957 102.16 81.495 101.945 81.887 101.516C82.2884 101.077 82.489 100.457 82.489 99.654V96.056H83.665V103H82.601L82.517 101.754C82.3024 102.193 81.9804 102.538 81.551 102.79C81.131 103.042 80.655 103.168 80.123 103.168ZM88.3448 103C87.7101 103 87.2108 102.846 86.8468 102.538C86.4828 102.23 86.3008 101.675 86.3008 100.872V97.05H85.0968V96.056H86.3008L86.4548 94.39H87.4768V96.056H89.5208V97.05H87.4768V100.872C87.4768 101.311 87.5654 101.609 87.7428 101.768C87.9201 101.917 88.2328 101.992 88.6808 101.992H89.4088V103H88.3448ZM91.0148 103V96.056H92.0788L92.1768 97.386C92.3915 96.9287 92.7182 96.5647 93.1568 96.294C93.5955 96.0233 94.1368 95.888 94.7808 95.888V97.12H94.4588C94.0482 97.12 93.6702 97.1947 93.3248 97.344C92.9795 97.484 92.7042 97.7267 92.4988 98.072C92.2935 98.4173 92.1908 98.8933 92.1908 99.5V103H91.0148ZM98.4108 103.168C97.8321 103.168 97.3514 103.07 96.9688 102.874C96.5861 102.678 96.3014 102.417 96.1148 102.09C95.9281 101.763 95.8348 101.409 95.8348 101.026C95.8348 100.317 96.1054 99.7707 96.6468 99.388C97.1881 99.0053 97.9254 98.814 98.8588 98.814H100.735V98.73C100.735 98.1233 100.576 97.666 100.259 97.358C99.9414 97.0407 99.5168 96.882 98.9848 96.882C98.5274 96.882 98.1308 96.9987 97.7948 97.232C97.4681 97.456 97.2628 97.7873 97.1788 98.226H95.9748C96.0214 97.722 96.1894 97.2973 96.4788 96.952C96.7774 96.6067 97.1461 96.3453 97.5848 96.168C98.0234 95.9813 98.4901 95.888 98.9848 95.888C99.9554 95.888 100.683 96.1493 101.169 96.672C101.663 97.1853 101.911 97.8713 101.911 98.73V103H100.861L100.791 101.754C100.595 102.146 100.305 102.482 99.9228 102.762C99.5494 103.033 99.0454 103.168 98.4108 103.168ZM98.5928 102.174C99.0408 102.174 99.4234 102.057 99.7408 101.824C100.067 101.591 100.315 101.287 100.483 100.914C100.651 100.541 100.735 100.149 100.735 99.738V99.724H98.9568C98.2661 99.724 97.7761 99.8453 97.4868 100.088C97.2068 100.321 97.0668 100.615 97.0668 100.97C97.0668 101.334 97.1974 101.628 97.4588 101.852C97.7294 102.067 98.1074 102.174 98.5928 102.174ZM103.675 103V92.92H104.851V103H103.675Z" fill="black"/>
<path d="M398.002 103V94.516L396.42 94.866V94.054L398.394 93.2H399.192V103H398.002ZM404.313 103.168C403.687 103.168 403.123 103.056 402.619 102.832C402.115 102.599 401.709 102.253 401.401 101.796C401.102 101.339 400.943 100.769 400.925 100.088H402.115C402.124 100.648 402.32 101.133 402.703 101.544C403.085 101.945 403.622 102.146 404.313 102.146C405.003 102.146 405.521 101.955 405.867 101.572C406.221 101.189 406.399 100.727 406.399 100.186C406.399 99.7287 406.287 99.3553 406.063 99.066C405.848 98.7767 405.554 98.562 405.181 98.422C404.817 98.282 404.415 98.212 403.977 98.212H403.249V97.218H403.977C404.611 97.218 405.106 97.0733 405.461 96.784C405.825 96.4947 406.007 96.0887 406.007 95.566C406.007 95.1273 405.862 94.768 405.573 94.488C405.293 94.1987 404.873 94.054 404.313 94.054C403.771 94.054 403.337 94.2173 403.011 94.544C402.684 94.8613 402.502 95.2627 402.465 95.748H401.275C401.303 95.216 401.443 94.7447 401.695 94.334C401.956 93.9233 402.311 93.606 402.759 93.382C403.207 93.1487 403.725 93.032 404.313 93.032C404.947 93.032 405.475 93.144 405.895 93.368C406.324 93.592 406.646 93.8907 406.861 94.264C407.085 94.6373 407.197 95.048 407.197 95.496C407.197 95.9907 407.061 96.4433 406.791 96.854C406.52 97.2553 406.114 97.526 405.573 97.666C406.151 97.7873 406.632 98.0627 407.015 98.492C407.397 98.9213 407.589 99.486 407.589 100.186C407.589 100.727 407.463 101.227 407.211 101.684C406.968 102.132 406.604 102.491 406.119 102.762C405.633 103.033 405.031 103.168 404.313 103.168ZM411.023 97.75C410.603 97.75 410.22 97.6567 409.875 97.47C409.539 97.274 409.273 97.0033 409.077 96.658C408.881 96.3033 408.783 95.8833 408.783 95.398C408.783 94.9127 408.881 94.4973 409.077 94.152C409.282 93.7973 409.553 93.5267 409.889 93.34C410.234 93.144 410.617 93.046 411.037 93.046C411.457 93.046 411.835 93.144 412.171 93.34C412.507 93.5267 412.773 93.7973 412.969 94.152C413.165 94.4973 413.263 94.9127 413.263 95.398C413.263 95.8833 413.16 96.3033 412.955 96.658C412.759 97.0033 412.493 97.274 412.157 97.47C411.821 97.6567 411.443 97.75 411.023 97.75ZM410.155 103L415.853 93.2H417.029L411.331 103H410.155ZM411.023 96.84C411.349 96.84 411.634 96.7187 411.877 96.476C412.129 96.2333 412.255 95.874 412.255 95.398C412.255 94.9127 412.133 94.5487 411.891 94.306C411.648 94.054 411.363 93.928 411.037 93.928C410.71 93.928 410.416 94.054 410.155 94.306C409.903 94.5487 409.777 94.9127 409.777 95.398C409.777 95.874 409.903 96.2333 410.155 96.476C410.407 96.7187 410.696 96.84 411.023 96.84ZM416.259 103.168C415.839 103.168 415.456 103.075 415.111 102.888C414.775 102.692 414.509 102.421 414.313 102.076C414.117 101.721 414.019 101.301 414.019 100.816C414.019 100.331 414.117 99.9153 414.313 99.57C414.518 99.2153 414.789 98.9447 415.125 98.758C415.461 98.562 415.839 98.464 416.259 98.464C416.679 98.464 417.057 98.562 417.393 98.758C417.729 98.9447 417.995 99.2153 418.191 99.57C418.387 99.9153 418.485 100.331 418.485 100.816C418.485 101.301 418.387 101.721 418.191 102.076C417.995 102.421 417.729 102.692 417.393 102.888C417.057 103.075 416.679 103.168 416.259 103.168ZM416.245 102.258C416.581 102.258 416.87 102.137 417.113 101.894C417.365 101.651 417.491 101.292 417.491 100.816C417.491 100.331 417.369 99.9667 417.127 99.724C416.884 99.4813 416.595 99.36 416.259 99.36C415.932 99.36 415.643 99.4813 415.391 99.724C415.139 99.9667 415.013 100.331 415.013 100.816C415.013 101.292 415.134 101.651 415.377 101.894C415.629 102.137 415.918 102.258 416.245 102.258Z" fill="black"/>
<path d="M20.714 94.664C20.7513 93.6653 21.078 92.8953 21.694 92.354C22.31 91.8127 23.1453 91.542 24.2 91.542C24.9 91.542 25.4973 91.6633 25.992 91.906C26.496 92.1487 26.874 92.48 27.126 92.9C27.3873 93.32 27.518 93.7913 27.518 94.314C27.518 94.93 27.364 95.434 27.056 95.826C26.748 96.2087 26.3887 96.47 25.978 96.61V96.666C26.51 96.8433 26.93 97.1373 27.238 97.548C27.546 97.9587 27.7 98.486 27.7 99.13C27.7 99.7087 27.5647 100.222 27.294 100.67C27.0327 101.109 26.6453 101.454 26.132 101.706C25.628 101.958 25.026 102.084 24.326 102.084C23.206 102.084 22.31 101.809 21.638 101.258C20.9753 100.707 20.6253 99.8767 20.588 98.766H22.912C22.9213 99.1767 23.038 99.5033 23.262 99.746C23.486 99.9793 23.8127 100.096 24.242 100.096C24.606 100.096 24.886 99.9933 25.082 99.788C25.2873 99.5733 25.39 99.2933 25.39 98.948C25.39 98.5 25.2453 98.178 24.956 97.982C24.676 97.7767 24.2233 97.674 23.598 97.674H23.15V95.728H23.598C24.074 95.728 24.4567 95.6487 24.746 95.49C25.0447 95.322 25.194 95.028 25.194 94.608C25.194 94.272 25.1007 94.0107 24.914 93.824C24.7273 93.6373 24.4707 93.544 24.144 93.544C23.7893 93.544 23.5233 93.6513 23.346 93.866C23.178 94.0807 23.08 94.3467 23.052 94.664H20.714ZM30.7446 102.112C30.3246 102.112 29.9792 101.991 29.7086 101.748C29.4472 101.496 29.3166 101.188 29.3166 100.824C29.3166 100.451 29.4472 100.138 29.7086 99.886C29.9792 99.634 30.3246 99.508 30.7446 99.508C31.1552 99.508 31.4912 99.634 31.7526 99.886C32.0232 100.138 32.1586 100.451 32.1586 100.824C32.1586 101.188 32.0232 101.496 31.7526 101.748C31.4912 101.991 31.1552 102.112 30.7446 102.112Z" fill="black"/>
<path d="M0.5 128C0.5 123.858 3.85786 120.5 8 120.5H428C432.142 120.5 435.5 123.858 435.5 128V148C435.5 152.142 432.142 155.5 428 155.5H8C3.85787 155.5 0.5 152.142 0.5 148V128Z" fill="#F8F8F8" fill-opacity="0.05" stroke="#67D7D1"/>
<path d="M0 128C0 123.582 3.58172 120 8 120H154C158.418 120 162 123.582 162 128V148C162 152.418 158.418 156 154 156H8C3.58172 156 0 152.418 0 148V128Z" fill="#462255" fill-opacity="0.1"/>
<path d="M60.036 143V133.2H63.046C64.7727 133.2 66.042 133.639 66.854 134.516C67.6753 135.393 68.086 136.597 68.086 138.128C68.086 139.631 67.6753 140.821 66.854 141.698C66.042 142.566 64.7727 143 63.046 143H60.036ZM61.212 142.02H63.018C63.97 142.02 64.726 141.866 65.286 141.558C65.8553 141.241 66.2613 140.793 66.504 140.214C66.7467 139.626 66.868 138.931 66.868 138.128C66.868 137.307 66.7467 136.602 66.504 136.014C66.2613 135.426 65.8553 134.973 65.286 134.656C64.726 134.339 63.97 134.18 63.018 134.18H61.212V142.02ZM70.428 134.516C70.1947 134.516 69.9987 134.441 69.84 134.292C69.6907 134.133 69.616 133.937 69.616 133.704C69.616 133.48 69.6907 133.293 69.84 133.144C69.9987 132.995 70.1947 132.92 70.428 132.92C70.652 132.92 70.8434 132.995 71.002 133.144C71.1607 133.293 71.24 133.48 71.24 133.704C71.24 133.937 71.1607 134.133 71.002 134.292C70.8434 134.441 70.652 134.516 70.428 134.516ZM69.84 143V136.056H71.016V143H69.84ZM75.7237 143.168C74.893 143.168 74.2023 142.958 73.6517 142.538C73.101 142.118 72.779 141.549 72.6857 140.83H73.8897C73.9643 141.194 74.1557 141.511 74.4637 141.782C74.781 142.043 75.2057 142.174 75.7377 142.174C76.2323 142.174 76.5963 142.071 76.8297 141.866C77.063 141.651 77.1797 141.399 77.1797 141.11C77.1797 140.69 77.0257 140.41 76.7177 140.27C76.419 140.13 75.9943 140.004 75.4437 139.892C75.0703 139.817 74.697 139.71 74.3237 139.57C73.9503 139.43 73.6377 139.234 73.3857 138.982C73.1337 138.721 73.0077 138.38 73.0077 137.96C73.0077 137.353 73.2317 136.859 73.6797 136.476C74.137 136.084 74.753 135.888 75.5277 135.888C76.265 135.888 76.867 136.075 77.3337 136.448C77.8097 136.812 78.085 137.335 78.1597 138.016H76.9977C76.951 137.661 76.797 137.386 76.5357 137.19C76.2837 136.985 75.943 136.882 75.5137 136.882C75.0937 136.882 74.767 136.971 74.5337 137.148C74.3097 137.325 74.1977 137.559 74.1977 137.848C74.1977 138.128 74.3423 138.347 74.6317 138.506C74.9303 138.665 75.3317 138.8 75.8357 138.912C76.265 139.005 76.671 139.122 77.0537 139.262C77.4457 139.393 77.763 139.593 78.0057 139.864C78.2577 140.125 78.3837 140.508 78.3837 141.012C78.393 141.637 78.155 142.155 77.6697 142.566C77.1937 142.967 76.545 143.168 75.7237 143.168ZM82.7237 143.168C81.893 143.168 81.2023 142.958 80.6517 142.538C80.101 142.118 79.779 141.549 79.6857 140.83H80.8897C80.9643 141.194 81.1557 141.511 81.4637 141.782C81.781 142.043 82.2057 142.174 82.7377 142.174C83.2323 142.174 83.5963 142.071 83.8297 141.866C84.063 141.651 84.1797 141.399 84.1797 141.11C84.1797 140.69 84.0257 140.41 83.7177 140.27C83.419 140.13 82.9943 140.004 82.4437 139.892C82.0703 139.817 81.697 139.71 81.3237 139.57C80.9503 139.43 80.6377 139.234 80.3857 138.982C80.1337 138.721 80.0077 138.38 80.0077 137.96C80.0077 137.353 80.2317 136.859 80.6797 136.476C81.137 136.084 81.753 135.888 82.5277 135.888C83.265 135.888 83.867 136.075 84.3337 136.448C84.8097 136.812 85.085 137.335 85.1597 138.016H83.9977C83.951 137.661 83.797 137.386 83.5357 137.19C83.2837 136.985 82.943 136.882 82.5137 136.882C82.0937 136.882 81.767 136.971 81.5337 137.148C81.3097 137.325 81.1977 137.559 81.1977 137.848C81.1977 138.128 81.3423 138.347 81.6317 138.506C81.9303 138.665 82.3317 138.8 82.8357 138.912C83.265 139.005 83.671 139.122 84.0537 139.262C84.4457 139.393 84.763 139.593 85.0057 139.864C85.2577 140.125 85.3837 140.508 85.3837 141.012C85.393 141.637 85.155 142.155 84.6697 142.566C84.1937 142.967 83.545 143.168 82.7237 143.168ZM89.3737 143.168C88.795 143.168 88.3143 143.07 87.9317 142.874C87.549 142.678 87.2643 142.417 87.0777 142.09C86.891 141.763 86.7977 141.409 86.7977 141.026C86.7977 140.317 87.0683 139.771 87.6097 139.388C88.151 139.005 88.8883 138.814 89.8217 138.814H91.6977V138.73C91.6977 138.123 91.539 137.666 91.2217 137.358C90.9043 137.041 90.4797 136.882 89.9477 136.882C89.4903 136.882 89.0937 136.999 88.7577 137.232C88.431 137.456 88.2257 137.787 88.1417 138.226H86.9377C86.9843 137.722 87.1523 137.297 87.4417 136.952C87.7403 136.607 88.109 136.345 88.5477 136.168C88.9863 135.981 89.453 135.888 89.9477 135.888C90.9183 135.888 91.6463 136.149 92.1317 136.672C92.6263 137.185 92.8737 137.871 92.8737 138.73V143H91.8237L91.7537 141.754C91.5577 142.146 91.2683 142.482 90.8857 142.762C90.5123 143.033 90.0083 143.168 89.3737 143.168ZM89.5557 142.174C90.0037 142.174 90.3863 142.057 90.7037 141.824C91.0303 141.591 91.2777 141.287 91.4457 140.914C91.6137 140.541 91.6977 140.149 91.6977 139.738V139.724H89.9197C89.229 139.724 88.739 139.845 88.4497 140.088C88.1697 140.321 88.0297 140.615 88.0297 140.97C88.0297 141.334 88.1603 141.628 88.4217 141.852C88.6923 142.067 89.0703 142.174 89.5557 142.174ZM97.1905 143C96.5558 143 96.0565 142.846 95.6925 142.538C95.3285 142.23 95.1465 141.675 95.1465 140.872V137.05H93.9425V136.056H95.1465L95.3005 134.39H96.3225V136.056H98.3665V137.05H96.3225V140.872C96.3225 141.311 96.4111 141.609 96.5885 141.768C96.7658 141.917 97.0785 141.992 97.5265 141.992H98.2545V143H97.1905ZM100.575 134.516C100.341 134.516 100.145 134.441 99.9865 134.292C99.8372 134.133 99.7625 133.937 99.7625 133.704C99.7625 133.48 99.8372 133.293 99.9865 133.144C100.145 132.995 100.341 132.92 100.575 132.92C100.799 132.92 100.99 132.995 101.149 133.144C101.307 133.293 101.387 133.48 101.387 133.704C101.387 133.937 101.307 134.133 101.149 134.292C100.99 134.441 100.799 134.516 100.575 134.516ZM99.9865 143V136.056H101.163V143H99.9865ZM105.87 143.168C105.039 143.168 104.349 142.958 103.798 142.538C103.247 142.118 102.925 141.549 102.832 140.83H104.036C104.111 141.194 104.302 141.511 104.61 141.782C104.927 142.043 105.352 142.174 105.884 142.174C106.379 142.174 106.743 142.071 106.976 141.866C107.209 141.651 107.326 141.399 107.326 141.11C107.326 140.69 107.172 140.41 106.864 140.27C106.565 140.13 106.141 140.004 105.59 139.892C105.217 139.817 104.843 139.71 104.47 139.57C104.097 139.43 103.784 139.234 103.532 138.982C103.28 138.721 103.154 138.38 103.154 137.96C103.154 137.353 103.378 136.859 103.826 136.476C104.283 136.084 104.899 135.888 105.674 135.888C106.411 135.888 107.013 136.075 107.48 136.448C107.956 136.812 108.231 137.335 108.306 138.016H107.144C107.097 137.661 106.943 137.386 106.682 137.19C106.43 136.985 106.089 136.882 105.66 136.882C105.24 136.882 104.913 136.971 104.68 137.148C104.456 137.325 104.344 137.559 104.344 137.848C104.344 138.128 104.489 138.347 104.778 138.506C105.077 138.665 105.478 138.8 105.982 138.912C106.411 139.005 106.817 139.122 107.2 139.262C107.592 139.393 107.909 139.593 108.152 139.864C108.404 140.125 108.53 140.508 108.53 141.012C108.539 141.637 108.301 142.155 107.816 142.566C107.34 142.967 106.691 143.168 105.87 143.168ZM110.588 143V137.05H109.538V136.056H110.588V134.852C110.588 134.18 110.756 133.69 111.092 133.382C111.428 133.074 111.918 132.92 112.562 132.92H113.262V133.928H112.744C112.389 133.928 112.137 134.003 111.988 134.152C111.839 134.292 111.764 134.535 111.764 134.88V136.056H116.076V143H114.9V137.05H111.764V143H110.588ZM115.502 134.726C115.278 134.726 115.087 134.651 114.928 134.502C114.769 134.343 114.69 134.147 114.69 133.914C114.69 133.69 114.769 133.503 114.928 133.354C115.087 133.205 115.278 133.13 115.502 133.13C115.735 133.13 115.927 133.205 116.076 133.354C116.235 133.503 116.314 133.69 116.314 133.914C116.314 134.147 116.235 134.343 116.076 134.502C115.927 134.651 115.735 134.726 115.502 134.726ZM121.276 143.168C120.613 143.168 120.025 143.019 119.512 142.72C118.998 142.412 118.592 141.987 118.294 141.446C118.004 140.905 117.86 140.265 117.86 139.528C117.86 138.8 118.004 138.165 118.294 137.624C118.583 137.073 118.984 136.649 119.498 136.35C120.02 136.042 120.622 135.888 121.303 135.888C121.976 135.888 122.554 136.042 123.04 136.35C123.534 136.649 123.912 137.045 124.174 137.54C124.435 138.035 124.566 138.567 124.566 139.136C124.566 139.239 124.561 139.341 124.552 139.444C124.552 139.547 124.552 139.663 124.552 139.794H119.022C119.05 140.326 119.171 140.769 119.386 141.124C119.61 141.469 119.885 141.731 120.212 141.908C120.548 142.085 120.902 142.174 121.276 142.174C121.761 142.174 122.167 142.062 122.494 141.838C122.82 141.614 123.058 141.311 123.208 140.928H124.37C124.183 141.572 123.824 142.109 123.292 142.538C122.769 142.958 122.097 143.168 121.276 143.168ZM121.276 136.882C120.716 136.882 120.216 137.055 119.778 137.4C119.348 137.736 119.101 138.231 119.035 138.884H123.404C123.376 138.259 123.161 137.769 122.76 137.414C122.358 137.059 121.864 136.882 121.276 136.882ZM129.274 143.168C128.584 143.168 127.977 143.009 127.454 142.692C126.941 142.375 126.54 141.941 126.25 141.39C125.97 140.839 125.83 140.214 125.83 139.514C125.83 138.814 125.975 138.193 126.264 137.652C126.554 137.101 126.955 136.672 127.468 136.364C127.982 136.047 128.588 135.888 129.288 135.888C129.858 135.888 130.362 136.005 130.8 136.238C131.239 136.471 131.58 136.798 131.822 137.218V132.92H132.998V143H131.934L131.822 141.852C131.598 142.188 131.276 142.491 130.856 142.762C130.436 143.033 129.909 143.168 129.274 143.168ZM129.4 142.146C129.867 142.146 130.278 142.039 130.632 141.824C130.996 141.6 131.276 141.292 131.472 140.9C131.678 140.508 131.78 140.051 131.78 139.528C131.78 139.005 131.678 138.548 131.472 138.156C131.276 137.764 130.996 137.461 130.632 137.246C130.278 137.022 129.867 136.91 129.4 136.91C128.943 136.91 128.532 137.022 128.168 137.246C127.814 137.461 127.534 137.764 127.328 138.156C127.132 138.548 127.034 139.005 127.034 139.528C127.034 140.051 127.132 140.508 127.328 140.9C127.534 141.292 127.814 141.6 128.168 141.824C128.532 142.039 128.943 142.146 129.4 142.146Z" fill="black"/>
<path d="M400.088 143.168C399.463 143.168 398.898 143.056 398.394 142.832C397.89 142.599 397.484 142.253 397.176 141.796C396.877 141.339 396.719 140.769 396.7 140.088H397.89C397.899 140.648 398.095 141.133 398.478 141.544C398.861 141.945 399.397 142.146 400.088 142.146C400.779 142.146 401.297 141.955 401.642 141.572C401.997 141.189 402.174 140.727 402.174 140.186C402.174 139.729 402.062 139.355 401.838 139.066C401.623 138.777 401.329 138.562 400.956 138.422C400.592 138.282 400.191 138.212 399.752 138.212H399.024V137.218H399.752C400.387 137.218 400.881 137.073 401.236 136.784C401.6 136.495 401.782 136.089 401.782 135.566C401.782 135.127 401.637 134.768 401.348 134.488C401.068 134.199 400.648 134.054 400.088 134.054C399.547 134.054 399.113 134.217 398.786 134.544C398.459 134.861 398.277 135.263 398.24 135.748H397.05C397.078 135.216 397.218 134.745 397.47 134.334C397.731 133.923 398.086 133.606 398.534 133.382C398.982 133.149 399.5 133.032 400.088 133.032C400.723 133.032 401.25 133.144 401.67 133.368C402.099 133.592 402.421 133.891 402.636 134.264C402.86 134.637 402.972 135.048 402.972 135.496C402.972 135.991 402.837 136.443 402.566 136.854C402.295 137.255 401.889 137.526 401.348 137.666C401.927 137.787 402.407 138.063 402.79 138.492C403.173 138.921 403.364 139.486 403.364 140.186C403.364 140.727 403.238 141.227 402.986 141.684C402.743 142.132 402.379 142.491 401.894 142.762C401.409 143.033 400.807 143.168 400.088 143.168ZM409.088 143.168C408.22 143.168 407.469 142.958 406.834 142.538C406.209 142.109 405.728 141.516 405.392 140.76C405.056 139.995 404.888 139.108 404.888 138.1C404.888 137.092 405.056 136.21 405.392 135.454C405.728 134.689 406.209 134.096 406.834 133.676C407.469 133.247 408.22 133.032 409.088 133.032C409.956 133.032 410.703 133.247 411.328 133.676C411.954 134.096 412.434 134.689 412.77 135.454C413.106 136.21 413.274 137.092 413.274 138.1C413.274 139.108 413.106 139.995 412.77 140.76C412.434 141.516 411.954 142.109 411.328 142.538C410.703 142.958 409.956 143.168 409.088 143.168ZM409.088 142.132C409.658 142.132 410.166 141.973 410.614 141.656C411.072 141.329 411.426 140.867 411.678 140.27C411.94 139.663 412.07 138.94 412.07 138.1C412.07 137.26 411.94 136.541 411.678 135.944C411.426 135.347 411.072 134.889 410.614 134.572C410.166 134.245 409.658 134.082 409.088 134.082C408.51 134.082 407.996 134.245 407.548 134.572C407.1 134.889 406.746 135.347 406.484 135.944C406.223 136.541 406.092 137.26 406.092 138.1C406.092 138.94 406.223 139.663 406.484 140.27C406.746 140.867 407.1 141.329 407.548 141.656C407.996 141.973 408.51 142.132 409.088 142.132ZM416.738 137.75C416.318 137.75 415.935 137.657 415.59 137.47C415.254 137.274 414.988 137.003 414.792 136.658C414.596 136.303 414.498 135.883 414.498 135.398C414.498 134.913 414.596 134.497 414.792 134.152C414.997 133.797 415.268 133.527 415.604 133.34C415.949 133.144 416.332 133.046 416.752 133.046C417.172 133.046 417.55 133.144 417.886 133.34C418.222 133.527 418.488 133.797 418.684 134.152C418.88 134.497 418.978 134.913 418.978 135.398C418.978 135.883 418.875 136.303 418.67 136.658C418.474 137.003 418.208 137.274 417.872 137.47C417.536 137.657 417.158 137.75 416.738 137.75ZM415.87 143L421.568 133.2H422.744L417.046 143H415.87ZM416.738 136.84C417.064 136.84 417.349 136.719 417.592 136.476C417.844 136.233 417.97 135.874 417.97 135.398C417.97 134.913 417.848 134.549 417.606 134.306C417.363 134.054 417.078 133.928 416.752 133.928C416.425 133.928 416.131 134.054 415.87 134.306C415.618 134.549 415.492 134.913 415.492 135.398C415.492 135.874 415.618 136.233 415.87 136.476C416.122 136.719 416.411 136.84 416.738 136.84ZM421.974 143.168C421.554 143.168 421.171 143.075 420.826 142.888C420.49 142.692 420.224 142.421 420.028 142.076C419.832 141.721 419.734 141.301 419.734 140.816C419.734 140.331 419.832 139.915 420.028 139.57C420.233 139.215 420.504 138.945 420.84 138.758C421.176 138.562 421.554 138.464 421.974 138.464C422.394 138.464 422.772 138.562 423.108 138.758C423.444 138.945 423.71 139.215 423.906 139.57C424.102 139.915 424.2 140.331 424.2 140.816C424.2 141.301 424.102 141.721 423.906 142.076C423.71 142.421 423.444 142.692 423.108 142.888C422.772 143.075 422.394 143.168 421.974 143.168ZM421.96 142.258C422.296 142.258 422.585 142.137 422.828 141.894C423.08 141.651 423.206 141.292 423.206 140.816C423.206 140.331 423.084 139.967 422.842 139.724C422.599 139.481 422.31 139.36 421.974 139.36C421.647 139.36 421.358 139.481 421.106 139.724C420.854 139.967 420.728 140.331 420.728 140.816C420.728 141.292 420.849 141.651 421.092 141.894C421.344 142.137 421.633 142.258 421.96 142.258Z" fill="black"/>
<path d="M20.686 140.18V138.248L25.11 131.92H27.784V138.108H28.932V140.18H27.784V142H25.39V140.18H20.686ZM25.558 134.552L23.206 138.108H25.558V134.552ZM31.7426 142.112C31.3226 142.112 30.9773 141.991 30.7066 141.748C30.4453 141.496 30.3146 141.188 30.3146 140.824C30.3146 140.451 30.4453 140.138 30.7066 139.886C30.9773 139.634 31.3226 139.508 31.7426 139.508C32.1533 139.508 32.4893 139.634 32.7506 139.886C33.0213 140.138 33.1566 140.451 33.1566 140.824C33.1566 141.188 33.0213 141.496 32.7506 141.748C32.4893 141.991 32.1533 142.112 31.7426 142.112Z" fill="black"/>
<path d="M0.5 168C0.5 163.858 3.85786 160.5 8 160.5H428C432.142 160.5 435.5 163.858 435.5 168V188C435.5 192.142 432.142 195.5 428 195.5H8C3.85787 195.5 0.5 192.142 0.5 188V168Z" fill="#F8F8F8" fill-opacity="0.05" stroke="#67D7D1"/>
<path d="M0 168C0 163.582 3.58172 160 8 160H86C90.4183 160 94 163.582 94 168V188C94 192.418 90.4183 196 86 196H8C3.58172 196 0 192.418 0 188V168Z" fill="#462255" fill-opacity="0.1"/>
<path d="M62.99 183L59.308 173.2H60.582L63.676 181.754L66.798 173.2H68.044L64.362 183H62.99ZM71.5235 183.168C70.8609 183.168 70.2729 183.019 69.7595 182.72C69.2462 182.412 68.8402 181.987 68.5415 181.446C68.2522 180.905 68.1075 180.265 68.1075 179.528C68.1075 178.8 68.2522 178.165 68.5415 177.624C68.8309 177.073 69.2322 176.649 69.7455 176.35C70.2682 176.042 70.8702 175.888 71.5515 175.888C72.2235 175.888 72.8022 176.042 73.2875 176.35C73.7822 176.649 74.1602 177.045 74.4215 177.54C74.6829 178.035 74.8135 178.567 74.8135 179.136C74.8135 179.239 74.8089 179.341 74.7995 179.444C74.7995 179.547 74.7995 179.663 74.7995 179.794H69.2695C69.2975 180.326 69.4189 180.769 69.6335 181.124C69.8575 181.469 70.1329 181.731 70.4595 181.908C70.7955 182.085 71.1502 182.174 71.5235 182.174C72.0089 182.174 72.4149 182.062 72.7415 181.838C73.0682 181.614 73.3062 181.311 73.4555 180.928H74.6175C74.4309 181.572 74.0715 182.109 73.5395 182.538C73.0169 182.958 72.3449 183.168 71.5235 183.168ZM71.5235 176.882C70.9635 176.882 70.4642 177.055 70.0255 177.4C69.5962 177.736 69.3489 178.231 69.2835 178.884H73.6515C73.6235 178.259 73.4089 177.769 73.0075 177.414C72.6062 177.059 72.1115 176.882 71.5235 176.882ZM76.3723 183V176.056H77.4363L77.5343 177.386C77.7489 176.929 78.0756 176.565 78.5143 176.294C78.9529 176.023 79.4943 175.888 80.1383 175.888V177.12H79.8163C79.4056 177.12 79.0276 177.195 78.6823 177.344C78.3369 177.484 78.0616 177.727 77.8563 178.072C77.6509 178.417 77.5483 178.893 77.5483 179.5V183H76.3723ZM82.2142 186.08L83.9362 182.328H83.5302L80.7722 176.056H82.0462L84.3422 181.46L86.7782 176.056H87.9962L83.4462 186.08H82.2142ZM93.0126 183V173.2H96.0226C97.7492 173.2 99.0186 173.639 99.8306 174.516C100.652 175.393 101.063 176.597 101.063 178.128C101.063 179.631 100.652 180.821 99.8306 181.698C99.0186 182.566 97.7492 183 96.0226 183H93.0126ZM94.1886 182.02H95.9946C96.9466 182.02 97.7026 181.866 98.2626 181.558C98.8319 181.241 99.2379 180.793 99.4806 180.214C99.7232 179.626 99.8446 178.931 99.8446 178.128C99.8446 177.307 99.7232 176.602 99.4806 176.014C99.2379 175.426 98.8319 174.973 98.2626 174.656C97.7026 174.339 96.9466 174.18 95.9946 174.18H94.1886V182.02ZM103.405 174.516C103.171 174.516 102.975 174.441 102.817 174.292C102.667 174.133 102.593 173.937 102.593 173.704C102.593 173.48 102.667 173.293 102.817 173.144C102.975 172.995 103.171 172.92 103.405 172.92C103.629 172.92 103.82 172.995 103.979 173.144C104.137 173.293 104.217 173.48 104.217 173.704C104.217 173.937 104.137 174.133 103.979 174.292C103.82 174.441 103.629 174.516 103.405 174.516ZM102.817 183V176.056H103.993V183H102.817ZM108.7 183.168C107.87 183.168 107.179 182.958 106.628 182.538C106.078 182.118 105.756 181.549 105.662 180.83H106.866C106.941 181.194 107.132 181.511 107.44 181.782C107.758 182.043 108.182 182.174 108.714 182.174C109.209 182.174 109.573 182.071 109.806 181.866C110.04 181.651 110.156 181.399 110.156 181.11C110.156 180.69 110.002 180.41 109.694 180.27C109.396 180.13 108.971 180.004 108.42 179.892C108.047 179.817 107.674 179.71 107.3 179.57C106.927 179.43 106.614 179.234 106.362 178.982C106.11 178.721 105.984 178.38 105.984 177.96C105.984 177.353 106.208 176.859 106.656 176.476C107.114 176.084 107.73 175.888 108.504 175.888C109.242 175.888 109.844 176.075 110.31 176.448C110.786 176.812 111.062 177.335 111.136 178.016H109.974C109.928 177.661 109.774 177.386 109.512 177.19C109.26 176.985 108.92 176.882 108.49 176.882C108.07 176.882 107.744 176.971 107.51 177.148C107.286 177.325 107.174 177.559 107.174 177.848C107.174 178.128 107.319 178.347 107.608 178.506C107.907 178.665 108.308 178.8 108.812 178.912C109.242 179.005 109.648 179.122 110.03 179.262C110.422 179.393 110.74 179.593 110.982 179.864C111.234 180.125 111.36 180.508 111.36 181.012C111.37 181.637 111.132 182.155 110.646 182.566C110.17 182.967 109.522 183.168 108.7 183.168ZM115.7 183.168C114.87 183.168 114.179 182.958 113.628 182.538C113.078 182.118 112.756 181.549 112.662 180.83H113.866C113.941 181.194 114.132 181.511 114.44 181.782C114.758 182.043 115.182 182.174 115.714 182.174C116.209 182.174 116.573 182.071 116.806 181.866C117.04 181.651 117.156 181.399 117.156 181.11C117.156 180.69 117.002 180.41 116.694 180.27C116.396 180.13 115.971 180.004 115.42 179.892C115.047 179.817 114.674 179.71 114.3 179.57C113.927 179.43 113.614 179.234 113.362 178.982C113.11 178.721 112.984 178.38 112.984 177.96C112.984 177.353 113.208 176.859 113.656 176.476C114.114 176.084 114.73 175.888 115.504 175.888C116.242 175.888 116.844 176.075 117.31 176.448C117.786 176.812 118.062 177.335 118.136 178.016H116.974C116.928 177.661 116.774 177.386 116.512 177.19C116.26 176.985 115.92 176.882 115.49 176.882C115.07 176.882 114.744 176.971 114.51 177.148C114.286 177.325 114.174 177.559 114.174 177.848C114.174 178.128 114.319 178.347 114.608 178.506C114.907 178.665 115.308 178.8 115.812 178.912C116.242 179.005 116.648 179.122 117.03 179.262C117.422 179.393 117.74 179.593 117.982 179.864C118.234 180.125 118.36 180.508 118.36 181.012C118.37 181.637 118.132 182.155 117.646 182.566C117.17 182.967 116.522 183.168 115.7 183.168ZM122.35 183.168C121.772 183.168 121.291 183.07 120.908 182.874C120.526 182.678 120.241 182.417 120.054 182.09C119.868 181.763 119.774 181.409 119.774 181.026C119.774 180.317 120.045 179.771 120.586 179.388C121.128 179.005 121.865 178.814 122.798 178.814H124.674V178.73C124.674 178.123 124.516 177.666 124.198 177.358C123.881 177.041 123.456 176.882 122.924 176.882C122.467 176.882 122.07 176.999 121.734 177.232C121.408 177.456 121.202 177.787 121.118 178.226H119.914C119.961 177.722 120.129 177.297 120.418 176.952C120.717 176.607 121.086 176.345 121.524 176.168C121.963 175.981 122.43 175.888 122.924 175.888C123.895 175.888 124.623 176.149 125.108 176.672C125.603 177.185 125.85 177.871 125.85 178.73V183H124.8L124.73 181.754C124.534 182.146 124.245 182.482 123.862 182.762C123.489 183.033 122.985 183.168 122.35 183.168ZM122.532 182.174C122.98 182.174 123.363 182.057 123.68 181.824C124.007 181.591 124.254 181.287 124.422 180.914C124.59 180.541 124.674 180.149 124.674 179.738V179.724H122.896C122.206 179.724 121.716 179.845 121.426 180.088C121.146 180.321 121.006 180.615 121.006 180.97C121.006 181.334 121.137 181.628 121.398 181.852C121.669 182.067 122.047 182.174 122.532 182.174ZM130.167 183C129.532 183 129.033 182.846 128.669 182.538C128.305 182.23 128.123 181.675 128.123 180.872V177.05H126.919V176.056H128.123L128.277 174.39H129.299V176.056H131.343V177.05H129.299V180.872C129.299 181.311 129.388 181.609 129.565 181.768C129.742 181.917 130.055 181.992 130.503 181.992H131.231V183H130.167ZM133.551 174.516C133.318 174.516 133.122 174.441 132.963 174.292C132.814 174.133 132.739 173.937 132.739 173.704C132.739 173.48 132.814 173.293 132.963 173.144C133.122 172.995 133.318 172.92 133.551 172.92C133.775 172.92 133.966 172.995 134.125 173.144C134.284 173.293 134.363 173.48 134.363 173.704C134.363 173.937 134.284 174.133 134.125 174.292C133.966 174.441 133.775 174.516 133.551 174.516ZM132.963 183V176.056H134.139V183H132.963ZM138.847 183.168C138.016 183.168 137.325 182.958 136.775 182.538C136.224 182.118 135.902 181.549 135.809 180.83H137.013C137.087 181.194 137.279 181.511 137.587 181.782C137.904 182.043 138.329 182.174 138.861 182.174C139.355 182.174 139.719 182.071 139.953 181.866C140.186 181.651 140.303 181.399 140.303 181.11C140.303 180.69 140.149 180.41 139.841 180.27C139.542 180.13 139.117 180.004 138.567 179.892C138.193 179.817 137.82 179.71 137.447 179.57C137.073 179.43 136.761 179.234 136.509 178.982C136.257 178.721 136.131 178.38 136.131 177.96C136.131 177.353 136.355 176.859 136.803 176.476C137.26 176.084 137.876 175.888 138.651 175.888C139.388 175.888 139.99 176.075 140.457 176.448C140.933 176.812 141.208 177.335 141.283 178.016H140.121C140.074 177.661 139.92 177.386 139.659 177.19C139.407 176.985 139.066 176.882 138.637 176.882C138.217 176.882 137.89 176.971 137.657 177.148C137.433 177.325 137.321 177.559 137.321 177.848C137.321 178.128 137.465 178.347 137.755 178.506C138.053 178.665 138.455 178.8 138.959 178.912C139.388 179.005 139.794 179.122 140.177 179.262C140.569 179.393 140.886 179.593 141.129 179.864C141.381 180.125 141.507 180.508 141.507 181.012C141.516 181.637 141.278 182.155 140.793 182.566C140.317 182.967 139.668 183.168 138.847 183.168ZM143.565 183V177.05H142.515V176.056H143.565V174.852C143.565 174.18 143.733 173.69 144.069 173.382C144.405 173.074 144.895 172.92 145.539 172.92H146.239V173.928H145.721C145.366 173.928 145.114 174.003 144.965 174.152C144.815 174.292 144.741 174.535 144.741 174.88V176.056H149.053V183H147.877V177.05H144.741V183H143.565ZM148.479 174.726C148.255 174.726 148.063 174.651 147.905 174.502C147.746 174.343 147.667 174.147 147.667 173.914C147.667 173.69 147.746 173.503 147.905 173.354C148.063 173.205 148.255 173.13 148.479 173.13C148.712 173.13 148.903 173.205 149.053 173.354C149.211 173.503 149.291 173.69 149.291 173.914C149.291 174.147 149.211 174.343 149.053 174.502C148.903 174.651 148.712 174.726 148.479 174.726ZM154.252 183.168C153.589 183.168 153.001 183.019 152.488 182.72C151.975 182.412 151.569 181.987 151.27 181.446C150.981 180.905 150.836 180.265 150.836 179.528C150.836 178.8 150.981 178.165 151.27 177.624C151.559 177.073 151.961 176.649 152.474 176.35C152.997 176.042 153.599 175.888 154.28 175.888C154.952 175.888 155.531 176.042 156.016 176.35C156.511 176.649 156.889 177.045 157.15 177.54C157.411 178.035 157.542 178.567 157.542 179.136C157.542 179.239 157.537 179.341 157.528 179.444C157.528 179.547 157.528 179.663 157.528 179.794H151.998C152.026 180.326 152.147 180.769 152.362 181.124C152.586 181.469 152.861 181.731 153.188 181.908C153.524 182.085 153.879 182.174 154.252 182.174C154.737 182.174 155.143 182.062 155.47 181.838C155.797 181.614 156.035 181.311 156.184 180.928H157.346C157.159 181.572 156.8 182.109 156.268 182.538C155.745 182.958 155.073 183.168 154.252 183.168ZM154.252 176.882C153.692 176.882 153.193 177.055 152.754 177.4C152.325 177.736 152.077 178.231 152.012 178.884H156.38C156.352 178.259 156.137 177.769 155.736 177.414C155.335 177.059 154.84 176.882 154.252 176.882ZM162.251 183.168C161.56 183.168 160.953 183.009 160.431 182.692C159.917 182.375 159.516 181.941 159.227 181.39C158.947 180.839 158.807 180.214 158.807 179.514C158.807 178.814 158.951 178.193 159.241 177.652C159.53 177.101 159.931 176.672 160.445 176.364C160.958 176.047 161.565 175.888 162.265 175.888C162.834 175.888 163.338 176.005 163.777 176.238C164.215 176.471 164.556 176.798 164.799 177.218V172.92H165.975V183H164.911L164.799 181.852C164.575 182.188 164.253 182.491 163.833 182.762C163.413 183.033 162.885 183.168 162.251 183.168ZM162.377 182.146C162.843 182.146 163.254 182.039 163.609 181.824C163.973 181.6 164.253 181.292 164.449 180.9C164.654 180.508 164.757 180.051 164.757 179.528C164.757 179.005 164.654 178.548 164.449 178.156C164.253 177.764 163.973 177.461 163.609 177.246C163.254 177.022 162.843 176.91 162.377 176.91C161.919 176.91 161.509 177.022 161.145 177.246C160.79 177.461 160.51 177.764 160.305 178.156C160.109 178.548 160.011 179.005 160.011 179.528C160.011 180.051 160.109 180.508 160.305 180.9C160.51 181.292 160.79 181.6 161.145 181.824C161.509 182.039 161.919 182.146 162.377 182.146Z" fill="black"/>
<path d="M398.002 183V174.516L396.42 174.866V174.054L398.394 173.2H399.192V183H398.002ZM404.495 183.168C403.851 183.168 403.272 183.051 402.759 182.818C402.245 182.575 401.839 182.244 401.541 181.824C401.251 181.395 401.107 180.9 401.107 180.34C401.107 179.743 401.279 179.206 401.625 178.73C401.979 178.254 402.446 177.937 403.025 177.778C402.493 177.601 402.082 177.316 401.793 176.924C401.503 176.532 401.359 176.103 401.359 175.636C401.359 175.16 401.485 174.726 401.737 174.334C401.989 173.933 402.348 173.615 402.815 173.382C403.281 173.149 403.841 173.032 404.495 173.032C405.148 173.032 405.708 173.149 406.175 173.382C406.641 173.615 407.001 173.933 407.253 174.334C407.505 174.726 407.631 175.16 407.631 175.636C407.631 176.093 407.486 176.523 407.197 176.924C406.907 177.316 406.497 177.601 405.965 177.778C406.543 177.937 407.005 178.254 407.351 178.73C407.705 179.206 407.883 179.743 407.883 180.34C407.883 180.9 407.733 181.395 407.435 181.824C407.145 182.244 406.744 182.575 406.231 182.818C405.717 183.051 405.139 183.168 404.495 183.168ZM404.495 177.358C405.092 177.358 405.563 177.209 405.909 176.91C406.263 176.602 406.441 176.201 406.441 175.706C406.441 175.155 406.268 174.74 405.923 174.46C405.577 174.18 405.101 174.04 404.495 174.04C403.888 174.04 403.412 174.18 403.067 174.46C402.731 174.74 402.563 175.155 402.563 175.706C402.563 176.201 402.735 176.602 403.081 176.91C403.426 177.209 403.897 177.358 404.495 177.358ZM404.495 182.132C405.232 182.132 405.783 181.964 406.147 181.628C406.52 181.283 406.707 180.83 406.707 180.27C406.707 179.635 406.506 179.155 406.105 178.828C405.703 178.501 405.167 178.338 404.495 178.338C403.823 178.338 403.286 178.501 402.885 178.828C402.483 179.155 402.283 179.635 402.283 180.27C402.283 180.83 402.465 181.283 402.829 181.628C403.202 181.964 403.757 182.132 404.495 182.132ZM411.57 177.75C411.15 177.75 410.767 177.657 410.422 177.47C410.086 177.274 409.82 177.003 409.624 176.658C409.428 176.303 409.33 175.883 409.33 175.398C409.33 174.913 409.428 174.497 409.624 174.152C409.829 173.797 410.1 173.527 410.436 173.34C410.781 173.144 411.164 173.046 411.584 173.046C412.004 173.046 412.382 173.144 412.718 173.34C413.054 173.527 413.32 173.797 413.516 174.152C413.712 174.497 413.81 174.913 413.81 175.398C413.81 175.883 413.707 176.303 413.502 176.658C413.306 177.003 413.04 177.274 412.704 177.47C412.368 177.657 411.99 177.75 411.57 177.75ZM410.702 183L416.4 173.2H417.576L411.878 183H410.702ZM411.57 176.84C411.896 176.84 412.181 176.719 412.424 176.476C412.676 176.233 412.802 175.874 412.802 175.398C412.802 174.913 412.68 174.549 412.438 174.306C412.195 174.054 411.91 173.928 411.584 173.928C411.257 173.928 410.963 174.054 410.702 174.306C410.45 174.549 410.324 174.913 410.324 175.398C410.324 175.874 410.45 176.233 410.702 176.476C410.954 176.719 411.243 176.84 411.57 176.84ZM416.806 183.168C416.386 183.168 416.003 183.075 415.658 182.888C415.322 182.692 415.056 182.421 414.86 182.076C414.664 181.721 414.566 181.301 414.566 180.816C414.566 180.331 414.664 179.915 414.86 179.57C415.065 179.215 415.336 178.945 415.672 178.758C416.008 178.562 416.386 178.464 416.806 178.464C417.226 178.464 417.604 178.562 417.94 178.758C418.276 178.945 418.542 179.215 418.738 179.57C418.934 179.915 419.032 180.331 419.032 180.816C419.032 181.301 418.934 181.721 418.738 182.076C418.542 182.421 418.276 182.692 417.94 182.888C417.604 183.075 417.226 183.168 416.806 183.168ZM416.792 182.258C417.128 182.258 417.417 182.137 417.66 181.894C417.912 181.651 418.038 181.292 418.038 180.816C418.038 180.331 417.916 179.967 417.674 179.724C417.431 179.481 417.142 179.36 416.806 179.36C416.479 179.36 416.19 179.481 415.938 179.724C415.686 179.967 415.56 180.331 415.56 180.816C415.56 181.292 415.681 181.651 415.924 181.894C416.176 182.137 416.465 182.258 416.792 182.258Z" fill="black"/>
<path d="M27.826 173.866H23.458V175.798C23.6447 175.593 23.906 175.425 24.242 175.294C24.578 175.163 24.942 175.098 25.334 175.098C26.034 175.098 26.6127 175.257 27.07 175.574C27.5367 175.891 27.8773 176.302 28.092 176.806C28.3067 177.31 28.414 177.856 28.414 178.444C28.414 179.536 28.106 180.404 27.49 181.048C26.874 181.683 26.006 182 24.886 182C24.1393 182 23.4907 181.874 22.94 181.622C22.3893 181.361 21.9647 181.001 21.666 180.544C21.3673 180.087 21.204 179.559 21.176 178.962H23.514C23.57 179.251 23.7053 179.494 23.92 179.69C24.1347 179.877 24.4287 179.97 24.802 179.97C25.2407 179.97 25.5673 179.83 25.782 179.55C25.9967 179.27 26.104 178.897 26.104 178.43C26.104 177.973 25.992 177.623 25.768 177.38C25.544 177.137 25.2173 177.016 24.788 177.016C24.4707 177.016 24.2093 177.095 24.004 177.254C23.7987 177.403 23.6633 177.604 23.598 177.856H21.288V171.766H27.826V173.866ZM31.3735 182.112C30.9535 182.112 30.6081 181.991 30.3375 181.748C30.0761 181.496 29.9455 181.188 29.9455 180.824C29.9455 180.451 30.0761 180.138 30.3375 179.886C30.6081 179.634 30.9535 179.508 31.3735 179.508C31.7841 179.508 32.1201 179.634 32.3815 179.886C32.6521 180.138 32.7875 180.451 32.7875 180.824C32.7875 181.188 32.6521 181.496 32.3815 181.748C32.1201 181.991 31.7841 182.112 31.3735 182.112Z" fill="black"/>
</svg>
