<svg width="32" height="34" viewBox="0 0 32 34" fill="none" xmlns="http://www.w3.org/2000/svg">
<rect width="32" height="34" rx="4" fill="#F2F2F2"/>
<path d="M12.5973 4C10.1864 4 8.22545 5.96069 8.22545 8.35907C8.22545 9.05916 8.33566 9.73031 8.52735 10.3701H6.73631C6.57732 10.3707 6.4486 10.4995 6.44798 10.6584C6.4486 10.8174 6.57732 10.9462 6.73631 10.9468H8.72409C9.42195 12.7529 10.7525 14.2822 12.0653 15.4596C13.9664 17.1647 15.8668 18.1525 15.8668 18.1525C15.9505 18.196 16.05 18.196 16.1336 18.1525C16.1336 18.1525 18.034 17.1647 19.9351 15.4596C21.2479 14.2822 22.5774 12.7529 23.2746 10.9468H25.2618C25.4217 10.9474 25.5518 10.8183 25.5524 10.6584C25.5521 10.4984 25.4219 10.3689 25.2618 10.3696H23.4714C23.6628 9.7299 23.7727 9.05897 23.7727 8.35907C23.7727 5.96069 21.8117 4 19.4008 4C17.9997 4 16.8007 4.60327 16.0001 5.63086C15.2002 4.60173 13.9999 3.99999 12.5973 4ZM12.5973 4.57894C13.8727 4.57894 15.002 5.22683 15.6536 6.12281C15.303 6.69901 15.0992 7.33979 15.0442 8.01079C15.0312 8.17001 15.1495 8.30968 15.3088 8.32287C15.4682 8.33589 15.6079 8.21719 15.6208 8.05772C15.7806 6.10943 17.4087 4.57894 19.4008 4.57894C21.4989 4.57894 23.1938 6.27548 23.1938 8.35907C23.1938 9.05598 23.0724 9.72765 22.8619 10.3696H17.9371L17.14 8.24146C17.0979 8.12896 16.9909 8.05407 16.8709 8.05319C16.7438 8.05319 16.6476 8.12212 16.5995 8.23525L15.1211 11.93L14.5292 10.5454C14.4836 10.4394 14.3794 10.3704 14.264 10.3701H9.13736C8.9265 9.728 8.80494 9.05622 8.80494 8.35907C8.80494 6.27548 10.4992 4.57894 12.5973 4.57894ZM16.8601 9.14325L17.465 10.7608C17.508 10.8732 17.6161 10.9472 17.7364 10.9468H22.6454C21.9721 12.5452 20.7688 13.9359 19.5484 15.0305C17.7744 16.6216 16.1281 17.4768 16.0013 17.5436C15.8758 17.4774 14.2267 16.6222 12.452 15.0305C11.2316 13.9359 10.0272 12.5452 9.35332 10.9468H14.0718L14.8644 12.7996C14.9652 13.0393 15.3063 13.035 15.4009 12.793L16.8601 9.14325ZM6.06935 11.4806C5.28763 11.69 4.8442 12.4805 5.05042 13.2502L6.84712 19.9624C6.95936 20.3811 7.26956 20.6579 7.47126 20.8596L10.2149 23.6034L10.2127 26.6169C9.71439 26.746 9.34324 27.2015 9.34324 27.7386V30.3433C9.34387 30.5031 9.47397 30.6322 9.63382 30.6316C13.8789 30.6316 18.1239 30.6316 22.369 30.6316C22.5289 30.6322 22.659 30.5031 22.6596 30.3433V27.7386C22.6596 27.2006 22.287 26.7445 21.7873 26.6163L21.784 23.6034L24.5276 20.8596C24.7293 20.6579 25.039 20.3811 25.1512 19.9624C25.7535 17.7297 26.3518 15.487 26.9507 13.2502C27.157 12.4805 26.6965 11.6851 25.9269 11.4789C25.1245 11.2639 24.3632 11.7327 24.1556 12.5005C23.6944 13.889 23.2358 15.2832 22.7767 16.6741C22.5681 16.5657 22.3383 16.5113 22.1085 16.5113C21.7376 16.5113 21.3663 16.6525 21.0846 16.9342L16.9547 21.0649C16.7946 21.2248 16.6819 21.3762 16.6274 21.5522C16.5728 21.7282 16.5781 21.8879 16.5781 22.0888V26.6175C16.3513 26.6766 16.163 26.7852 16.0015 26.9735C15.8415 26.7783 15.6055 26.6596 15.4225 26.6164V22.0888C15.4225 21.8685 15.4214 21.6982 15.3626 21.5245C15.3041 21.3508 15.1918 21.2107 15.046 21.0649L10.9138 16.9342C10.4415 16.4619 9.7526 16.392 9.22397 16.6741L7.84563 12.5028C7.63996 11.7351 6.86957 11.2631 6.06935 11.4806ZM7.28527 12.652C7.77405 14.1232 8.26001 15.6001 8.74649 17.0738C8.30916 17.6403 8.34956 18.4601 8.86861 18.9792L12.9607 23.0736C13.0738 23.187 13.2574 23.187 13.3705 23.0736C13.4828 22.9607 13.4828 22.7784 13.3705 22.6654L9.2768 18.571C8.95927 18.2534 8.9279 17.693 9.27243 17.3459C9.61728 16.9988 10.1711 17.0077 10.5049 17.3415L14.6354 21.4745C14.7565 21.5956 14.7922 21.6483 14.8129 21.7097C14.8336 21.7709 14.8423 21.8788 14.8423 22.0879V26.5792H10.791L10.7932 23.4832C10.7938 23.4066 10.7639 23.3327 10.71 23.278L7.88101 20.4489C7.6736 20.2414 7.46051 20.0125 7.40667 19.8117L5.60715 13.1001C5.48133 12.6305 5.77231 12.1584 6.22283 12.0377C6.69252 11.9119 7.16975 12.2208 7.28527 12.652ZM25.7769 12.0385C26.2464 12.1644 26.5161 12.6314 26.3903 13.1009L24.5936 19.8125C24.5398 20.0134 24.3267 20.2423 24.1193 20.4497L21.2897 23.2788C21.2351 23.3332 21.2043 23.407 21.2043 23.4841L21.2087 26.5801H17.1557V22.0887C17.1557 21.8884 17.1623 21.7832 17.1811 21.7229C17.1998 21.6627 17.2325 21.6057 17.3631 21.4753L21.4953 17.3424C21.839 16.9986 22.3801 16.9986 22.7238 17.3424C23.0675 17.6861 23.0675 18.2272 22.7238 18.5709L18.6301 22.6654C18.5178 22.7783 18.5178 22.9607 18.6301 23.0736C18.743 23.1859 18.9254 23.1859 19.0383 23.0736L23.132 18.9791C23.651 18.4601 23.6915 17.6403 23.2541 17.0738L24.7093 12.6673C24.8412 12.175 25.3322 11.9194 25.7769 12.0385ZM10.501 27.159H15.1335C15.4887 27.159 15.7045 27.4488 15.713 27.7385V30.0526H9.92209V27.7385C9.92209 27.4128 10.1753 27.159 10.501 27.159ZM16.8669 27.159H21.5011C21.8268 27.159 22.0806 27.4128 22.0806 27.7385V30.0526H16.2919V27.7385C16.2919 27.4133 16.542 27.1599 16.8669 27.159Z" fill="black"/>
</svg>
