<svg width="32" height="34" viewBox="0 0 32 34" fill="none" xmlns="http://www.w3.org/2000/svg">
<rect width="32" height="34" rx="4" fill="#F2F2F2"/>
<path d="M26.5182 23.8865L27 23.3001L24.0334 20.6319C24.671 19.7346 25.0461 18.6629 25.1132 17.5468C25.1803 16.4308 24.9365 15.3183 24.4114 14.3444C23.8862 13.3705 23.1023 12.5769 22.1547 12.0599C21.2071 11.5429 20.1365 11.3248 19.0727 11.4319V10.8166C19.0727 10.1841 18.9536 9.55776 18.7223 8.97338C18.491 8.389 18.1519 7.85802 17.7245 7.41075C17.297 6.96349 16.7896 6.6087 16.2311 6.36664C15.6726 6.12459 15.0741 6 14.4696 6C13.8651 6 13.2665 6.12459 12.7081 6.36664C12.1496 6.6087 11.6421 6.96349 11.2147 7.41075C10.7873 7.85802 10.4482 8.389 10.2169 8.97338C9.98556 9.55776 9.8665 10.1841 9.8665 10.8166V13.4264C9.86565 14.2768 10.0807 15.1121 10.4898 15.8469C10.8988 16.5817 11.487 17.1896 12.1943 17.6084V17.9915C12.1943 18.7782 11.6921 19.487 10.8836 19.8412C10.8745 19.8453 10.8655 19.8496 10.8568 19.8544L8.5789 21.0858C5.85959 22.2847 4.4413 25.0745 5.20585 27.7251C5.22878 27.8046 5.27556 27.8742 5.33927 27.9238C5.40298 27.9733 5.48023 28 5.55959 28H23.78C23.8594 28 23.9366 27.9733 24.0003 27.9238C24.064 27.8742 24.1108 27.8046 24.1338 27.7251C24.7213 25.688 24.0189 23.5694 22.4283 22.1533C22.8412 21.8956 23.22 21.5822 23.5549 21.2213L26.5182 23.8865ZM23.095 24.2016C23.5772 25.1249 23.7199 26.2009 23.4962 27.2267H5.84344C5.61971 26.2009 5.76241 25.1249 6.24464 24.2016C6.78165 23.1572 7.7169 22.3018 8.87822 21.793C8.88731 21.789 8.89631 21.7846 8.90508 21.7799L11.1832 20.5483C12.2469 20.0762 12.9333 19.0741 12.9333 17.9915V17.3777C12.9333 17.3064 12.9144 17.2364 12.8788 17.1756C12.8431 17.1147 12.7921 17.0654 12.7313 17.0331C12.0921 16.6974 11.5548 16.1823 11.1794 15.5453C10.804 14.9084 10.6053 14.1747 10.6055 13.4264V10.8166C10.6055 10.2856 10.7055 9.75986 10.8996 9.2693C11.0938 8.77875 11.3785 8.33301 11.7373 7.95756C12.0961 7.5821 12.5221 7.28427 12.9909 7.08107C13.4597 6.87788 13.9622 6.77329 14.4696 6.77329C14.977 6.77329 15.4795 6.87788 15.9483 7.08107C16.4171 7.28427 16.8431 7.5821 17.2019 7.95756C17.5607 8.33301 17.8454 8.77875 18.0395 9.2693C18.2337 9.75986 18.3337 10.2856 18.3337 10.8166V11.5596C18.2394 11.5829 18.1452 11.6088 18.0511 11.6375C16.6446 12.0674 15.4589 13.0643 14.7549 14.4089C14.0509 15.7536 13.8862 17.3358 14.297 18.8075C14.7079 20.2792 15.6606 21.5198 16.9456 22.2565C18.2306 22.9932 19.7427 23.1655 21.1492 22.7356C21.3361 22.6785 21.5201 22.611 21.7003 22.5337C22.2751 22.9774 22.751 23.5465 23.095 24.2016ZM20.942 21.9934C20.0334 22.2712 19.0665 22.2608 18.1635 21.9636C17.2605 21.6663 16.4621 21.0956 15.8691 20.3235C15.2761 19.5514 14.9153 18.6126 14.8322 17.6259C14.7491 16.6393 14.9476 15.649 15.4024 14.7803C15.8572 13.9116 16.548 13.2035 17.3873 12.7456C18.2267 12.2878 19.177 12.1006 20.1181 12.2079C21.0591 12.3152 21.9486 12.7121 22.6741 13.3483C23.3995 13.9846 23.9284 14.8317 24.1938 15.7825C24.5481 17.0573 24.4047 18.4271 23.7951 19.5915C23.1855 20.7558 22.1595 21.6196 20.942 21.9934Z" fill="black"/>
<path d="M22.1275 14.3989C21.6391 14.2398 21.1103 14.2901 20.6574 14.5389C20.2046 14.7877 19.8647 15.2146 19.7125 15.7256L19.6001 16.1034L19.4876 15.7256C19.3355 15.2145 18.9956 14.7877 18.5427 14.5389C18.3184 14.4157 18.0732 14.3399 17.821 14.3159C17.5687 14.2919 17.3144 14.3201 17.0726 14.3989C16.8308 14.4777 16.6062 14.6056 16.4116 14.7753C16.217 14.9449 16.0563 15.153 15.9386 15.3877C15.7008 15.8616 15.6527 16.4149 15.8048 16.9259L16.3133 18.6339C16.4669 19.15 16.8102 19.5811 17.2676 19.8324C17.725 20.0837 18.259 20.1345 18.7522 19.9737L19.333 19.7844C19.5069 19.7275 19.6932 19.7275 19.867 19.7844L20.4479 19.9737C20.6921 20.0534 20.9489 20.0818 21.2037 20.0576C21.4584 20.0333 21.7061 19.9568 21.9326 19.8324C22.159 19.708 22.3599 19.5381 22.5236 19.3325C22.6873 19.1268 22.8108 18.8895 22.8868 18.6339L23.3953 16.9259C23.5468 16.4149 23.4984 15.8619 23.2607 15.3881C23.0231 14.9144 22.6155 14.5586 22.1275 14.3989ZM22.6897 16.6959L22.1813 18.404C22.1341 18.5625 22.0575 18.7099 21.9559 18.8375C21.8542 18.9651 21.7296 19.0705 21.5891 19.1477C21.4485 19.2249 21.2948 19.2724 21.1367 19.2875C20.9786 19.3025 20.8193 19.2848 20.6677 19.2354L20.0869 19.0461C19.7699 18.9423 19.4302 18.9423 19.1132 19.0461L18.5325 19.2354C18.3809 19.2848 18.2215 19.3025 18.0635 19.2875C17.9054 19.2724 17.7517 19.2249 17.6111 19.1477C17.4705 19.0705 17.3459 18.9651 17.2443 18.8375C17.1427 18.7099 17.0661 18.5625 17.0189 18.404L16.5104 16.6959C16.4166 16.3807 16.4463 16.0394 16.5929 15.7471C16.7396 15.4548 16.9912 15.2354 17.2924 15.1372C17.5937 15.0391 17.9198 15.0701 18.1992 15.2236C18.4785 15.377 18.6882 15.6403 18.782 15.9555L19.0695 16.9213C19.1044 17.0399 19.1748 17.1437 19.2703 17.2173C19.3658 17.2908 19.4814 17.3303 19.6 17.3299H19.6001C19.7187 17.3303 19.8343 17.2909 19.9298 17.2173C20.0253 17.1437 20.0957 17.04 20.1306 16.9214L20.4182 15.9555C20.512 15.6403 20.7216 15.377 21.001 15.2236C21.2803 15.0701 21.6065 15.0391 21.9077 15.1372C22.2089 15.2354 22.4606 15.4548 22.6072 15.7471C22.7539 16.0394 22.7835 16.3807 22.6897 16.6959Z" fill="black"/>
<path d="M21.8134 17.2334C21.7482 17.2334 21.6844 17.2536 21.6302 17.2916C21.576 17.3295 21.5337 17.3834 21.5087 17.4464C21.4838 17.5095 21.4773 17.5788 21.49 17.6458C21.5027 17.7127 21.5341 17.7742 21.5802 17.8225C21.6264 17.8707 21.6851 17.9036 21.7491 17.9169C21.813 17.9302 21.8793 17.9234 21.9396 17.8973C21.9999 17.8711 22.0514 17.8269 22.0876 17.7702C22.1238 17.7134 22.1432 17.6467 22.1432 17.5785C22.1432 17.5331 22.1346 17.4883 22.1181 17.4464C22.1015 17.4045 22.0772 17.3665 22.0466 17.3345C22.016 17.3024 21.9796 17.277 21.9396 17.2597C21.8996 17.2423 21.8567 17.2334 21.8134 17.2334Z" fill="black"/>
<path d="M21.8134 15.9375C21.7482 15.9375 21.6844 15.9577 21.6302 15.9957C21.576 16.0336 21.5337 16.0875 21.5087 16.1505C21.4838 16.2136 21.4773 16.2829 21.49 16.3499C21.5027 16.4168 21.5341 16.4783 21.5802 16.5266C21.6264 16.5748 21.6851 16.6077 21.7491 16.621C21.813 16.6343 21.8793 16.6275 21.9396 16.6014C21.9999 16.5752 22.0514 16.531 22.0876 16.4743C22.1238 16.4175 22.1432 16.3508 22.1432 16.2826C22.1432 16.2372 22.1346 16.1924 22.1181 16.1505C22.1015 16.1086 22.0772 16.0706 22.0466 16.0386C22.016 16.0065 21.9796 15.9811 21.9396 15.9638C21.8996 15.9464 21.8567 15.9375 21.8134 15.9375Z" fill="black"/>
<path d="M20.7826 17.8818C20.7174 17.8818 20.6537 17.9021 20.5994 17.94C20.5452 17.9779 20.5029 18.0318 20.478 18.0949C20.453 18.1579 20.4465 18.2273 20.4592 18.2942C20.4719 18.3612 20.5034 18.4226 20.5495 18.4709C20.5956 18.5192 20.6544 18.552 20.7183 18.5653C20.7823 18.5786 20.8486 18.5718 20.9088 18.5457C20.9691 18.5196 21.0206 18.4753 21.0568 18.4186C21.0931 18.3619 21.1124 18.2951 21.1124 18.2269C21.1124 18.1816 21.1039 18.1367 21.0873 18.0948C21.0707 18.053 21.0464 18.0149 21.0158 17.9829C20.9852 17.9509 20.9488 17.9254 20.9088 17.9081C20.8688 17.8908 20.8259 17.8818 20.7826 17.8818Z" fill="black"/>
<path d="M20.7826 16.5859C20.7174 16.5859 20.6537 16.6062 20.5994 16.6441C20.5452 16.682 20.5029 16.7359 20.478 16.799C20.453 16.862 20.4465 16.9314 20.4592 16.9983C20.4719 17.0653 20.5034 17.1267 20.5495 17.175C20.5956 17.2233 20.6543 17.2561 20.7183 17.2694C20.7823 17.2827 20.8486 17.2759 20.9088 17.2498C20.9691 17.2237 21.0206 17.1795 21.0568 17.1227C21.0931 17.066 21.1124 16.9993 21.1124 16.931C21.1124 16.8857 21.1039 16.8408 21.0873 16.799C21.0707 16.7571 21.0464 16.719 21.0158 16.687C20.9852 16.655 20.9488 16.6295 20.9088 16.6122C20.8688 16.5949 20.8259 16.5859 20.7826 16.5859Z" fill="black"/>
<path d="M17.3967 17.217C17.3315 17.2149 17.2672 17.2331 17.2119 17.2693C17.1566 17.3055 17.1128 17.3581 17.086 17.4203C17.0593 17.4826 17.0508 17.5517 17.0616 17.619C17.0724 17.6863 17.102 17.7488 17.1467 17.7984C17.1914 17.8481 17.2492 17.8828 17.3128 17.8981C17.3763 17.9134 17.4428 17.9087 17.5038 17.8845C17.5648 17.8603 17.6175 17.8177 17.6553 17.7621C17.6932 17.7065 17.7144 17.6404 17.7164 17.5722C17.7177 17.5269 17.7104 17.4818 17.6951 17.4394C17.6797 17.3971 17.6565 17.3583 17.6268 17.3253C17.5971 17.2923 17.5615 17.2658 17.522 17.2472C17.4825 17.2286 17.4399 17.2183 17.3967 17.217Z" fill="black"/>
<path d="M17.4338 15.923C17.3686 15.921 17.3043 15.9392 17.249 15.9754C17.1937 16.0116 17.1499 16.0641 17.1231 16.1264C17.0964 16.1886 17.0879 16.2577 17.0987 16.3251C17.1095 16.3924 17.1391 16.4548 17.1838 16.5045C17.2285 16.5542 17.2863 16.5889 17.3499 16.6042C17.4134 16.6195 17.4799 16.6148 17.5409 16.5905C17.6019 16.5663 17.6546 16.5237 17.6925 16.4681C17.7303 16.4126 17.7516 16.3465 17.7535 16.2783C17.7561 16.1868 17.7239 16.098 17.664 16.0314C17.604 15.9647 17.5212 15.9258 17.4338 15.923Z" fill="black"/>
<path d="M18.4084 17.8966C18.3432 17.8946 18.2789 17.9128 18.2236 17.949C18.1683 17.9852 18.1245 18.0378 18.0977 18.1C18.071 18.1622 18.0625 18.2314 18.0733 18.2987C18.0841 18.366 18.1137 18.4284 18.1584 18.4781C18.2031 18.5278 18.2609 18.5625 18.3245 18.5778C18.3881 18.5931 18.4545 18.5884 18.5155 18.5642C18.5765 18.5399 18.6292 18.4973 18.6671 18.4418C18.7049 18.3862 18.7262 18.3201 18.7281 18.2519C18.7307 18.1604 18.6985 18.0716 18.6386 18.005C18.5786 17.9384 18.4958 17.8994 18.4084 17.8966Z" fill="black"/>
<path d="M18.7393 17.081C18.8103 16.9055 18.7319 16.703 18.5641 16.6288C18.3964 16.5545 18.2029 16.6366 18.1319 16.8121C18.0609 16.9876 18.1394 17.1901 18.3071 17.2643C18.4749 17.3386 18.6684 17.2565 18.7393 17.081Z" fill="black"/>
</svg>
