<svg width="32" height="34" viewBox="0 0 32 34" fill="none" xmlns="http://www.w3.org/2000/svg">
<rect width="32" height="34" rx="4" fill="#F2F2F2"/>
<path fill-rule="evenodd" clip-rule="evenodd" d="M15.1727 3C11.3993 3.00045 7.80097 4.62689 5.53 8.48912C3.0087 12.7767 3.61354 18.1661 7.27055 21.7437C9.03185 23.4667 8.54202 25.2023 8.1857 27.4512C8.0549 28.2761 8.47888 28.959 9.53069 29.6252C11.6501 30.9675 15.4754 31.8939 18.1902 31.5493C19.1139 31.432 19.6605 30.9724 19.8306 29.8877C20.0286 28.6239 20.1716 27.8224 21.715 27.849C23.1461 27.8738 24.4803 28.0443 24.6882 26.0917C24.7365 25.6398 24.7049 25.4594 25.0766 24.9763C25.7229 24.1369 25.8803 23.7026 25.3364 23.1591C25.6223 23.1591 26.4401 22.7482 26.086 22.1398L25.4361 21.0216C25.2448 20.6933 25.5718 20.5589 25.7392 20.4835L27.5496 19.6663C27.9831 19.4705 28.15 18.8733 27.8428 18.4972C26.9881 17.4503 26.1252 16.5979 25.6183 15.4387C25.0171 14.063 25.8231 13.7726 25.8271 12.272C25.8334 9.9365 24.4677 8.03989 23.2391 6.6516C21.4241 4.60028 18.3444 2.99955 15.1727 3ZM14.9233 4.74236C17.0066 4.74236 19.348 5.75042 20.3439 7.59923C20.4972 7.88428 20.541 8.26496 20.8995 8.45439C23.0474 9.5892 23.8529 12.0767 23.2201 14.0987C22.567 16.035 20.1328 17.1743 17.9398 16.2492C16.5836 16.9668 15.0554 17.4183 13.3582 17.1653C12.0515 16.9704 11.0196 16.0891 10.2686 14.994C8.59975 14.9123 7.21778 13.9994 6.69277 12.1538C6.21332 10.4683 7.02879 8.86393 8.30748 7.82925C9.11394 7.17705 10.1554 6.8284 11.2568 6.65656C11.6001 5.25744 13.2743 4.74236 14.9233 4.74236ZM14.4371 5.58038C13.4543 5.58625 12.6704 5.83296 12.2365 6.60739C14.0988 6.40804 15.7577 7.40528 17.4956 8.45484C18.2298 8.17294 18.8243 8.13686 19.7138 8.41876C19.3038 6.67956 16.7441 5.69404 14.8696 5.59166C14.7217 5.58354 14.5773 5.57948 14.4371 5.58038ZM12.531 7.4134C12.3154 7.41295 12.1003 7.42738 11.8869 7.4594C11.6939 8.07011 11.6271 8.74125 11.8396 9.7394C12.7344 9.51794 14.2368 9.72632 15.1001 10.623C15.4591 9.86614 16.0328 9.3303 16.6918 8.90768C15.5759 8.15806 14.0406 7.41655 12.531 7.4134ZM11.0245 7.50586C10.2045 7.68898 9.44094 8.00786 8.84331 8.49183C7.76173 9.36684 7.19071 10.5896 7.52178 11.9513C7.75992 12.8525 8.85955 13.9841 9.94159 14.1185C8.71342 12.7126 9.21407 10.7168 11.0579 9.82735C10.8924 8.94467 10.873 8.17024 11.0245 7.50586ZM19.0999 9.07321C18.8293 9.0651 18.5627 9.08765 18.2993 9.1341C19.4747 9.9807 19.8477 11.5282 19.1053 12.7072C18.8572 13.101 18.4076 13.3274 17.9434 13.3626C16.9155 13.4212 15.9047 12.4591 15.2097 11.7452C14.9129 12.4204 14.4348 12.9427 13.9414 13.4632C14.9111 14.3039 16.3021 15.2605 17.7337 15.3904C20.0556 14.0608 20.7471 12.1529 19.9271 9.20086C19.6456 9.12148 19.3705 9.08133 19.0999 9.07321ZM17.2872 9.38398C16.6133 9.75248 16.045 10.3041 15.7225 11.0921C16.3968 11.8011 17.4365 12.8858 18.4224 12.1939C19.1355 11.3036 18.1437 9.90989 17.2872 9.38398ZM20.8625 9.5901C21.4814 11.8024 21.0583 14.372 18.9217 15.5663C20.3614 15.8537 21.6519 15.6642 22.4078 13.8425C22.8737 12.3545 22.2779 10.5445 20.8625 9.5901ZM12.2577 10.4182C12.1395 10.4245 12.0213 10.4372 11.9036 10.457C12.061 11.2517 12.7317 12.2215 13.4443 12.7834C13.8706 12.309 14.3203 11.8687 14.5701 11.2454C13.9071 10.6631 13.0844 10.3745 12.2577 10.4182ZM11.204 10.6194C9.81936 11.1579 9.76523 13.1655 10.8712 14.238C11.495 14.2286 12.4552 14.068 12.922 13.4961C12.2026 12.7379 11.4453 11.7591 11.204 10.6194ZM13.4213 14.1686C12.8864 14.7301 12.2423 14.9042 11.4665 15.0982C12.052 15.6832 12.7231 16.2095 13.4813 16.3227C14.53 16.4792 15.5205 16.3047 16.4446 16.0305C15.4014 15.5799 14.3329 14.9543 13.4213 14.1686Z" fill="black"/>
</svg>
