<svg width="211" height="209" viewBox="0 0 211 209" fill="none" xmlns="http://www.w3.org/2000/svg">
<path d="M206.714 104.462C206.714 160.03 161.481 205.103 105.649 205.103C49.8178 205.103 4.584 160.03 4.584 104.462C4.584 48.8947 49.8178 3.82179 105.649 3.82179C161.481 3.82179 206.714 48.8947 206.714 104.462Z" fill="#313B72" stroke="white" stroke-width="7.64358"/>
<path d="M163.932 139.118C161.715 132.637 147.243 127.905 140.658 124.967C137.433 123.53 133.78 122.66 131.855 121.195C129.907 119.71 129.617 116.528 127.135 114.275C126.152 113.38 123.275 114.478 123.048 112.7C122.7 109.998 125.58 108.31 126.505 105.783C127.453 103.202 126.845 103.548 127.535 100.403C132.905 98.87 135.31 86.2825 131.85 85.9675C133.035 79.5025 134.177 70.6875 132.5 64.7675C130.5 56.38 120.403 50 108.233 50C96.0625 50 85.0575 56.9625 83.74 65.9075C82.49 71.775 83.5625 79.9 84.6775 85.965C81.215 86.28 83.71 98.8975 89.08 100.432C89.77 103.572 89.08 103.2 90.025 105.78C90.95 108.307 93.8275 109.997 93.48 112.697C93.2525 114.475 90.3775 113.377 89.395 114.272C86.9125 116.525 86.625 119.707 84.6775 121.192C82.75 122.657 80.2275 124.56 77 126C73.9133 127.377 70.1018 129.355 65.6054 131.843C62.001 133.837 59.3911 137.233 58.3073 141.207C57.457 144.324 57.6004 147.63 58.7177 150.662L60.5 155.5L73.4125 157.442C82.6375 158.677 94.1725 159.412 106.693 159.412C136.955 159.412 164.63 155.128 164.63 149.842C164.63 149.835 164.628 149.82 164.628 149.82V149.815C164.46 145.753 165.19 142.793 163.932 139.118Z" fill="#F2F2F2"/>
<path d="M76.1725 96.5531L70.6756 87.5781C69.2631 85.2719 66.8069 84 64.2881 84C62.9569 84 61.61 84.3562 60.3912 85.1031C56.8662 87.2594 55.76 91.8687 57.9162 95.3906L63.41 104.366L68.9006 113.337C70.3131 115.644 72.7725 116.916 75.2881 116.916C76.6225 116.916 77.9694 116.559 79.1881 115.812C82.7131 113.656 83.8225 109.05 81.6662 105.522L76.1725 96.5469V96.5531ZM65.0037 103.394L59.51 94.4187C57.8944 91.7812 58.7256 88.3156 61.3662 86.7C62.2787 86.1406 63.2881 85.875 64.2881 85.875C66.1787 85.875 68.0256 86.8312 69.085 88.5594L74.5787 97.5312L65.0069 103.394H65.0037Z" fill="#F2F2F2"/>
<path d="M53.6069 104C51.6601 104 49.7132 104.744 48.2288 106.228C45.5851 108.875 45.2944 112.975 47.3507 115.944L57.9413 105.353C56.6413 104.453 55.1226 104 53.6038 104H53.6069Z" fill="#F2F2F2"/>
<path d="M49.3881 117.951C50.6631 118.804 52.1381 119.232 53.6162 119.232C55.5631 119.232 57.5131 118.488 59.0006 117.004C61.6131 114.392 61.9287 110.351 59.9506 107.392L49.3881 117.954V117.951Z" fill="#F2F2F2"/>
</svg>
