<svg width="211" height="209" viewBox="0 0 211 209" fill="none" xmlns="http://www.w3.org/2000/svg">
<path d="M206.668 104.54C206.668 160.108 161.435 205.181 105.603 205.181C49.7719 205.181 4.5381 160.108 4.5381 104.54C4.5381 48.9728 49.7719 3.89992 105.603 3.89992C161.435 3.89992 206.668 48.9728 206.668 104.54Z" fill="#313B72" stroke="white" stroke-width="7.64358"/>
<path d="M72.2152 73.298C72.2269 73.536 72.246 73.7754 72.268 74.0193C72.2738 74.0844 72.2768 74.1494 72.2841 74.2159C72.3427 74.8516 72.4292 75.5005 72.545 76.1627C72.6535 76.7644 72.7825 77.3542 72.9246 77.9203C72.9774 78.1243 73.0404 78.3091 73.0961 78.5057C73.1943 78.8501 73.2896 79.2004 73.401 79.5286C73.4875 79.7829 73.5842 80.0135 73.6766 80.2559C73.7704 80.5027 73.8613 80.7585 73.9624 80.992C74.065 81.2285 74.1779 81.4399 74.2849 81.6616C74.3889 81.873 74.4886 82.0888 74.5971 82.284C74.707 82.485 74.8243 82.655 74.9371 82.8383C75.0529 83.0216 75.1687 83.2123 75.2889 83.3764C75.4018 83.5301 75.5161 83.6587 75.6304 83.7947C75.7594 83.9499 75.8884 84.1066 76.0203 84.2367C76.1303 84.3446 76.2402 84.4303 76.3516 84.522C76.4938 84.6358 76.633 84.7496 76.7752 84.8368C76.8807 84.8989 76.9863 84.9403 77.0918 84.9905C77.1871 85.0334 77.2838 85.1029 77.3776 85.1325C79.9046 92.0268 83.9062 98.7452 88.8473 103.713C91.7876 106.679 95.0695 109.02 98.5756 110.429C100.9 111.36 103.332 111.873 105.821 111.873C105.865 111.873 105.909 111.867 105.953 111.867C105.998 111.867 106.042 111.873 106.086 111.873C108.575 111.873 111.007 111.36 113.332 110.429C116.838 109.02 120.12 106.679 123.06 103.713C128.001 98.7452 132.004 92.0268 134.529 85.1325C134.623 85.1029 134.72 85.0349 134.815 84.9905C134.921 84.9418 135.026 84.8989 135.132 84.8368C135.276 84.7496 135.415 84.6358 135.556 84.522C135.667 84.4288 135.777 84.3446 135.888 84.2367C136.02 84.1066 136.149 83.9514 136.28 83.7947C136.392 83.6587 136.507 83.5286 136.618 83.3764C136.738 83.2123 136.854 83.0216 136.969 82.8383C137.083 82.655 137.199 82.485 137.31 82.284C137.417 82.0888 137.518 81.873 137.622 81.6616C137.731 81.4399 137.841 81.2285 137.945 80.992C138.046 80.7585 138.137 80.5027 138.229 80.2574C138.323 80.0135 138.42 79.7829 138.506 79.5286C138.615 79.199 138.713 78.8501 138.81 78.5042C138.865 78.3076 138.93 78.1228 138.98 77.9188C139.125 77.3512 139.254 76.7629 139.362 76.1613C139.476 75.499 139.564 74.8486 139.623 74.2145C139.629 74.1479 139.632 74.0829 139.638 74.0179C139.661 73.774 139.677 73.5345 139.69 73.2965C139.695 73.1916 139.698 73.0881 139.701 72.9817C139.71 72.788 139.717 72.5929 139.718 72.4037C139.72 72.2884 139.717 72.1731 139.715 72.0593C139.714 71.8848 139.712 71.7148 139.707 71.5463C139.702 71.4251 139.695 71.3098 139.688 71.1901C139.679 71.0363 139.668 70.8811 139.657 70.7289C139.645 70.6062 139.633 70.4865 139.62 70.3652C139.605 70.2322 139.589 70.0962 139.573 69.9646C139.554 69.8375 139.535 69.7163 139.515 69.5951C139.494 69.4768 139.475 69.363 139.453 69.2522C139.428 69.1236 139.4 69.0009 139.371 68.8782C139.347 68.7836 139.325 68.6875 139.301 68.5973C139.267 68.4672 139.23 68.3401 139.191 68.2174C139.167 68.1465 139.145 68.074 139.119 68.006C139.073 67.8715 139.026 67.7444 138.974 67.6217C138.952 67.5744 138.933 67.5256 138.909 67.4783C138.851 67.3468 138.789 67.2182 138.723 67.1014C138.707 67.0718 138.692 67.0467 138.676 67.0201C138.6 66.89 138.524 66.7688 138.442 66.6579C138.434 66.649 138.427 66.6402 138.421 66.6298C138.138 66.2558 137.814 65.9898 137.452 65.8538C137.527 64.6077 137.572 63.3438 137.567 62.0592C137.521 43.5448 126.754 31.3171 109.786 30.1745C108.474 30.0843 107.203 30.068 105.951 30.0843C104.7 30.0666 103.429 30.0843 102.117 30.1745C85.1492 31.3171 74.3831 43.5448 74.3362 62.0592C74.3303 63.3438 74.3757 64.6091 74.4505 65.8538C74.0885 65.9912 73.766 66.2558 73.4831 66.6283C73.4758 66.6402 73.4684 66.649 73.4611 66.6579C73.3776 66.7688 73.3013 66.89 73.2266 67.0186C73.2105 67.0467 73.1943 67.0718 73.1797 67.1014C73.1137 67.2182 73.0522 67.3468 72.9935 67.4783C72.9715 67.5241 72.951 67.5729 72.9305 67.6217C72.8792 67.7444 72.8308 67.8715 72.7839 68.006C72.759 68.074 72.737 68.1465 72.715 68.2174C72.6755 68.3401 72.6388 68.4672 72.6036 68.5973C72.5787 68.689 72.5553 68.7836 72.5333 68.8782C72.5054 69.0009 72.4776 69.1236 72.4527 69.2522C72.4307 69.363 72.4101 69.4768 72.3911 69.5951C72.372 69.7163 72.3515 69.8375 72.3325 69.9646C72.3149 70.0977 72.3002 70.2337 72.2856 70.3652C72.2709 70.4865 72.2577 70.6062 72.2489 70.7289C72.2357 70.8811 72.2269 71.0349 72.2181 71.1901C72.2123 71.3098 72.2035 71.4236 72.1991 71.5463C72.1932 71.7163 72.1917 71.8893 72.1903 72.0652C72.1888 72.176 72.1859 72.2884 72.1874 72.4022C72.1888 72.5944 72.1961 72.7924 72.2049 72.9876C72.2093 73.094 72.2108 73.193 72.2152 73.298Z" fill="white"/>
<path d="M167.439 138.893C164.902 130.074 161.585 124.361 158.237 120.602C152.343 113.934 146.404 113.41 144.607 112.989C139.1 111.691 132.435 112.24 128.876 111.122C128.454 114.648 118.308 126.219 111.661 133.489L108.778 122.275C110.943 120.982 111.417 118.141 111.417 115.778H100.484C100.484 118.12 100.958 120.937 103.079 122.24L100.244 133.477C93.5908 126.219 83.4418 114.645 83.027 111.122C79.4637 112.24 72.8003 111.691 67.2919 112.986C65.448 113.421 59.1554 113.987 53.0652 121.307C49.9313 125.07 46.8518 130.599 44.464 138.887C43.8117 141.156 43.8029 143.54 44.3365 145.776C44.5901 146.818 44.9096 147.823 45.3992 148.754C51.1523 159.733 81.4263 163.119 105.916 163.119C105.93 163.119 105.943 163.119 105.953 163.119C105.959 163.119 105.981 163.119 105.99 163.119C130.474 163.119 160.749 159.746 166.504 148.754C166.955 147.895 167.262 146.995 167.511 146.062C168.106 143.755 168.121 141.261 167.439 138.893Z" fill="white"/>
</svg>
