<svg width="436" height="168" viewBox="0 0 436 168" fill="none" xmlns="http://www.w3.org/2000/svg">
<path d="M0.5 8C0.5 3.85786 3.85786 0.5 8 0.5H428C432.142 0.5 435.5 3.85786 435.5 8V28C435.5 32.1421 432.142 35.5 428 35.5H8C3.85787 35.5 0.5 32.1421 0.5 28V8Z" fill="#F8F8F8" fill-opacity="0.05" stroke="#67D7D1"/>
<path d="M0 8C0 3.58172 3.58172 0 8 0H36C40.4183 0 44 3.58172 44 8V28C44 32.4183 40.4183 36 36 36H8C3.58172 36 0 32.4183 0 28V8Z" fill="#67D7D1"/>
<path d="M60.036 23V13.2H63.046C64.7727 13.2 66.042 13.6387 66.854 14.516C67.6753 15.3933 68.086 16.5973 68.086 18.128C68.086 19.6307 67.6753 20.8207 66.854 21.698C66.042 22.566 64.7727 23 63.046 23H60.036ZM61.212 22.02H63.018C63.97 22.02 64.726 21.866 65.286 21.558C65.8553 21.2407 66.2613 20.7927 66.504 20.214C66.7467 19.626 66.868 18.9307 66.868 18.128C66.868 17.3067 66.7467 16.602 66.504 16.014C66.2613 15.426 65.8553 14.9733 65.286 14.656C64.726 14.3387 63.97 14.18 63.018 14.18H61.212V22.02ZM72.024 23.168C71.4454 23.168 70.9647 23.07 70.582 22.874C70.1994 22.678 69.9147 22.4167 69.728 22.09C69.5414 21.7633 69.448 21.4087 69.448 21.026C69.448 20.3167 69.7187 19.7707 70.26 19.388C70.8014 19.0053 71.5387 18.814 72.472 18.814H74.348V18.73C74.348 18.1233 74.1894 17.666 73.872 17.358C73.5547 17.0407 73.13 16.882 72.598 16.882C72.1407 16.882 71.744 16.9987 71.408 17.232C71.0814 17.456 70.876 17.7873 70.792 18.226H69.588C69.6347 17.722 69.8027 17.2973 70.092 16.952C70.3907 16.6067 70.7594 16.3453 71.198 16.168C71.6367 15.9813 72.1034 15.888 72.598 15.888C73.5687 15.888 74.2967 16.1493 74.782 16.672C75.2767 17.1853 75.524 17.8713 75.524 18.73V23H74.474L74.404 21.754C74.208 22.146 73.9187 22.482 73.536 22.762C73.1627 23.0327 72.6587 23.168 72.024 23.168ZM72.206 22.174C72.654 22.174 73.0367 22.0573 73.354 21.824C73.6807 21.5907 73.928 21.2873 74.096 20.914C74.264 20.5407 74.348 20.1487 74.348 19.738V19.724H72.57C71.8794 19.724 71.3894 19.8453 71.1 20.088C70.82 20.3213 70.68 20.6153 70.68 20.97C70.68 21.334 70.8107 21.628 71.072 21.852C71.3427 22.0667 71.7207 22.174 72.206 22.174ZM78.0023 14.516C77.7689 14.516 77.5729 14.4413 77.4143 14.292C77.2649 14.1333 77.1903 13.9373 77.1903 13.704C77.1903 13.48 77.2649 13.2933 77.4143 13.144C77.5729 12.9947 77.7689 12.92 78.0023 12.92C78.2263 12.92 78.4176 12.9947 78.5763 13.144C78.7349 13.2933 78.8143 13.48 78.8143 13.704C78.8143 13.9373 78.7349 14.1333 78.5763 14.292C78.4176 14.4413 78.2263 14.516 78.0023 14.516ZM77.4143 23V16.056H78.5903V23H77.4143ZM80.6379 23V12.92H81.8139V23H80.6379ZM84.4974 26.08L86.2194 22.328H85.8134L83.0554 16.056H84.3294L86.6254 21.46L89.0614 16.056H90.2794L85.7294 26.08H84.4974Z" fill="black"/>
<path d="M400.368 23.168C399.696 23.168 399.113 23.0467 398.618 22.804C398.123 22.5613 397.727 22.23 397.428 21.81C397.139 21.3807 396.961 20.8953 396.896 20.354H398.044C398.156 20.8953 398.417 21.334 398.828 21.67C399.239 21.9967 399.757 22.16 400.382 22.16C400.849 22.16 401.25 22.0527 401.586 21.838C401.922 21.614 402.179 21.3153 402.356 20.942C402.543 20.5687 402.636 20.1533 402.636 19.696C402.636 18.968 402.431 18.38 402.02 17.932C401.609 17.484 401.077 17.26 400.424 17.26C399.883 17.26 399.421 17.3813 399.038 17.624C398.655 17.8667 398.375 18.184 398.198 18.576H397.078L397.918 13.2H403.056V14.222H398.828L398.254 17.204C398.478 16.9333 398.786 16.7093 399.178 16.532C399.579 16.3547 400.037 16.266 400.55 16.266C401.194 16.266 401.754 16.4153 402.23 16.714C402.715 17.0127 403.093 17.4187 403.364 17.932C403.635 18.4453 403.77 19.0287 403.77 19.682C403.77 20.3073 403.635 20.886 403.364 21.418C403.103 21.95 402.715 22.3747 402.202 22.692C401.698 23.0093 401.087 23.168 400.368 23.168ZM407.372 17.75C406.952 17.75 406.57 17.6567 406.224 17.47C405.888 17.274 405.622 17.0033 405.426 16.658C405.23 16.3033 405.132 15.8833 405.132 15.398C405.132 14.9127 405.23 14.4973 405.426 14.152C405.632 13.7973 405.902 13.5267 406.238 13.34C406.584 13.144 406.966 13.046 407.386 13.046C407.806 13.046 408.184 13.144 408.52 13.34C408.856 13.5267 409.122 13.7973 409.318 14.152C409.514 14.4973 409.612 14.9127 409.612 15.398C409.612 15.8833 409.51 16.3033 409.304 16.658C409.108 17.0033 408.842 17.274 408.506 17.47C408.17 17.6567 407.792 17.75 407.372 17.75ZM406.504 23L412.202 13.2H413.378L407.68 23H406.504ZM407.372 16.84C407.699 16.84 407.984 16.7187 408.226 16.476C408.478 16.2333 408.604 15.874 408.604 15.398C408.604 14.9127 408.483 14.5487 408.24 14.306C407.998 14.054 407.713 13.928 407.386 13.928C407.06 13.928 406.766 14.054 406.504 14.306C406.252 14.5487 406.126 14.9127 406.126 15.398C406.126 15.874 406.252 16.2333 406.504 16.476C406.756 16.7187 407.046 16.84 407.372 16.84ZM412.608 23.168C412.188 23.168 411.806 23.0747 411.46 22.888C411.124 22.692 410.858 22.4213 410.662 22.076C410.466 21.7213 410.368 21.3013 410.368 20.816C410.368 20.3307 410.466 19.9153 410.662 19.57C410.868 19.2153 411.138 18.9447 411.474 18.758C411.81 18.562 412.188 18.464 412.608 18.464C413.028 18.464 413.406 18.562 413.742 18.758C414.078 18.9447 414.344 19.2153 414.54 19.57C414.736 19.9153 414.834 20.3307 414.834 20.816C414.834 21.3013 414.736 21.7213 414.54 22.076C414.344 22.4213 414.078 22.692 413.742 22.888C413.406 23.0747 413.028 23.168 412.608 23.168ZM412.594 22.258C412.93 22.258 413.22 22.1367 413.462 21.894C413.714 21.6513 413.84 21.292 413.84 20.816C413.84 20.3307 413.719 19.9667 413.476 19.724C413.234 19.4813 412.944 19.36 412.608 19.36C412.282 19.36 411.992 19.4813 411.74 19.724C411.488 19.9667 411.362 20.3307 411.362 20.816C411.362 21.292 411.484 21.6513 411.726 21.894C411.978 22.1367 412.268 22.258 412.594 22.258Z" fill="black"/>
<path d="M20.378 14.006V11.78H24.256V22H21.764V14.006H20.378ZM27.5317 22.112C27.1117 22.112 26.7663 21.9907 26.4957 21.748C26.2343 21.496 26.1037 21.188 26.1037 20.824C26.1037 20.4507 26.2343 20.138 26.4957 19.886C26.7663 19.634 27.1117 19.508 27.5317 19.508C27.9423 19.508 28.2783 19.634 28.5397 19.886C28.8103 20.138 28.9457 20.4507 28.9457 20.824C28.9457 21.188 28.8103 21.496 28.5397 21.748C28.2783 21.9907 27.9423 22.112 27.5317 22.112Z" fill="black"/>
<path d="M48.3271 13.3102C48.5384 13.109 48.8196 12.9978 49.1113 13C49.403 13.0022 49.6825 13.1177 49.8907 13.322C50.099 13.5264 50.2197 13.8036 50.2274 14.0953C50.2351 14.3869 50.1292 14.6701 49.9321 14.8852L43.9471 22.3702C43.8441 22.4811 43.7199 22.57 43.5819 22.6318C43.4438 22.6935 43.2947 22.7268 43.1434 22.7296C42.9922 22.7324 42.842 22.7046 42.7017 22.6481C42.5614 22.5915 42.434 22.5072 42.3271 22.4002L38.3581 18.4312C38.2475 18.3282 38.1589 18.204 38.0974 18.066C38.0359 17.928 38.0028 17.779 38.0002 17.628C37.9975 17.4769 38.0253 17.3269 38.0819 17.1868C38.1385 17.0467 38.2227 16.9195 38.3295 16.8126C38.4363 16.7058 38.5636 16.6216 38.7037 16.565C38.8437 16.5084 38.9938 16.4807 39.1448 16.4833C39.2959 16.486 39.4449 16.519 39.5829 16.5805C39.7209 16.642 39.8451 16.7307 39.9481 16.8412L43.0891 19.9807L48.2986 13.3432C48.3079 13.3317 48.318 13.3206 48.3286 13.3102H48.3271Z" fill="black"/>
<path d="M0.5 52C0.5 47.8579 3.85786 44.5 8 44.5H428C432.142 44.5 435.5 47.8579 435.5 52V72C435.5 76.1421 432.142 79.5 428 79.5H8C3.85787 79.5 0.5 76.1421 0.5 72V52Z" fill="#F8F8F8" fill-opacity="0.05" stroke="#67D7D1"/>
<path d="M0 52C0 47.5817 3.58172 44 8 44H36C40.4183 44 44 47.5817 44 52V72C44 76.4183 40.4183 80 36 80H8C3.58172 80 0 76.4183 0 72V52Z" fill="#462255" fill-opacity="0.1"/>
<path d="M62.052 67.014L59.364 57.2H60.624L62.738 65.614L65.146 57.2H66.448L68.786 65.614L70.928 57.2H72.188L69.444 67H68.1L65.762 58.908L63.368 67L62.052 67.014ZM75.9122 67.168C75.2496 67.168 74.6616 67.0187 74.1482 66.72C73.6349 66.412 73.2289 65.9873 72.9302 65.446C72.6409 64.9047 72.4962 64.2653 72.4962 63.528C72.4962 62.8 72.6409 62.1653 72.9302 61.624C73.2196 61.0733 73.6209 60.6487 74.1342 60.35C74.6569 60.042 75.2589 59.888 75.9402 59.888C76.6122 59.888 77.1909 60.042 77.6762 60.35C78.1709 60.6487 78.5489 61.0453 78.8102 61.54C79.0716 62.0347 79.2022 62.5667 79.2022 63.136C79.2022 63.2387 79.1976 63.3413 79.1882 63.444C79.1882 63.5467 79.1882 63.6633 79.1882 63.794H73.6582C73.6862 64.326 73.8076 64.7693 74.0222 65.124C74.2462 65.4693 74.5216 65.7307 74.8482 65.908C75.1842 66.0853 75.5389 66.174 75.9122 66.174C76.3976 66.174 76.8036 66.062 77.1302 65.838C77.4569 65.614 77.6949 65.3107 77.8442 64.928H79.0062C78.8196 65.572 78.4602 66.1087 77.9282 66.538C77.4056 66.958 76.7336 67.168 75.9122 67.168ZM75.9122 60.882C75.3522 60.882 74.8529 61.0547 74.4142 61.4C73.9849 61.736 73.7376 62.2307 73.6722 62.884H78.0402C78.0122 62.2587 77.7976 61.7687 77.3962 61.414C76.9949 61.0593 76.5002 60.882 75.9122 60.882ZM83.8829 67.168C83.2203 67.168 82.6323 67.0187 82.1189 66.72C81.6056 66.412 81.1996 65.9873 80.9009 65.446C80.6116 64.9047 80.4669 64.2653 80.4669 63.528C80.4669 62.8 80.6116 62.1653 80.9009 61.624C81.1903 61.0733 81.5916 60.6487 82.1049 60.35C82.6276 60.042 83.2296 59.888 83.9109 59.888C84.5829 59.888 85.1616 60.042 85.6469 60.35C86.1416 60.6487 86.5196 61.0453 86.7809 61.54C87.0423 62.0347 87.1729 62.5667 87.1729 63.136C87.1729 63.2387 87.1683 63.3413 87.1589 63.444C87.1589 63.5467 87.1589 63.6633 87.1589 63.794H81.6289C81.6569 64.326 81.7783 64.7693 81.9929 65.124C82.2169 65.4693 82.4923 65.7307 82.8189 65.908C83.1549 66.0853 83.5096 66.174 83.8829 66.174C84.3683 66.174 84.7743 66.062 85.1009 65.838C85.4276 65.614 85.6656 65.3107 85.8149 64.928H86.9769C86.7903 65.572 86.4309 66.1087 85.8989 66.538C85.3763 66.958 84.7043 67.168 83.8829 67.168ZM83.8829 60.882C83.3229 60.882 82.8236 61.0547 82.3849 61.4C81.9556 61.736 81.7083 62.2307 81.6429 62.884H86.0109C85.9829 62.2587 85.7683 61.7687 85.3669 61.414C84.9656 61.0593 84.4709 60.882 83.8829 60.882ZM88.7316 67V56.92H89.9076V62.982L92.7496 60.056H94.1916L91.1116 63.192L94.5836 67H93.0856L89.9076 63.402V67H88.7316ZM95.7863 67V56.92H96.9623V67H95.7863ZM99.6458 70.08L101.368 66.328H100.962L98.2038 60.056H99.4778L101.774 65.46L104.21 60.056H105.428L100.878 70.08H99.6458Z" fill="black"/>
<path d="M400.368 67.168C399.696 67.168 399.113 67.0467 398.618 66.804C398.123 66.5613 397.727 66.23 397.428 65.81C397.139 65.3807 396.961 64.8953 396.896 64.354H398.044C398.156 64.8953 398.417 65.334 398.828 65.67C399.239 65.9967 399.757 66.16 400.382 66.16C400.849 66.16 401.25 66.0527 401.586 65.838C401.922 65.614 402.179 65.3153 402.356 64.942C402.543 64.5687 402.636 64.1533 402.636 63.696C402.636 62.968 402.431 62.38 402.02 61.932C401.609 61.484 401.077 61.26 400.424 61.26C399.883 61.26 399.421 61.3813 399.038 61.624C398.655 61.8667 398.375 62.184 398.198 62.576H397.078L397.918 57.2H403.056V58.222H398.828L398.254 61.204C398.478 60.9333 398.786 60.7093 399.178 60.532C399.579 60.3547 400.037 60.266 400.55 60.266C401.194 60.266 401.754 60.4153 402.23 60.714C402.715 61.0127 403.093 61.4187 403.364 61.932C403.635 62.4453 403.77 63.0287 403.77 63.682C403.77 64.3073 403.635 64.886 403.364 65.418C403.103 65.95 402.715 66.3747 402.202 66.692C401.698 67.0093 401.087 67.168 400.368 67.168ZM407.372 61.75C406.952 61.75 406.57 61.6567 406.224 61.47C405.888 61.274 405.622 61.0033 405.426 60.658C405.23 60.3033 405.132 59.8833 405.132 59.398C405.132 58.9127 405.23 58.4973 405.426 58.152C405.632 57.7973 405.902 57.5267 406.238 57.34C406.584 57.144 406.966 57.046 407.386 57.046C407.806 57.046 408.184 57.144 408.52 57.34C408.856 57.5267 409.122 57.7973 409.318 58.152C409.514 58.4973 409.612 58.9127 409.612 59.398C409.612 59.8833 409.51 60.3033 409.304 60.658C409.108 61.0033 408.842 61.274 408.506 61.47C408.17 61.6567 407.792 61.75 407.372 61.75ZM406.504 67L412.202 57.2H413.378L407.68 67H406.504ZM407.372 60.84C407.699 60.84 407.984 60.7187 408.226 60.476C408.478 60.2333 408.604 59.874 408.604 59.398C408.604 58.9127 408.483 58.5487 408.24 58.306C407.998 58.054 407.713 57.928 407.386 57.928C407.06 57.928 406.766 58.054 406.504 58.306C406.252 58.5487 406.126 58.9127 406.126 59.398C406.126 59.874 406.252 60.2333 406.504 60.476C406.756 60.7187 407.046 60.84 407.372 60.84ZM412.608 67.168C412.188 67.168 411.806 67.0747 411.46 66.888C411.124 66.692 410.858 66.4213 410.662 66.076C410.466 65.7213 410.368 65.3013 410.368 64.816C410.368 64.3307 410.466 63.9153 410.662 63.57C410.868 63.2153 411.138 62.9447 411.474 62.758C411.81 62.562 412.188 62.464 412.608 62.464C413.028 62.464 413.406 62.562 413.742 62.758C414.078 62.9447 414.344 63.2153 414.54 63.57C414.736 63.9153 414.834 64.3307 414.834 64.816C414.834 65.3013 414.736 65.7213 414.54 66.076C414.344 66.4213 414.078 66.692 413.742 66.888C413.406 67.0747 413.028 67.168 412.608 67.168ZM412.594 66.258C412.93 66.258 413.22 66.1367 413.462 65.894C413.714 65.6513 413.84 65.292 413.84 64.816C413.84 64.3307 413.719 63.9667 413.476 63.724C413.234 63.4813 412.944 63.36 412.608 63.36C412.282 63.36 411.992 63.4813 411.74 63.724C411.488 63.9667 411.362 64.3307 411.362 64.816C411.362 65.292 411.484 65.6513 411.726 65.894C411.978 66.1367 412.268 66.258 412.594 66.258Z" fill="black"/>
<path d="M20.546 64.082C20.8633 63.83 21.008 63.7133 20.98 63.732C21.8947 62.976 22.6133 62.3553 23.136 61.87C23.668 61.3847 24.116 60.876 24.48 60.344C24.844 59.812 25.026 59.294 25.026 58.79C25.026 58.4073 24.9373 58.1087 24.76 57.894C24.5827 57.6793 24.3167 57.572 23.962 57.572C23.6073 57.572 23.3273 57.7073 23.122 57.978C22.926 58.2393 22.828 58.6127 22.828 59.098H20.518C20.5367 58.3047 20.7047 57.642 21.022 57.11C21.3487 56.578 21.7733 56.186 22.296 55.934C22.828 55.682 23.416 55.556 24.06 55.556C25.1707 55.556 26.006 55.8407 26.566 56.41C27.1353 56.9793 27.42 57.7213 27.42 58.636C27.42 59.6347 27.0793 60.5633 26.398 61.422C25.7167 62.2713 24.8487 63.102 23.794 63.914H27.574V65.86H20.546V64.082ZM30.266 66.112C29.846 66.112 29.5007 65.9907 29.23 65.748C28.9687 65.496 28.838 65.188 28.838 64.824C28.838 64.4507 28.9687 64.138 29.23 63.886C29.5007 63.634 29.846 63.508 30.266 63.508C30.6767 63.508 31.0127 63.634 31.274 63.886C31.5447 64.138 31.68 64.4507 31.68 64.824C31.68 65.188 31.5447 65.496 31.274 65.748C31.0127 65.9907 30.6767 66.112 30.266 66.112Z" fill="black"/>
<path d="M0.5 96C0.5 91.8579 3.85786 88.5 8 88.5H428C432.142 88.5 435.5 91.8579 435.5 96V116C435.5 120.142 432.142 123.5 428 123.5H8C3.85787 123.5 0.5 120.142 0.5 116V96Z" fill="#F8F8F8" fill-opacity="0.05" stroke="#67D7D1"/>
<path d="M0 96C0 91.5817 3.58172 88 8 88H74C78.4183 88 82 91.5817 82 96V116C82 120.418 78.4183 124 74 124H8C3.58172 124 0 120.418 0 116V96Z" fill="#462255" fill-opacity="0.1"/>
<path d="M60.036 111V101.2H61.408L64.936 108.032L68.436 101.2H69.822V111H68.646V103.3L65.37 109.6H64.488L61.212 103.314V111H60.036ZM74.9835 111.168C74.3302 111.168 73.7422 111.019 73.2195 110.72C72.6968 110.421 72.2815 110.001 71.9735 109.46C71.6748 108.909 71.5255 108.265 71.5255 107.528C71.5255 106.791 71.6795 106.151 71.9875 105.61C72.2955 105.059 72.7108 104.635 73.2335 104.336C73.7655 104.037 74.3582 103.888 75.0115 103.888C75.6648 103.888 76.2528 104.037 76.7755 104.336C77.2982 104.635 77.7088 105.059 78.0075 105.61C78.3155 106.151 78.4695 106.791 78.4695 107.528C78.4695 108.265 78.3155 108.909 78.0075 109.46C77.6995 110.001 77.2795 110.421 76.7475 110.72C76.2248 111.019 75.6368 111.168 74.9835 111.168ZM74.9835 110.16C75.3848 110.16 75.7582 110.062 76.1035 109.866C76.4488 109.67 76.7288 109.376 76.9435 108.984C77.1582 108.592 77.2655 108.107 77.2655 107.528C77.2655 106.949 77.1582 106.464 76.9435 106.072C76.7382 105.68 76.4628 105.386 76.1175 105.19C75.7722 104.994 75.4035 104.896 75.0115 104.896C74.6102 104.896 74.2368 104.994 73.8915 105.19C73.5462 105.386 73.2662 105.68 73.0515 106.072C72.8368 106.464 72.7295 106.949 72.7295 107.528C72.7295 108.107 72.8368 108.592 73.0515 108.984C73.2662 109.376 73.5415 109.67 73.8775 109.866C74.2228 110.062 74.5915 110.16 74.9835 110.16ZM80.1047 111V104.056H81.1687L81.2387 105.302C81.4627 104.863 81.7847 104.518 82.2047 104.266C82.6247 104.014 83.1007 103.888 83.6327 103.888C84.454 103.888 85.1073 104.14 85.5927 104.644C86.0873 105.139 86.3347 105.904 86.3347 106.94V111H85.1587V107.066C85.1587 105.619 84.5613 104.896 83.3667 104.896C82.7693 104.896 82.27 105.115 81.8687 105.554C81.4767 105.983 81.2807 106.599 81.2807 107.402V111H80.1047ZM90.8604 111C90.2257 111 89.7264 110.846 89.3624 110.538C88.9984 110.23 88.8164 109.675 88.8164 108.872V105.05H87.6124V104.056H88.8164L88.9704 102.39H89.9924V104.056H92.0364V105.05H89.9924V108.872C89.9924 109.311 90.0811 109.609 90.2584 109.768C90.4357 109.917 90.7484 109.992 91.1964 109.992H91.9244V111H90.8604ZM93.5305 111V100.92H94.7065V105.246C94.9398 104.817 95.2711 104.485 95.7005 104.252C96.1298 104.009 96.5965 103.888 97.1005 103.888C97.9031 103.888 98.5471 104.14 99.0325 104.644C99.5178 105.139 99.7605 105.904 99.7605 106.94V111H98.5985V107.066C98.5985 105.619 98.0151 104.896 96.8485 104.896C96.2418 104.896 95.7331 105.115 95.3225 105.554C94.9118 105.983 94.7065 106.599 94.7065 107.402V111H93.5305ZM101.542 111V100.92H102.718V111H101.542ZM105.402 114.08L107.124 110.328H106.718L103.96 104.056H105.234L107.53 109.46L109.966 104.056H111.184L106.634 114.08H105.402Z" fill="black"/>
<path d="M398.002 111V102.516L396.42 102.866V102.054L398.394 101.2H399.192V111H398.002ZM404.593 111.168C403.921 111.168 403.337 111.047 402.843 110.804C402.348 110.561 401.951 110.23 401.653 109.81C401.363 109.381 401.186 108.895 401.121 108.354H402.269C402.381 108.895 402.642 109.334 403.053 109.67C403.463 109.997 403.981 110.16 404.607 110.16C405.073 110.16 405.475 110.053 405.811 109.838C406.147 109.614 406.403 109.315 406.581 108.942C406.767 108.569 406.861 108.153 406.861 107.696C406.861 106.968 406.655 106.38 406.245 105.932C405.834 105.484 405.302 105.26 404.649 105.26C404.107 105.26 403.645 105.381 403.263 105.624C402.88 105.867 402.6 106.184 402.423 106.576H401.303L402.143 101.2H407.281V102.222H403.053L402.479 105.204C402.703 104.933 403.011 104.709 403.403 104.532C403.804 104.355 404.261 104.266 404.775 104.266C405.419 104.266 405.979 104.415 406.455 104.714C406.94 105.013 407.318 105.419 407.589 105.932C407.859 106.445 407.995 107.029 407.995 107.682C407.995 108.307 407.859 108.886 407.589 109.418C407.327 109.95 406.94 110.375 406.427 110.692C405.923 111.009 405.311 111.168 404.593 111.168ZM411.597 105.75C411.177 105.75 410.794 105.657 410.449 105.47C410.113 105.274 409.847 105.003 409.651 104.658C409.455 104.303 409.357 103.883 409.357 103.398C409.357 102.913 409.455 102.497 409.651 102.152C409.856 101.797 410.127 101.527 410.463 101.34C410.808 101.144 411.191 101.046 411.611 101.046C412.031 101.046 412.409 101.144 412.745 101.34C413.081 101.527 413.347 101.797 413.543 102.152C413.739 102.497 413.837 102.913 413.837 103.398C413.837 103.883 413.734 104.303 413.529 104.658C413.333 105.003 413.067 105.274 412.731 105.47C412.395 105.657 412.017 105.75 411.597 105.75ZM410.729 111L416.427 101.2H417.603L411.905 111H410.729ZM411.597 104.84C411.924 104.84 412.208 104.719 412.451 104.476C412.703 104.233 412.829 103.874 412.829 103.398C412.829 102.913 412.708 102.549 412.465 102.306C412.222 102.054 411.938 101.928 411.611 101.928C411.284 101.928 410.99 102.054 410.729 102.306C410.477 102.549 410.351 102.913 410.351 103.398C410.351 103.874 410.477 104.233 410.729 104.476C410.981 104.719 411.27 104.84 411.597 104.84ZM416.833 111.168C416.413 111.168 416.03 111.075 415.685 110.888C415.349 110.692 415.083 110.421 414.887 110.076C414.691 109.721 414.593 109.301 414.593 108.816C414.593 108.331 414.691 107.915 414.887 107.57C415.092 107.215 415.363 106.945 415.699 106.758C416.035 106.562 416.413 106.464 416.833 106.464C417.253 106.464 417.631 106.562 417.967 106.758C418.303 106.945 418.569 107.215 418.765 107.57C418.961 107.915 419.059 108.331 419.059 108.816C419.059 109.301 418.961 109.721 418.765 110.076C418.569 110.421 418.303 110.692 417.967 110.888C417.631 111.075 417.253 111.168 416.833 111.168ZM416.819 110.258C417.155 110.258 417.444 110.137 417.687 109.894C417.939 109.651 418.065 109.292 418.065 108.816C418.065 108.331 417.944 107.967 417.701 107.724C417.458 107.481 417.169 107.36 416.833 107.36C416.506 107.36 416.217 107.481 415.965 107.724C415.713 107.967 415.587 108.331 415.587 108.816C415.587 109.292 415.708 109.651 415.951 109.894C416.203 110.137 416.492 110.258 416.819 110.258Z" fill="black"/>
<path d="M20.714 102.664C20.7513 101.665 21.078 100.895 21.694 100.354C22.31 99.8127 23.1453 99.542 24.2 99.542C24.9 99.542 25.4973 99.6633 25.992 99.906C26.496 100.149 26.874 100.48 27.126 100.9C27.3873 101.32 27.518 101.791 27.518 102.314C27.518 102.93 27.364 103.434 27.056 103.826C26.748 104.209 26.3887 104.47 25.978 104.61V104.666C26.51 104.843 26.93 105.137 27.238 105.548C27.546 105.959 27.7 106.486 27.7 107.13C27.7 107.709 27.5647 108.222 27.294 108.67C27.0327 109.109 26.6453 109.454 26.132 109.706C25.628 109.958 25.026 110.084 24.326 110.084C23.206 110.084 22.31 109.809 21.638 109.258C20.9753 108.707 20.6253 107.877 20.588 106.766H22.912C22.9213 107.177 23.038 107.503 23.262 107.746C23.486 107.979 23.8127 108.096 24.242 108.096C24.606 108.096 24.886 107.993 25.082 107.788C25.2873 107.573 25.39 107.293 25.39 106.948C25.39 106.5 25.2453 106.178 24.956 105.982C24.676 105.777 24.2233 105.674 23.598 105.674H23.15V103.728H23.598C24.074 103.728 24.4567 103.649 24.746 103.49C25.0447 103.322 25.194 103.028 25.194 102.608C25.194 102.272 25.1007 102.011 24.914 101.824C24.7273 101.637 24.4707 101.544 24.144 101.544C23.7893 101.544 23.5233 101.651 23.346 101.866C23.178 102.081 23.08 102.347 23.052 102.664H20.714ZM30.7446 110.112C30.3246 110.112 29.9792 109.991 29.7086 109.748C29.4472 109.496 29.3166 109.188 29.3166 108.824C29.3166 108.451 29.4472 108.138 29.7086 107.886C29.9792 107.634 30.3246 107.508 30.7446 107.508C31.1552 107.508 31.4912 107.634 31.7526 107.886C32.0232 108.138 32.1586 108.451 32.1586 108.824C32.1586 109.188 32.0232 109.496 31.7526 109.748C31.4912 109.991 31.1552 110.112 30.7446 110.112Z" fill="black"/>
<path d="M0.5 140C0.5 135.858 3.85786 132.5 8 132.5H428C432.142 132.5 435.5 135.858 435.5 140V160C435.5 164.142 432.142 167.5 428 167.5H8C3.85787 167.5 0.5 164.142 0.5 160V140Z" fill="#F8F8F8" fill-opacity="0.05" stroke="#67D7D1"/>
<path d="M0 140C0 135.582 3.58172 132 8 132H343C347.418 132 351 135.582 351 140V160C351 164.418 347.418 168 343 168H8.00001C3.58173 168 0 164.418 0 160V140Z" fill="#462255" fill-opacity="0.1"/>
<path d="M60.036 155V145.2H63.2C63.9653 145.2 64.5907 145.326 65.076 145.578C65.5613 145.83 65.9207 146.175 66.154 146.614C66.3873 147.053 66.504 147.538 66.504 148.07C66.504 148.686 66.336 149.241 66 149.736C65.6733 150.231 65.16 150.581 64.46 150.786L66.602 155H65.216L63.228 150.954H63.144H61.212V155H60.036ZM61.212 150.03H63.116C63.872 150.03 64.4227 149.848 64.768 149.484C65.1133 149.12 65.286 148.653 65.286 148.084C65.286 147.505 65.1133 147.048 64.768 146.712C64.432 146.367 63.8767 146.194 63.102 146.194H61.212V150.03ZM70.3834 155.168C69.8048 155.168 69.3241 155.07 68.9414 154.874C68.5588 154.678 68.2741 154.417 68.0874 154.09C67.9008 153.763 67.8074 153.409 67.8074 153.026C67.8074 152.317 68.0781 151.771 68.6194 151.388C69.1608 151.005 69.8981 150.814 70.8314 150.814H72.7074V150.73C72.7074 150.123 72.5488 149.666 72.2314 149.358C71.9141 149.041 71.4894 148.882 70.9574 148.882C70.5001 148.882 70.1034 148.999 69.7674 149.232C69.4408 149.456 69.2354 149.787 69.1514 150.226H67.9474C67.9941 149.722 68.1621 149.297 68.4514 148.952C68.7501 148.607 69.1188 148.345 69.5574 148.168C69.9961 147.981 70.4628 147.888 70.9574 147.888C71.9281 147.888 72.6561 148.149 73.1414 148.672C73.6361 149.185 73.8834 149.871 73.8834 150.73V155H72.8334L72.7634 153.754C72.5674 154.146 72.2781 154.482 71.8954 154.762C71.5221 155.033 71.0181 155.168 70.3834 155.168ZM70.5654 154.174C71.0134 154.174 71.3961 154.057 71.7134 153.824C72.0401 153.591 72.2874 153.287 72.4554 152.914C72.6234 152.541 72.7074 152.149 72.7074 151.738V151.724H70.9294C70.2388 151.724 69.7488 151.845 69.4594 152.088C69.1794 152.321 69.0394 152.615 69.0394 152.97C69.0394 153.334 69.1701 153.628 69.4314 153.852C69.7021 154.067 70.0801 154.174 70.5654 154.174ZM75.6476 155V148.056H76.7116L76.8096 149.386C77.0243 148.929 77.351 148.565 77.7896 148.294C78.2283 148.023 78.7696 147.888 79.4136 147.888V149.12H79.0916C78.681 149.12 78.303 149.195 77.9576 149.344C77.6123 149.484 77.337 149.727 77.1316 150.072C76.9263 150.417 76.8236 150.893 76.8236 151.5V155H75.6476ZM83.5958 155.168C82.9331 155.168 82.3451 155.019 81.8318 154.72C81.3185 154.412 80.9125 153.987 80.6138 153.446C80.3245 152.905 80.1798 152.265 80.1798 151.528C80.1798 150.8 80.3245 150.165 80.6138 149.624C80.9031 149.073 81.3045 148.649 81.8178 148.35C82.3405 148.042 82.9425 147.888 83.6238 147.888C84.2958 147.888 84.8745 148.042 85.3598 148.35C85.8545 148.649 86.2325 149.045 86.4938 149.54C86.7551 150.035 86.8858 150.567 86.8858 151.136C86.8858 151.239 86.8811 151.341 86.8718 151.444C86.8718 151.547 86.8718 151.663 86.8718 151.794H81.3418C81.3698 152.326 81.4911 152.769 81.7058 153.124C81.9298 153.469 82.2051 153.731 82.5318 153.908C82.8678 154.085 83.2225 154.174 83.5958 154.174C84.0811 154.174 84.4871 154.062 84.8138 153.838C85.1405 153.614 85.3785 153.311 85.5278 152.928H86.6898C86.5031 153.572 86.1438 154.109 85.6118 154.538C85.0891 154.958 84.4171 155.168 83.5958 155.168ZM83.5958 148.882C83.0358 148.882 82.5365 149.055 82.0978 149.4C81.6685 149.736 81.4211 150.231 81.3558 150.884H85.7238C85.6958 150.259 85.4811 149.769 85.0798 149.414C84.6785 149.059 84.1838 148.882 83.5958 148.882ZM88.4445 155V144.92H89.6205V155H88.4445ZM92.304 158.08L94.026 154.328H93.62L90.862 148.056H92.136L94.432 153.46L96.868 148.056H98.086L93.536 158.08H92.304Z" fill="black"/>
<path d="M397.848 155L401.74 146.208H396.364V145.2H402.944V146.082L399.094 155H397.848ZM407.423 155.168C406.751 155.168 406.167 155.047 405.673 154.804C405.178 154.561 404.781 154.23 404.483 153.81C404.193 153.381 404.016 152.895 403.951 152.354H405.099C405.211 152.895 405.472 153.334 405.883 153.67C406.293 153.997 406.811 154.16 407.437 154.16C407.903 154.16 408.305 154.053 408.641 153.838C408.977 153.614 409.233 153.315 409.411 152.942C409.597 152.569 409.691 152.153 409.691 151.696C409.691 150.968 409.485 150.38 409.075 149.932C408.664 149.484 408.132 149.26 407.479 149.26C406.937 149.26 406.475 149.381 406.093 149.624C405.71 149.867 405.43 150.184 405.253 150.576H404.133L404.973 145.2H410.111V146.222H405.883L405.309 149.204C405.533 148.933 405.841 148.709 406.233 148.532C406.634 148.355 407.091 148.266 407.605 148.266C408.249 148.266 408.809 148.415 409.285 148.714C409.77 149.013 410.148 149.419 410.419 149.932C410.689 150.445 410.825 151.029 410.825 151.682C410.825 152.307 410.689 152.886 410.419 153.418C410.157 153.95 409.77 154.375 409.257 154.692C408.753 155.009 408.141 155.168 407.423 155.168ZM414.427 149.75C414.007 149.75 413.624 149.657 413.279 149.47C412.943 149.274 412.677 149.003 412.481 148.658C412.285 148.303 412.187 147.883 412.187 147.398C412.187 146.913 412.285 146.497 412.481 146.152C412.686 145.797 412.957 145.527 413.293 145.34C413.638 145.144 414.021 145.046 414.441 145.046C414.861 145.046 415.239 145.144 415.575 145.34C415.911 145.527 416.177 145.797 416.373 146.152C416.569 146.497 416.667 146.913 416.667 147.398C416.667 147.883 416.564 148.303 416.359 148.658C416.163 149.003 415.897 149.274 415.561 149.47C415.225 149.657 414.847 149.75 414.427 149.75ZM413.559 155L419.257 145.2H420.433L414.735 155H413.559ZM414.427 148.84C414.754 148.84 415.038 148.719 415.281 148.476C415.533 148.233 415.659 147.874 415.659 147.398C415.659 146.913 415.538 146.549 415.295 146.306C415.052 146.054 414.768 145.928 414.441 145.928C414.114 145.928 413.82 146.054 413.559 146.306C413.307 146.549 413.181 146.913 413.181 147.398C413.181 147.874 413.307 148.233 413.559 148.476C413.811 148.719 414.1 148.84 414.427 148.84ZM419.663 155.168C419.243 155.168 418.86 155.075 418.515 154.888C418.179 154.692 417.913 154.421 417.717 154.076C417.521 153.721 417.423 153.301 417.423 152.816C417.423 152.331 417.521 151.915 417.717 151.57C417.922 151.215 418.193 150.945 418.529 150.758C418.865 150.562 419.243 150.464 419.663 150.464C420.083 150.464 420.461 150.562 420.797 150.758C421.133 150.945 421.399 151.215 421.595 151.57C421.791 151.915 421.889 152.331 421.889 152.816C421.889 153.301 421.791 153.721 421.595 154.076C421.399 154.421 421.133 154.692 420.797 154.888C420.461 155.075 420.083 155.168 419.663 155.168ZM419.649 154.258C419.985 154.258 420.274 154.137 420.517 153.894C420.769 153.651 420.895 153.292 420.895 152.816C420.895 152.331 420.774 151.967 420.531 151.724C420.288 151.481 419.999 151.36 419.663 151.36C419.336 151.36 419.047 151.481 418.795 151.724C418.543 151.967 418.417 152.331 418.417 152.816C418.417 153.292 418.538 153.651 418.781 153.894C419.033 154.137 419.322 154.258 419.649 154.258Z" fill="black"/>
<path d="M20.686 152.18V150.248L25.11 143.92H27.784V150.108H28.932V152.18H27.784V154H25.39V152.18H20.686ZM25.558 146.552L23.206 150.108H25.558V146.552ZM31.7426 154.112C31.3226 154.112 30.9773 153.991 30.7066 153.748C30.4453 153.496 30.3146 153.188 30.3146 152.824C30.3146 152.451 30.4453 152.138 30.7066 151.886C30.9773 151.634 31.3226 151.508 31.7426 151.508C32.1533 151.508 32.4893 151.634 32.7506 151.886C33.0213 152.138 33.1566 152.451 33.1566 152.824C33.1566 153.188 33.0213 153.496 32.7506 153.748C32.4893 153.991 32.1533 154.112 31.7426 154.112Z" fill="black"/>
</svg>
