<svg width="211" height="209" viewBox="0 0 211 209" fill="none" xmlns="http://www.w3.org/2000/svg">
<path d="M206.668 104.54C206.668 160.108 161.435 205.181 105.603 205.181C49.7719 205.181 4.5381 160.108 4.5381 104.54C4.5381 48.9728 49.7719 3.89992 105.603 3.89992C161.435 3.89992 206.668 48.9728 206.668 104.54Z" fill="#313B72" stroke="white" strokeWidth="7.64358"/>
<path d="M141.487 119.801C141.156 119.728 140.828 119.652 140.495 119.592C139.433 118.585 138.588 117.177 137.937 115.495C136.298 111.278 135.818 105.284 135.862 99.329C135.954 88.608 137.795 77.986 137.795 77.986C137.795 77.986 137.795 77.986 137.795 77.9829C137.795 76.4981 137.76 75.0736 137.705 73.68C137.687 73.2397 137.659 72.8194 137.637 72.3883C137.587 71.4474 137.535 70.5204 137.454 69.6212C137.414 69.1469 137.368 68.688 137.325 68.2245C137.244 67.3948 137.148 66.5852 137.04 65.7957C136.984 65.3523 136.929 64.9089 136.864 64.4763C136.746 63.6682 136.613 62.8772 136.474 62.1077C136.403 61.7539 136.347 61.3893 136.279 61.037C136.066 59.9864 135.839 58.9636 135.594 57.9825C135.579 57.947 135.576 57.9099 135.564 57.8682C135.301 56.8392 135.021 55.8643 134.719 54.9234C134.622 54.6422 134.53 54.3749 134.435 54.1029C134.228 53.454 133.995 52.8144 133.762 52.2026C133.647 51.8951 133.527 51.5907 133.406 51.2972C133.185 50.7425 132.942 50.2018 132.703 49.6795C132.576 49.3922 132.449 49.1063 132.316 48.8313C132.053 48.3029 131.79 47.7931 131.526 47.3017C131.399 47.07 131.275 46.8336 131.151 46.6111C130.794 45.9776 130.41 45.3612 130.038 44.7787C130.004 44.7215 129.97 44.6582 129.927 44.5979C129.502 43.9552 129.065 43.3449 128.628 42.7717C128.498 42.6033 128.365 42.4457 128.229 42.2866C127.91 41.8849 127.595 41.4955 127.267 41.1247C127.096 40.9409 126.93 40.7663 126.762 40.5778C126.464 40.2487 126.157 39.935 125.847 39.6307C125.677 39.4592 125.507 39.2923 125.337 39.1332C125.012 38.8319 124.69 38.5507 124.362 38.2695C124.203 38.1335 124.043 37.9945 123.887 37.8678C123.475 37.5356 123.058 37.2158 122.636 36.9176C122.571 36.8635 122.497 36.8064 122.435 36.76C121.948 36.4124 121.452 36.0926 120.958 35.7913C120.816 35.7063 120.673 35.6291 120.534 35.5472C120.183 35.3355 119.828 35.1393 119.489 34.9616C119.303 34.8627 119.127 34.7747 118.947 34.6835C118.628 34.5259 118.321 34.376 118.008 34.2339C117.822 34.152 117.645 34.0732 117.463 33.996C117.144 33.8569 116.834 33.7364 116.512 33.6159C116.35 33.5525 116.178 33.4861 116.025 33.4258C115.656 33.2899 115.282 33.1663 114.923 33.055C114.824 33.0241 114.716 32.9855 114.623 32.9577C114.165 32.8186 113.722 32.6981 113.285 32.5869C113.137 32.5514 113.004 32.5235 112.864 32.4926C112.566 32.4231 112.267 32.3505 111.981 32.2933C111.813 32.2609 111.644 32.2269 111.485 32.1991C111.231 32.1512 110.977 32.1079 110.739 32.0693C110.571 32.0415 110.408 32.0183 110.258 31.9998C110.022 31.9673 109.783 31.9364 109.552 31.9117C109.397 31.8963 109.253 31.8762 109.111 31.8607C108.869 31.8391 108.636 31.8159 108.405 31.8005C108.284 31.7943 108.166 31.7788 108.059 31.7727C107.737 31.751 107.442 31.7449 107.152 31.7309C107.019 31.7279 106.904 31.7279 106.771 31.7279C106.629 31.7279 106.477 31.7248 106.338 31.7248C105.629 31.7248 105.062 31.7526 104.662 31.7881C104.606 31.7881 104.569 31.7912 104.526 31.7974C104.38 31.8067 104.266 31.819 104.182 31.8283C104.151 31.8314 104.111 31.8345 104.09 31.8406C104.01 31.8437 103.963 31.853 103.963 31.853C103.551 31.8252 103.14 31.8082 102.735 31.7928C102.33 31.8051 101.923 31.8252 101.506 31.8468C101.506 31.8468 101.456 31.8437 101.379 31.8345C101.352 31.8314 101.314 31.8283 101.29 31.8252C101.21 31.8159 101.086 31.8036 100.947 31.7928C100.909 31.7897 100.864 31.7897 100.811 31.7866C100.412 31.7495 99.8479 31.7217 99.1391 31.7217C98.997 31.7217 98.8383 31.7217 98.6872 31.7217C98.5633 31.7217 98.4575 31.7217 98.3305 31.7248C98.0419 31.734 97.7321 31.7495 97.4132 31.7665C97.3179 31.7727 97.2122 31.7819 97.1124 31.7912C96.8736 31.8067 96.6258 31.8267 96.3628 31.8576C96.2268 31.8669 96.0877 31.8855 95.9547 31.9024C95.7099 31.9303 95.465 31.9627 95.2081 31.9967C95.06 32.0183 94.9134 32.0415 94.7623 32.0631C94.4933 32.1048 94.2273 32.1512 93.9507 32.2053C93.8056 32.2331 93.659 32.2563 93.5109 32.2841C93.189 32.3505 92.8731 32.4262 92.5361 32.4988C92.4242 32.5266 92.3169 32.5529 92.196 32.5776C91.7441 32.6858 91.2862 32.8094 90.8268 32.9546C90.7527 32.9732 90.6786 33.0025 90.6031 33.0241C90.2192 33.1477 89.8263 33.2775 89.4318 33.4197C89.2807 33.4737 89.128 33.534 88.9739 33.5943C88.6429 33.7209 88.3149 33.8538 87.9824 33.996C87.8147 34.0655 87.6424 34.1412 87.4776 34.22C87.1467 34.3621 86.8187 34.5274 86.4862 34.6912C86.3215 34.7731 86.1522 34.8535 85.9875 34.9446C85.6247 35.1377 85.2499 35.3494 84.8812 35.5688C84.7603 35.6445 84.6333 35.7079 84.5094 35.7866C84.0137 36.091 83.5149 36.4139 83.0132 36.7677C82.9663 36.8002 82.921 36.8373 82.8771 36.8697C82.4343 37.1864 81.9945 37.5217 81.5577 37.8771C81.4096 37.9945 81.263 38.1243 81.1149 38.2448C80.7749 38.5322 80.4424 38.8304 80.1084 39.1378C79.9406 39.2985 79.7744 39.4607 79.6127 39.6183C79.2907 39.9289 78.9809 40.2549 78.6681 40.5932C78.5094 40.7647 78.3492 40.9378 78.1935 41.1124C77.8565 41.4924 77.527 41.8941 77.1991 42.3036C77.0781 42.4581 76.9572 42.5987 76.8363 42.7594C76.3875 43.3387 75.9507 43.949 75.523 44.5964C75.4912 44.6443 75.464 44.6984 75.4338 44.7416C75.0439 45.3365 74.6721 45.9607 74.2912 46.6127C74.1703 46.8274 74.0585 47.0592 73.9346 47.2832C73.6655 47.7869 73.395 48.3029 73.1351 48.8375C73.0021 49.1125 72.8781 49.3891 72.7512 49.6734C72.5124 50.2048 72.2766 50.7502 72.0394 51.3126C71.9245 51.6077 71.8006 51.9013 71.6887 52.2026C71.453 52.8237 71.2247 53.4695 71.0071 54.1308C70.921 54.3996 70.8212 54.653 70.7411 54.928C70.4373 55.8751 70.1502 56.8562 69.8887 57.8821C69.8797 57.9207 69.8676 57.9671 69.8615 58.0057C69.6167 58.9837 69.3839 60.0034 69.1799 61.054C69.1149 61.4017 69.056 61.7632 68.988 62.1108C68.8489 62.8803 68.7129 63.6775 68.592 64.4886C68.527 64.9166 68.4741 65.36 68.4152 65.8019C68.3124 66.593 68.2142 67.401 68.1401 68.2369C68.0902 68.7019 68.0479 69.1608 68.0071 69.6367C67.9361 70.5297 67.8711 71.4567 67.8212 72.3945C67.797 72.8287 67.7683 73.2489 67.7532 73.6954C67.6973 75.086 67.661 76.5136 67.661 77.9953C67.661 77.9953 67.661 77.9953 67.661 77.9983C67.661 77.9983 69.5003 88.6235 69.594 99.3414C69.6499 105.297 69.1633 111.288 67.522 115.513C66.863 117.194 66.0288 118.603 64.9633 119.601C64.6202 119.668 64.2998 119.74 63.9779 119.819C62.2308 120.233 56.5361 120.725 50.7809 126.996C47.2806 130.814 43.7562 136.763 41.0872 146.143C40.8484 146.988 40.6852 147.846 40.6126 148.714C40.3738 151.304 40.8605 153.926 42.0242 156.174C47.8005 167.343 78.1814 170.774 102.741 170.774C127.3 170.774 157.688 167.343 163.463 156.172C164.618 153.912 165.104 151.293 164.875 148.71C164.766 147.829 164.606 146.968 164.37 146.123C161.704 136.736 158.179 130.793 154.682 126.982C148.926 120.709 143.225 120.213 141.487 119.801ZM75.6514 76.0454C75.8056 75.9342 75.9734 75.8585 76.1502 75.8276C76.5522 75.7581 76.9739 75.9126 77.3834 76.2525C77.3834 76.2525 77.3834 76.2216 77.3925 76.1582C77.5346 74.7399 79.3814 58.8246 91.0383 59.9292L126.673 78.6812L129.568 75.8322C129.664 75.8508 129.766 75.8832 129.854 75.9265C131.114 76.5367 131.663 79.565 131.052 83.0243C130.592 85.6771 129.579 87.8649 128.507 88.7996C128.074 89.1673 127.631 89.3435 127.215 89.2709C126.979 89.2291 126.754 89.1102 126.562 88.9232C124.183 96.48 119.643 104.009 113.911 108.537C110.563 111.172 106.815 112.783 102.848 112.783C98.8595 112.783 95.0872 111.15 91.726 108.483C86.0237 103.953 81.5003 96.4491 79.1366 88.9232C78.9416 89.104 78.7315 89.2245 78.4897 89.2709C78.0061 89.3589 77.4832 89.1086 76.9905 88.6003C75.993 87.5744 75.0771 85.5041 74.6404 83.0243C74.0691 79.7566 74.524 76.872 75.6514 76.0454ZM78.4172 157.685C77.9048 158.12 77.2655 158.36 76.593 158.36H73.4373C71.8535 158.36 70.5658 157.042 70.5658 155.424L70.5764 155.217C70.6822 153.702 71.9381 152.49 73.4388 152.49H76.593C76.9149 152.49 77.2323 152.544 77.5361 152.654C77.7265 152.598 77.787 152.554 77.787 152.554C78.1391 151.917 78.1391 149.264 78.1391 147.991C78.1391 145.428 77.5104 142.327 76.4071 139.441C75.8358 139.109 75.3749 138.607 75.0907 137.999C73.1759 133.905 70.5749 131.259 68.459 131.259C66.2963 131.259 63.5653 134.12 61.661 138.373C61.3497 139.067 60.8041 139.631 60.1315 139.966C59.1371 142.724 58.59 145.561 58.59 147.99C58.59 149.06 58.59 151.899 58.9905 152.564C58.995 152.564 59.0842 152.62 59.3336 152.682C59.66 152.555 60.0106 152.489 60.3628 152.489H63.5245C64.9844 152.489 66.2041 153.615 66.3718 155.081L66.3885 155.114L66.3945 155.307C66.3945 157.04 65.1069 158.358 63.526 158.358H60.3643C59.7371 158.358 59.131 158.144 58.6323 157.753C56.8278 157.407 55.5537 156.592 54.7466 155.267C53.7718 153.663 53.5935 151.559 53.5935 147.99C53.5935 144.858 54.3008 141.255 55.5854 137.811C55.3965 137.074 55.46 136.303 55.7728 135.611C57.1119 132.62 58.8137 130.058 60.6938 128.206C61.7275 127.186 62.8368 126.369 64.0006 125.771C64.4252 124.754 65.1477 123.901 66.0393 123.356C66.5079 120.658 67.9859 117.801 70.1411 115.462C73.1094 112.236 76.8378 110.462 80.6388 110.462H81.3945V110.478C82.7094 110.554 83.7582 111.658 83.7582 113.021C83.7582 114.384 82.7094 115.49 81.3945 115.564V115.573H81.2993C81.2827 115.573 81.2691 115.58 81.2555 115.58C81.2419 115.58 81.2252 115.573 81.2116 115.573H80.6388C75.9582 115.573 72.0802 120.11 71.1008 123.628C71.7718 124.137 72.3174 124.828 72.6756 125.635C75.9038 127.19 78.7557 130.469 80.9396 135.137C81.3053 135.923 81.3522 136.81 81.0847 137.619C82.3935 141.065 83.1416 144.827 83.1416 147.988C83.1401 152.421 83.1401 156.609 78.4172 157.685ZM102.722 142.749C102.722 142.749 83.9608 124.61 80.8912 120.599C80.2444 119.742 79.8378 118.843 79.7275 117.905V117.902C79.8786 117.845 80.2262 117.721 80.6933 117.503C80.8822 117.421 81.0953 117.313 81.3038 117.193C83.1613 116.199 85.8877 114.124 85.8877 110.469C85.8877 110.469 85.8877 110.469 85.8907 110.469C88.8167 113.429 92.0781 115.785 95.5557 117.193C97.8938 118.143 100.335 118.668 102.84 118.668C105.349 118.668 107.787 118.143 110.125 117.193C113.572 115.799 116.793 113.481 119.71 110.551C119.731 110.563 119.751 110.572 119.772 110.583C119.84 115.288 124.465 117.352 125.714 117.828C125.717 117.843 125.714 117.869 125.708 117.903C125.603 118.837 125.192 119.74 124.543 120.598C121.478 124.604 102.722 142.749 102.722 142.749ZM134.476 156.676C134.476 157.209 134.003 157.641 133.419 157.641H127.675V163.511C127.675 164.109 127.251 164.594 126.732 164.594H121.063C120.541 164.594 120.119 164.109 120.119 163.511V157.641H114.375C113.792 157.641 113.317 157.209 113.317 156.676V150.882C113.317 150.347 113.792 149.916 114.375 149.916H120.119V144.044C120.119 143.446 120.541 142.964 121.063 142.964H126.732C127.251 142.964 127.675 143.447 127.675 144.044V149.916H133.419C134.004 149.916 134.476 150.347 134.476 150.882V156.676ZM141.45 136.008C139.986 138.803 137.149 140.54 134.049 140.54C132.682 140.54 131.312 140.187 130.099 139.524C128.123 138.444 126.679 136.643 126.03 134.452C125.38 132.26 125.606 129.941 126.662 127.923C127.709 125.92 129.499 124.445 131.64 123.791C130.897 120.811 128.899 117.242 125.388 116.063L124.546 115.78C124.477 115.756 124.404 115.74 124.338 115.711L124.069 115.62L124.085 115.569C123.331 115.124 122.816 114.299 122.816 113.345C122.816 111.924 123.943 110.771 125.334 110.771C125.43 110.771 125.522 110.79 125.618 110.802L125.631 110.764L125.808 110.822C126.012 110.861 126.204 110.929 126.385 111.016L126.951 111.204C130.564 112.42 133.563 115.295 135.398 119.306C136.073 120.777 136.542 122.311 136.793 123.869C137.228 124.02 137.631 124.198 138.014 124.406C142.087 126.636 143.63 131.839 141.45 136.008Z" fill="white"/>
<path d="M134.054 136.6C136.558 136.6 138.588 134.525 138.588 131.965C138.588 129.405 136.558 127.33 134.054 127.33C131.55 127.33 129.52 129.405 129.52 131.965C129.52 134.525 131.55 136.6 134.054 136.6Z" fill="white"/>
</svg>
