<?xml version="1.0" encoding="UTF-8" standalone="no"?>
<!DOCTYPE svg PUBLIC "-//W3C//DTD SVG 1.1//EN" "http://www.w3.org/Graphics/SVG/1.1/DTD/svg11.dtd">
<svg width="100%" height="100%" viewBox="0 0 4000 3000" version="1.1" xmlns="http://www.w3.org/2000/svg" xmlns:xlink="http://www.w3.org/1999/xlink" xml:space="preserve" xmlns:serif="http://www.serif.com/" style="fill-rule:evenodd;clip-rule:evenodd;stroke-linejoin:round;stroke-miterlimit:2;">
    <rect id="Web-8" serif:id="Web 8" x="0" y="0" width="4000" height="3000" style="fill:none;"/>
    <clipPath id="_clip1">
        <rect id="Web-81" serif:id="Web 8" x="0" y="0" width="4000" height="3000"/>
    </clipPath>
    <g clip-path="url(#_clip1)">
        <rect x="-0" y="0" width="4000" height="3000" style="fill:white;"/>
        <g id="Back">
            <path d="M701.779,2556.18c0,0 -156.527,-223.252 -56.438,-450.867c92.486,-210.325 234.145,-145.877 307.096,-424.935c44.337,-169.601 -220.411,-473.027 82.737,-723.871c195.183,-161.507 448.53,-44.505 606.006,-144.132c157.476,-99.628 175.508,-305.572 431.282,-384.558c305.02,-94.193 697.197,65.6 713.623,424.831c13.828,302.395 -95.878,492.761 129.802,697.294c166.643,151.027 669.896,378.104 275.671,1014.79l-2489.78,-8.555Z" style="fill:rgb(233,238,253);"/>
            <path d="M3507.31,2579.84c-0,-8.886 -7.214,-16.1 -16.1,-16.1l-2982.41,-0c-8.886,-0 -16.1,7.214 -16.1,16.1l0,2.8c0,8.886 7.214,16.1 16.1,16.1l2982.41,-0c8.886,-0 16.1,-7.214 16.1,-16.1l-0,-2.8Z" style="fill:rgb(157,178,227);"/>
        </g>
        <g id="Front">
            <g>
                <path d="M2691.76,1825.62c-52.774,-36.636 -0.395,-102.941 -0.395,-102.941c24.895,40.874 25.82,67.152 20.521,83.21c-1.224,3.708 -2.779,6.871 -4.448,9.544c10.045,-5.72 21.182,-10.633 33.593,-14.567c2.257,-4.414 6.96,-11.262 16.037,-16.585c14.588,-8.554 40.473,-13.169 85.665,2.585c-0,-0 -53.309,64.515 -100.043,21.869c-7.294,2.347 -14.122,5.051 -20.523,8.072c16.794,-1.275 41.717,5.62 75.436,36.884c0,-0 -76.013,38.423 -101.097,-21.601c-14.334,10.573 -25.98,23.086 -35.797,36.745c2.25,-1.305 4.815,-2.517 7.722,-3.528c15.971,-5.556 42.26,-5.054 83.529,19.182c-0,0 -65.003,53.067 -102.539,1.803c-6.039,10.338 -11.325,21.097 -16.17,31.981c-3.365,7.56 -6.525,15.179 -9.576,22.769c3.524,-3.444 8.984,-7.447 16.864,-9.931c16.128,-5.085 42.39,-3.81 82.93,21.628c-0,-0 -67.642,51.986 -103.439,-2.537c-7.673,19.442 -14.882,38.439 -23.271,55.449c3.496,-3.018 8.432,-6.208 15.101,-8.311c16.128,-5.084 42.39,-3.809 82.93,21.628c-0,0 -67.807,52.113 -103.567,-2.732c-6.406,11.499 -13.589,21.816 -22.152,30.398c-2.928,2.935 -5.902,5.716 -8.917,8.356c1.488,-0.352 3.064,-0.643 4.726,-0.855c16.775,-2.139 42.393,3.781 77.769,36.016c-0,0 -75.693,39.087 -101.291,-20.75c-10.063,6.727 -20.243,12.094 -30.145,16.373c2.915,0.167 6.107,0.655 9.517,1.621c16.27,4.608 37.517,20.097 57.425,63.62c0,-0 -84.647,6.263 -85.048,-58.437c-35.359,11.396 -63.41,9.865 -63.41,9.865l0.431,-7.988c0,-0 25.765,1.376 58.629,-8.858c-53.92,-29.429 -12.892,-100.545 -12.892,-100.545c30.552,36.839 35.272,62.705 32.354,79.362c-1.275,7.284 -4.012,12.806 -6.688,16.716c11.288,-4.396 23.089,-10.223 34.742,-17.946c-55.421,-29.092 -13.891,-101.079 -13.891,-101.079c30.552,36.838 35.273,62.705 32.355,79.361c-0.689,3.936 -1.805,7.358 -3.108,10.288c3.993,-3.328 7.928,-6.911 11.779,-10.771c7.857,-7.874 14.502,-17.251 20.433,-27.679c-63.506,-9.042 -46.555,-91.752 -46.555,-91.752c40.618,25.311 53.261,48.365 55.75,65.091c0.401,2.695 0.539,5.225 0.487,7.575c6.788,-14.804 12.865,-30.907 19.29,-47.33c-63.786,-8.872 -46.794,-91.785 -46.794,-91.785c40.618,25.311 53.261,48.365 55.75,65.091c0.182,1.22 0.309,2.405 0.39,3.555c1.234,-2.919 2.493,-5.829 3.784,-8.729c5.436,-12.213 11.422,-24.259 18.36,-35.774c-58.388,-29.431 -14.213,-102.576 -14.213,-102.576c28.881,36.279 33.723,61.774 31.039,78.419c8.759,-10.81 18.825,-20.767 30.631,-29.469Z" style="fill:rgb(64,159,106);"/>
            </g>
            <g>
                <path d="M1439.55,1987.56c0,0 -71.728,32.58 -102.827,0c-31.1,-32.58 -31.1,-105.323 -114.031,-123.094c-82.932,-17.771 -98.641,-10.544 -132.43,-41.347c-72.258,-65.873 -139.312,-134.967 -178.973,-81.131c-36.205,49.147 27.687,138.015 30.294,197.588c3.58,81.842 3.585,87.91 -11.224,151.589c-14.81,63.68 11.711,155.361 84.412,228.062c61.783,61.782 -46.706,184.26 90.336,243.497l356.901,-0l-22.458,-575.164Z" style="fill:url(#_Linear2);"/>
                <path d="M919.723,1732.69c-2.896,2.527 -5.678,5.566 -8.336,9.155l1.086,1.646c15.836,24.016 31.658,48.042 47.474,72.072l-55.248,-3.377c0.978,4.033 2.085,8.113 3.289,12.223l60.199,3.68c21.372,32.491 47.001,71.498 75.233,114.552l-101.368,7.841c0.18,4.208 0.348,8.199 0.501,11.997l108.377,-8.383c31.679,48.325 66.348,101.309 101.784,155.638l-226.184,24.615c0.144,3.945 0.411,7.942 0.801,11.983l232.734,-25.327c40.254,61.741 81.321,124.949 119.929,184.743l-255.426,25.924c2.24,3.689 4.067,7.529 5.545,11.499l257.187,-26.102c64.699,100.286 121.805,189.97 155.638,245.651l14.029,-0c-33.393,-55.295 -92.618,-148.351 -160.041,-252.856l82.617,-307.856c-4.131,0.097 -8.253,-0.056 -12.282,-0.534l-79.111,294.795c-38.512,-59.633 -79.406,-122.568 -119.473,-184.018l86.495,-236.2c-3.418,-1.83 -7.052,-3.531 -10.917,-5.085l-83.762,228.736c-34.325,-52.618 -67.894,-103.923 -98.661,-150.859l48.38,-110.612c-3.334,-1.944 -6.664,-4.19 -10.111,-6.827l-46.126,105.456c-28.276,-43.124 -53.935,-82.178 -75.347,-114.732l29.604,-70.958c-3.373,-2.537 -6.705,-4.945 -9.995,-7.208l-27.565,66.071c-24.33,-36.977 -42.262,-64.175 -50.949,-77.343Z" style="fill:rgb(219,246,208);"/>
                <path d="M1439.55,2315.63c0,-0 -27.322,-248.624 -298.826,-355.395c-0,-0 -151.147,344.69 69.737,602.48l229.089,-0l0,-247.085Z" style="fill:url(#_Linear3);"/>
                <path d="M1137.05,1969.27l0.883,2.004c16.27,36.977 32.02,74.18 47.353,111.555l-73.663,-31.624c-0.946,3.847 -1.886,7.802 -2.813,11.851l82.93,35.603c16.731,41.248 35.029,87.999 53.097,137.244l-153.658,-48.357c-0.216,4.113 -0.397,8.247 -0.539,12.411l159.379,50.157c17.288,47.712 34.2,97.443 49.149,146.544l-199.66,-68.971c0.823,4.522 1.708,9.064 2.657,13.613l201.268,69.527c13.637,45.866 25.426,90.986 34.044,133.133l-167.841,-36.076c3.068,4.783 6.254,9.565 9.551,14.327l160.829,34.569c0.381,1.987 0.754,3.966 1.119,5.939l12.186,-0c-0.516,-2.815 -1.048,-5.644 -1.595,-8.488l87.82,-69.822l0,-15.331l-90.454,71.917c-8.622,-41.963 -20.348,-86.827 -33.901,-132.457l107.875,-159.397c-1.535,-4.503 -3.205,-9.172 -5.023,-13.988l-107.31,158.563c-14.968,-49.172 -31.88,-98.945 -49.162,-146.692l81.014,-142.706c-2.668,-3.258 -5.42,-6.523 -8.245,-9.782l-78.163,137.683c-18.198,-49.633 -36.623,-96.734 -53.456,-138.258l39.615,-80.704c-3.305,-2.228 -6.679,-4.444 -10.11,-6.636l-35.567,72.457c-20.409,-49.875 -38.017,-90.561 -49.324,-116.19c-2.179,-0.889 -4.389,-1.774 -6.615,-2.649c-0,-0 -1.376,3.137 -3.67,9.031Z" style="fill:rgb(219,246,208);"/>
            </g>
            <path d="M3142.09,2562.72c71.071,-60.705 -5.026,-238.341 -190.065,-170.294c14.281,-132.755 -71.534,-195.34 -157.286,-182.153c29.972,-120.307 -111.557,-260.195 -272.489,-112.55c-60.931,-60.931 -195.032,-9.56 -194,44.979l0,420.018l813.84,-0Z" style="fill:url(#_Linear4);"/>
            <path d="M2961.42,2562.72c39.214,-52.623 -20.655,-125.826 -97.57,-106.092c27.687,-60.055 -34.35,-122.917 -106.759,-86.966c-37.271,-119.142 -183.523,-105.007 -196.63,15.88c-21.864,-22.567 -117.694,-31.817 -130.762,78.828c-48.602,-28.191 -131.394,4.438 -101.454,98.35l633.175,-0Z" style="fill:url(#_Linear5);"/>
            <g>
                <path d="M2397.72,872.999c-0,-111.715 -6.686,-147.437 -83.612,-154.758c-2.23,-0.212 -4.519,-0.4 -6.869,-0.566c-15.85,-1.117 -34.457,-1.201 -56.296,-0.608l16.85,1845.65l60.337,-0c38.027,-0 68.862,-41.019 68.889,-91.643c0.176,-323.434 0.701,-1402.57 0.701,-1598.08Z" style="fill:rgb(62,73,126);"/>
                <path d="M2324.68,764.81c-0,-26.35 -21.393,-47.743 -47.743,-47.743l-859.378,-0c-26.351,-0 -47.744,21.393 -47.744,47.743l0,1750.17c0,26.35 21.393,47.743 47.744,47.743l859.378,-0c26.35,-0 47.743,-21.393 47.743,-47.743l-0,-1750.17Z" style="fill:rgb(98,118,187);"/>
                <path d="M2300.24,784.503c-0,-25.002 -20.298,-45.3 -45.3,-45.3l-815.395,0c-25.001,0 -45.299,20.298 -45.299,45.3l-0,1656.5c-0,25.002 20.298,45.3 45.299,45.3l815.395,0c25.002,0 45.3,-20.298 45.3,-45.3l-0,-1656.5Z" style="fill:url(#_Linear6);"/>
                <path d="M1789.98,1316.2c-21.179,-3.453 -42.777,-3.453 -63.955,0l-4.521,47.32c-15.125,3.71 -29.596,9.704 -42.915,17.776l-36.657,-30.263c-17.417,12.534 -32.689,27.806 -45.223,45.223l30.264,36.657c-8.072,13.318 -14.066,27.789 -17.776,42.914l-47.32,4.522c-3.453,21.178 -3.453,42.776 -0,63.954l47.32,4.521c3.71,15.126 9.704,29.597 17.776,42.915l-30.264,36.657c12.534,17.417 27.806,32.689 45.223,45.223l36.657,-30.263c13.319,8.071 27.79,14.066 42.915,17.775l4.521,47.32c21.178,3.454 42.776,3.454 63.955,0l4.521,-47.32c15.125,-3.709 29.596,-9.704 42.914,-17.775l36.658,30.263c17.417,-12.534 32.689,-27.806 45.223,-45.223l-30.264,-36.657c8.072,-13.318 14.066,-27.789 17.776,-42.915l47.32,-4.521c3.453,-21.178 3.453,-42.776 -0,-63.954l-47.32,-4.522c-3.71,-15.125 -9.704,-29.596 -17.776,-42.914l30.264,-36.657c-12.534,-17.417 -27.806,-32.689 -45.223,-45.223l-36.658,30.263c-13.318,-8.072 -27.789,-14.066 -42.914,-17.776l-4.521,-47.32Zm-31.978,138.783c31.649,-0 57.344,25.694 57.344,57.343c-0,31.649 -25.695,57.343 -57.344,57.343c-31.648,0 -57.343,-25.694 -57.343,-57.343c0,-31.649 25.695,-57.343 57.343,-57.343Z" style="fill:white;"/>
                <path d="M2100.9,1627.91c-15.668,-15.761 -35.471,-26.775 -57.126,-31.77l-16.511,29.689c-7.557,-0.886 -15.197,-0.763 -22.722,0.365l-17.456,-29.144c-21.483,5.688 -40.922,17.331 -56.076,33.587l17.456,29.144c-4.546,6.101 -8.26,12.78 -11.045,19.86l-33.967,0.545c-5.816,21.45 -5.452,44.106 1.049,65.358l33.967,-0.546c3.011,6.988 6.938,13.543 11.677,19.495l-16.512,29.69c15.668,15.761 35.471,26.774 57.126,31.77l16.512,-29.69c7.556,0.887 15.197,0.764 22.721,-0.364l17.456,29.143c21.484,-5.688 40.923,-17.331 56.076,-33.587l-17.455,-29.144c4.545,-6.101 8.26,-12.779 11.044,-19.859l33.968,-0.546c5.816,-21.449 5.452,-44.105 -1.049,-65.357l-33.968,0.545c-3.011,-6.987 -6.937,-13.543 -11.676,-19.495l16.511,-29.689Zm-70.638,59.77c12.896,7.172 17.543,23.465 10.371,36.361c-7.172,12.896 -23.465,17.543 -36.36,10.371c-12.896,-7.172 -17.544,-23.464 -10.372,-36.36c7.172,-12.896 23.465,-17.544 36.361,-10.372Z" style="fill:white;"/>
                <circle cx="1847.24" cy="781.649" r="18.368" style="fill:rgb(59,65,147);"/>
            </g>
            <g>
                <path d="M1313.33,2520.87l-272.547,0l101.937,-446.454l68.673,-0l101.937,446.454Z" style="fill:url(#_Linear7);"/>
                <path d="M1054.49,2460.83l-6.652,29.133c86.163,18.839 172.334,19.127 258.513,0.355l-6.652,-29.137c-81.737,17.708 -163.475,17.425 -245.209,-0.351Zm21.681,-94.957l-6.667,29.203c71.734,18.972 143.458,19.257 215.182,0.352l-6.669,-29.207c-67.281,17.789 -134.568,17.505 -201.846,-0.348Zm20.536,-89.942l-6.671,29.22c58.03,12.46 116.067,12.657 174.111,0.322l-6.674,-29.227c-53.598,11.242 -107.183,11.051 -160.766,-0.315Zm20.778,-90.999l-6.692,29.307c44.192,7.258 88.386,7.387 132.584,0.269l-6.694,-29.319c-39.74,6.146 -79.469,6.025 -119.198,-0.257Zm21.027,-92.096l-6.728,29.47c30.191,3.415 60.388,3.493 90.586,0.196l-6.733,-29.488c-25.704,2.547 -51.414,2.478 -77.125,-0.178Z" style="fill:url(#_Linear8);"/>
                <path d="M1383.57,2562.72c0,-28.03 -22.723,-50.754 -50.754,-50.754l-311.528,0c-28.03,0 -50.754,22.724 -50.754,50.754l0,0.001l413.036,-0l0,-0.001Z" style="fill:url(#_Linear9);"/>
            </g>
            <g>
                <path d="M3044.03,2516.06l-315.008,-0l117.818,-516.009l79.372,-0l117.818,516.009Z" style="fill:url(#_Linear10);"/>
                <path d="M2744.87,2446.66l-7.688,33.672c99.586,21.774 199.183,22.107 298.788,0.409l-7.689,-33.675c-94.471,20.466 -188.943,20.139 -283.411,-0.406Zm25.059,-109.751l-7.706,33.752c82.91,21.928 165.809,22.258 248.706,0.407l-7.708,-33.757c-77.763,20.56 -155.532,20.232 -233.292,-0.402Zm23.736,-103.955l-7.711,33.773c67.071,14.4 134.15,14.629 201.236,0.372l-7.713,-33.781c-61.949,12.994 -123.882,12.773 -185.812,-0.364Zm24.014,-105.175l-7.734,33.872c51.077,8.389 102.155,8.538 153.239,0.311l-7.737,-33.887c-45.931,7.104 -91.849,6.964 -137.768,-0.296Zm24.304,-106.445l-7.777,34.061c34.894,3.948 69.796,4.038 104.698,0.227l-7.781,-34.082c-29.708,2.944 -59.424,2.865 -89.14,-0.206Z" style="fill:url(#_Linear11);"/>
                <path d="M3125.22,2564.43c0,-32.397 -26.263,-58.66 -58.66,-58.66c-91.776,0 -268.288,0 -360.064,0c-32.397,0 -58.66,26.263 -58.66,58.66c0,0.001 0,0.002 0,0.002l477.384,-0c0,-0 0,-0.001 0,-0.002Z" style="fill:url(#_Linear12);"/>
            </g>
            <g>
                <path d="M2460.86,2424.95l-629.764,-0l-7.6,28.362l629.764,0l7.6,-28.362Z" style="fill:rgb(119,134,191);"/>
                <path d="M1586.09,1963.53l932.152,0l40.636,151.655l-932.152,-0l-40.636,-151.655Z" style="fill:rgb(94,111,159);"/>
                <path d="M1637.34,2177.91l932.152,0l40.636,151.654l-932.153,0l-40.635,-151.654Z" style="fill:rgb(94,111,159);"/>
                <g>
                    <path d="M1703.07,1846.29l110.21,0l94.319,716.43l-110.209,-0l-94.32,-716.43Z" style="fill:rgb(119,134,191);"/>
                    <path d="M2354.8,1846.29l110.209,0l94.32,716.43l-110.209,-0l-94.32,-716.43Z" style="fill:rgb(119,134,191);"/>
                    <path d="M1812.26,1846.29l-110.209,0l-191.966,716.43l110.209,-0l191.966,-716.43Z" style="fill:rgb(194,204,239);"/>
                    <path d="M1813.28,1846.29l94.319,716.43l-19.448,-0l-81.184,-616.651l-165.231,616.651l-19.449,-0l190.993,-716.43Z" style="fill:rgb(97,114,173);"/>
                    <path d="M2465,1846.29l94.32,716.43l-19.449,-0l-81.183,-616.651l-165.231,616.651l-19.449,-0l190.992,-716.43Z" style="fill:rgb(97,114,173);"/>
                    <path d="M2464.39,1846.29l-110.209,0l-191.967,716.43l110.21,-0l191.966,-716.43Z" style="fill:rgb(194,204,239);"/>
                </g>
                <path d="M2548.87,2003.9l-6.183,-19.252l-983.774,19.252l-46.319,130.539l6.183,19.253l989.956,-0l40.137,-149.792Z" style="fill:rgb(53,65,112);"/>
                <path d="M2498.28,2211.03l-6.182,-19.252l-983.775,19.252l-46.319,130.539l6.183,19.252l989.957,0l40.136,-149.791Z" style="fill:rgb(53,65,112);"/>
                <path d="M2542.69,1984.65l-989.956,-0l-40.137,149.791l989.957,0l40.136,-149.791Z" style="fill:rgb(248,249,252);"/>
                <path d="M2492.1,2191.78l-989.957,-0l-40.137,149.791l989.957,0l40.137,-149.791Z" style="fill:rgb(248,249,252);"/>
                <path d="M1600.42,2134.44l-52.824,0l-22.638,-46.147l18.661,-69.642l56.801,115.789Zm105.895,0l-52.824,0l-73.481,-149.791l52.824,-0l73.481,149.791Zm105.894,0l-52.823,0l-73.481,-149.791l52.823,-0l73.481,149.791Zm105.895,0l-52.823,0l-73.481,-149.791l52.823,-0l73.481,149.791Zm105.895,0l-52.823,0l-73.481,-149.791l52.823,-0l73.481,149.791Zm105.895,0l-52.824,0l-73.48,-149.791l52.823,-0l73.481,149.791Zm105.895,0l-52.824,0l-73.481,-149.791l52.824,-0l73.481,149.791Zm105.895,0l-52.824,0l-73.481,-149.791l52.824,-0l73.481,149.791Zm105.894,0l-52.823,0l-73.481,-149.791l52.824,-0l73.48,149.791Zm53.072,0l-73.481,-149.791l52.823,-0l40.547,82.655l-17.989,67.136l-1.9,0Zm38.637,-137.105l-6.223,-12.686l9.622,-0l-3.399,12.686Z" style="fill:url(#_Linear13);"/>
                <path d="M1549.83,2341.57l-52.824,0l-22.638,-46.147l18.661,-69.642l56.801,115.789Zm105.895,0l-52.824,0l-73.481,-149.791l52.824,-0l73.481,149.791Zm105.895,0l-52.824,0l-73.481,-149.791l52.824,-0l73.481,149.791Zm105.894,0l-52.823,0l-73.481,-149.791l52.823,-0l73.481,149.791Zm105.895,0l-52.823,0l-73.481,-149.791l52.823,-0l73.481,149.791Zm105.895,0l-52.823,0l-73.481,-149.791l52.823,-0l73.481,149.791Zm105.895,0l-52.823,0l-73.481,-149.791l52.823,-0l73.481,149.791Zm105.895,0l-52.824,0l-73.481,-149.791l52.824,-0l73.481,149.791Zm105.895,0l-52.824,0l-73.481,-149.791l52.824,-0l73.481,149.791Zm53.071,0l-73.481,-149.791l52.824,-0l40.546,82.654l-17.989,67.137l-1.9,0Zm38.637,-137.105l-6.223,-12.686l9.623,-0l-3.4,12.686Z" style="fill:url(#_Linear14);"/>
                <path d="M2356.98,2046.6c7.396,0 11.846,5.8 9.932,12.944c-1.914,7.143 -9.472,12.943 -16.868,12.943c-7.396,-0 -11.846,-5.8 -9.932,-12.943c1.914,-7.144 9.473,-12.944 16.868,-12.944Z" style="fill:rgb(46,66,126);"/>
                <path d="M2306.39,2253.73c7.396,0 11.846,5.8 9.932,12.943c-1.914,7.144 -9.472,12.944 -16.868,12.944c-7.395,-0 -11.846,-5.8 -9.931,-12.944c1.914,-7.143 9.472,-12.943 16.867,-12.943Z" style="fill:rgb(46,66,126);"/>
                <path d="M1704.8,2046.6c7.143,0 11.389,5.8 9.475,12.944c-1.914,7.143 -9.268,12.943 -16.411,12.943c-7.144,-0 -11.39,-5.8 -9.475,-12.943c1.914,-7.144 9.267,-12.944 16.411,-12.944Z" style="fill:rgb(46,66,126);"/>
                <path d="M1654.21,2253.73c7.144,0 11.389,5.8 9.475,12.943c-1.914,7.144 -9.268,12.944 -16.411,12.944c-7.144,-0 -11.389,-5.8 -9.475,-12.944c1.914,-7.143 9.268,-12.943 16.411,-12.943Z" style="fill:rgb(46,66,126);"/>
                <path d="M2228.49,2439.13l-615.552,-0l-7.6,28.362l615.552,0l7.6,-28.362Z" style="fill:rgb(194,204,239);"/>
                <circle cx="1756.48" cy="1804.54" r="41.752" style="fill:url(#_Linear15);"/>
                <circle cx="2409.11" cy="1804.54" r="41.752" style="fill:url(#_Linear16);"/>
            </g>
        </g>
    </g>
    <defs>
        <linearGradient id="_Linear2" x1="0" y1="0" x2="1" y2="0" gradientUnits="userSpaceOnUse" gradientTransform="matrix(3.87836e-14,633.385,-636.043,3.89464e-14,1181.1,1853.46)"><stop offset="0" style="stop-color:rgb(152,228,120);stop-opacity:1"/><stop offset="1" style="stop-color:rgb(2,141,97);stop-opacity:1"/></linearGradient>
        <linearGradient id="_Linear3" x1="0" y1="0" x2="1" y2="0" gradientUnits="userSpaceOnUse" gradientTransform="matrix(2.63187e-14,429.817,-374.163,2.29109e-14,1264.9,2101.65)"><stop offset="0" style="stop-color:rgb(152,229,120);stop-opacity:1"/><stop offset="1" style="stop-color:rgb(7,138,92);stop-opacity:1"/></linearGradient>
        <linearGradient id="_Linear4" x1="0" y1="0" x2="1" y2="0" gradientUnits="userSpaceOnUse" gradientTransform="matrix(2.27593e-14,371.688,-887.103,5.43194e-14,2748.32,2116.44)"><stop offset="0" style="stop-color:rgb(152,228,120);stop-opacity:1"/><stop offset="1" style="stop-color:rgb(2,131,90);stop-opacity:1"/></linearGradient>
        <linearGradient id="_Linear5" x1="0" y1="0" x2="1" y2="0" gradientUnits="userSpaceOnUse" gradientTransform="matrix(1.71525e-14,202.517,-668.563,2.95963e-14,2644.83,2319.56)"><stop offset="0" style="stop-color:rgb(152,228,120);stop-opacity:1"/><stop offset="1" style="stop-color:rgb(2,131,90);stop-opacity:1"/></linearGradient>
        <linearGradient id="_Linear6" x1="0" y1="0" x2="1" y2="0" gradientUnits="userSpaceOnUse" gradientTransform="matrix(9.91107e-14,1618.6,-3121.27,1.91123e-13,1927.51,739.203)"><stop offset="0" style="stop-color:rgb(163,221,243);stop-opacity:1"/><stop offset="1" style="stop-color:rgb(89,131,244);stop-opacity:1"/></linearGradient>
        <linearGradient id="_Linear7" x1="0" y1="0" x2="1" y2="0" gradientUnits="userSpaceOnUse" gradientTransform="matrix(2.36605e-14,386.405,-386.405,2.36605e-14,1177.1,2096.35)"><stop offset="0" style="stop-color:rgb(255,184,69);stop-opacity:1"/><stop offset="1" style="stop-color:rgb(255,147,4);stop-opacity:1"/></linearGradient>
        <linearGradient id="_Linear8" x1="0" y1="0" x2="1" y2="0" gradientUnits="userSpaceOnUse" gradientTransform="matrix(2.28304e-14,372.849,-372.849,2.28304e-14,1177.09,2113.53)"><stop offset="0" style="stop-color:rgb(255,249,231);stop-opacity:1"/><stop offset="1" style="stop-color:rgb(255,220,173);stop-opacity:1"/></linearGradient>
        <linearGradient id="_Linear9" x1="0" y1="0" x2="1" y2="0" gradientUnits="userSpaceOnUse" gradientTransform="matrix(3.58567e-14,43.9278,-585.584,2.6898e-15,1177.13,2514.46)"><stop offset="0" style="stop-color:rgb(255,171,54);stop-opacity:1"/><stop offset="1" style="stop-color:rgb(255,147,4);stop-opacity:1"/></linearGradient>
        <linearGradient id="_Linear10" x1="0" y1="0" x2="1" y2="0" gradientUnits="userSpaceOnUse" gradientTransform="matrix(2.73466e-14,446.604,-446.604,2.73466e-14,2886.58,2025.41)"><stop offset="0" style="stop-color:rgb(255,184,69);stop-opacity:1"/><stop offset="1" style="stop-color:rgb(255,147,4);stop-opacity:1"/></linearGradient>
        <linearGradient id="_Linear11" x1="0" y1="0" x2="1" y2="0" gradientUnits="userSpaceOnUse" gradientTransform="matrix(2.63873e-14,430.937,-430.937,2.63873e-14,2886.57,2045.26)"><stop offset="0" style="stop-color:rgb(255,249,231);stop-opacity:1"/><stop offset="1" style="stop-color:rgb(255,220,173);stop-opacity:1"/></linearGradient>
        <linearGradient id="_Linear12" x1="0" y1="0" x2="1" y2="0" gradientUnits="userSpaceOnUse" gradientTransform="matrix(4.1443e-14,50.7715,-676.815,3.10886e-15,2886.61,2508.65)"><stop offset="0" style="stop-color:rgb(255,171,54);stop-opacity:1"/><stop offset="1" style="stop-color:rgb(255,147,4);stop-opacity:1"/></linearGradient>
        <linearGradient id="_Linear13" x1="0" y1="0" x2="1" y2="0" gradientUnits="userSpaceOnUse" gradientTransform="matrix(9.28615e-15,151.654,-151.654,9.28615e-15,2027.64,1963.53)"><stop offset="0" style="stop-color:rgb(253,197,73);stop-opacity:1"/><stop offset="1" style="stop-color:rgb(255,178,8);stop-opacity:1"/></linearGradient>
        <linearGradient id="_Linear14" x1="0" y1="0" x2="1" y2="0" gradientUnits="userSpaceOnUse" gradientTransform="matrix(9.28615e-15,151.654,-151.654,9.28615e-15,1977.05,2170.67)"><stop offset="0" style="stop-color:rgb(253,197,73);stop-opacity:1"/><stop offset="1" style="stop-color:rgb(255,178,8);stop-opacity:1"/></linearGradient>
        <linearGradient id="_Linear15" x1="0" y1="0" x2="1" y2="0" gradientUnits="userSpaceOnUse" gradientTransform="matrix(3.37431e-15,55.1067,-55.1067,3.37431e-15,1774.19,1782.07)"><stop offset="0" style="stop-color:rgb(255,206,45);stop-opacity:1"/><stop offset="1" style="stop-color:rgb(255,167,34);stop-opacity:1"/></linearGradient>
        <linearGradient id="_Linear16" x1="0" y1="0" x2="1" y2="0" gradientUnits="userSpaceOnUse" gradientTransform="matrix(3.37431e-15,55.1067,-55.1067,3.37431e-15,2426.81,1782.07)"><stop offset="0" style="stop-color:rgb(255,206,45);stop-opacity:1"/><stop offset="1" style="stop-color:rgb(255,167,34);stop-opacity:1"/></linearGradient>
    </defs>
</svg>
