<svg width="32" height="34" viewBox="0 0 32 34" fill="none" xmlns="http://www.w3.org/2000/svg">
<rect width="32" height="34" rx="4" fill="#F2F2F2"/>
<path d="M25.0684 8.4897C25.0684 8.70149 24.8946 8.8731 24.6802 8.8731H24.6724C24.3335 8.8731 24.0587 9.14785 24.0587 9.48677C24.0587 9.69856 23.8849 9.87017 23.6705 9.87017C23.4562 9.87017 23.2823 9.69856 23.2823 9.48677C23.2823 9.14785 23.0076 8.8731 22.6687 8.8731H22.6608C22.4465 8.8731 22.2726 8.70149 22.2726 8.4897C22.2726 8.2779 22.4465 8.1063 22.6608 8.1063H22.6685C23.0075 8.1063 23.2823 7.83149 23.2823 7.4925C23.2823 7.28071 23.4562 7.1091 23.6705 7.1091C23.8849 7.1091 24.0587 7.28071 24.0587 7.4925C24.0587 7.83149 24.3335 8.1063 24.6725 8.1063H24.6802C24.8946 8.1063 25.0684 8.2779 25.0684 8.4897ZM7.40749 14.8534H7.39992C7.06093 14.8534 6.78613 14.5786 6.78613 14.2396C6.78613 14.0278 6.61237 13.8562 6.39791 13.8562C6.18346 13.8562 6.0097 14.0278 6.0097 14.2396C6.0097 14.5786 5.7349 14.8534 5.39591 14.8534H5.38821C5.17376 14.8534 5 15.025 5 15.2368C5 15.4486 5.17376 15.6202 5.38821 15.6202H5.39604C5.73495 15.6202 6.0097 15.8949 6.0097 16.2339C6.0097 16.4457 6.18346 16.6173 6.39791 16.6173C6.61237 16.6173 6.78613 16.4457 6.78613 16.2339C6.78613 15.8949 7.06087 15.6202 7.39979 15.6202H7.40749C7.62194 15.6202 7.7957 15.4486 7.7957 15.2368C7.7957 15.025 7.62194 14.8534 7.40749 14.8534ZM25.9097 15.5532C26.1492 15.5532 26.3433 15.3615 26.3433 15.125C26.3433 14.8885 26.1492 14.6968 25.9097 14.6968C25.6703 14.6968 25.4762 14.8885 25.4762 15.125C25.4762 15.3615 25.6703 15.5532 25.9097 15.5532ZM27.6118 22.0772H27.6041C27.2651 22.0772 26.9903 21.8024 26.9903 21.4635C26.9903 21.2518 26.8164 21.0801 26.6021 21.0801C26.3878 21.0801 26.2139 21.2518 26.2139 21.4635C26.2139 21.8024 25.9391 22.0772 25.6001 22.0772H25.5924C25.3781 22.0772 25.2042 22.249 25.2042 22.4606C25.2042 22.6723 25.3781 22.844 25.5924 22.844H25.6001C25.9391 22.844 26.2139 23.1189 26.2139 23.4578C26.2139 23.6695 26.3878 23.8412 26.6021 23.8412C26.8164 23.8412 26.9903 23.6695 26.9903 23.4578C26.9903 23.1189 27.2651 22.844 27.6041 22.844H27.6118C27.8261 22.844 28 22.6723 28 22.4606C28 22.249 27.8261 22.0772 27.6118 22.0772ZM10.9547 7.97845C11.1941 7.97845 11.3882 7.78676 11.3882 7.55029C11.3882 7.31383 11.1941 7.12213 10.9547 7.12213C10.7153 7.12213 10.5212 7.31383 10.5212 7.55029C10.5212 7.78676 10.7153 7.97845 10.9547 7.97845ZM6.22027 22.6336C5.98084 22.6336 5.78674 22.8253 5.78674 23.0618C5.78674 23.2983 5.98084 23.49 6.22027 23.49C6.45969 23.49 6.6538 23.2983 6.6538 23.0618C6.6538 22.8253 6.45969 22.6336 6.22027 22.6336ZM22.1268 20.0162C23.6496 21.4605 24.2114 23.8839 23.7967 27.2197C23.7413 27.6645 23.3551 28 22.8982 28H9.67408C9.21725 28 8.83106 27.6645 8.77571 27.2197C8.36083 23.8839 8.92268 21.4602 10.4456 20.016C10.6829 19.7909 10.9317 19.6015 11.1855 19.4419C11.6843 19.1284 11.8776 18.4164 11.5896 17.9024C11.5089 17.7585 11.4342 17.6103 11.3658 17.4581C11.3485 17.4197 11.3097 17.3979 11.2675 17.3979C10.4495 17.3979 9.78389 16.6571 9.78389 15.7465C9.78389 15.2987 9.94537 14.8927 10.2066 14.5953C10.3738 14.4049 10.4892 14.1649 10.4892 13.9115C10.4892 13.2719 10.6741 12.6538 11.0068 12.1322C11.3673 11.567 11.7639 11.0033 12.1765 10.475C12.2813 10.3407 12.3965 10.2154 12.5206 10.0999C12.59 10.0353 12.651 9.96198 12.6989 9.88015C12.7621 9.7722 12.8217 9.67011 12.85 9.58412C12.8809 9.49051 12.8944 9.36858 12.9087 9.23953C12.9371 8.98218 12.9693 8.69063 13.1546 8.43928C13.3414 8.18605 13.6131 8.06573 13.8528 7.95965C13.9717 7.90698 14.084 7.85719 14.1628 7.80065C14.2395 7.74561 14.3207 7.65637 14.4068 7.56202C14.5837 7.36807 14.7841 7.14817 15.0898 7.05019C15.3844 6.95534 15.673 7.01463 15.9275 7.06717C16.0587 7.09413 16.1826 7.11959 16.2862 7.11959C16.3897 7.11959 16.5136 7.09413 16.6448 7.06717C16.8991 7.01463 17.1875 6.95572 17.4827 7.05019C17.7882 7.14817 17.9886 7.3682 18.1656 7.56227C18.2515 7.65662 18.3329 7.74573 18.4095 7.80077C18.4881 7.85731 18.6005 7.90698 18.7193 7.95965C18.9592 8.06573 19.2309 8.18592 19.4177 8.43928C19.6029 8.69088 19.6353 8.98243 19.6638 9.23978C19.678 9.36883 19.6914 9.49064 19.7222 9.58424C19.7505 9.66998 19.8102 9.77195 19.8733 9.88003C19.9214 9.96206 19.9825 10.0356 20.0521 10.1003C20.1761 10.2158 20.2912 10.3411 20.3959 10.4753C20.8082 11.0034 21.2046 11.5667 21.565 12.1315C21.898 12.6533 22.0831 13.2717 22.0831 13.9115C22.0831 14.1649 22.1985 14.4049 22.3657 14.5953C22.6269 14.8926 22.7885 15.2986 22.7885 15.7465C22.7885 16.6571 22.1227 17.3979 21.3046 17.3979C21.2625 17.3979 21.2237 17.4196 21.2065 17.458C21.1381 17.6103 21.0633 17.7585 20.9826 17.9025C20.6946 18.4165 20.8879 19.1285 21.3868 19.4421C21.6406 19.6016 21.8894 19.7911 22.1268 20.0162ZM21.6955 15.5678C21.6558 15.9961 22.012 16.1766 22.012 15.7465C22.012 15.6308 21.9936 15.5209 21.9605 15.4202C21.9229 15.3056 21.7747 15.3172 21.7197 15.4245C21.7102 15.443 21.7044 15.4631 21.7028 15.4839C21.7005 15.5119 21.6981 15.5399 21.6955 15.5678ZM13.6804 9.32277C13.676 9.36243 13.7132 9.39316 13.7512 9.38094C14.0782 9.27575 14.4261 9.21794 14.7868 9.21794C14.7949 9.21794 14.8028 9.21547 14.8094 9.21072C15.2059 8.92488 15.7337 8.76352 16.2862 8.76352C16.8386 8.76352 17.3663 8.92491 17.7631 9.2108C17.7696 9.21549 17.7774 9.21794 17.7854 9.21794C18.1462 9.21794 18.4943 9.27579 18.8213 9.38104C18.8592 9.39323 18.8963 9.36258 18.8919 9.32302C18.8722 9.14505 18.8535 8.97706 18.7898 8.89057C18.7249 8.80234 18.5679 8.73294 18.4019 8.65943C18.2588 8.59616 18.0968 8.52439 17.9528 8.42081C17.8102 8.31834 17.6975 8.19478 17.5886 8.07522C17.4662 7.94093 17.3505 7.81413 17.2428 7.77956C17.144 7.74761 16.9784 7.78193 16.8028 7.81787C16.6466 7.84995 16.4697 7.88639 16.2862 7.88639C16.1027 7.88639 15.9256 7.84995 15.7693 7.81787C15.594 7.7818 15.4279 7.74761 15.3296 7.77956C15.2218 7.814 15.1063 7.94093 14.9838 8.0751C14.8747 8.19466 14.762 8.31834 14.6196 8.42068C14.4755 8.52427 14.3134 8.59603 14.1704 8.65931C14.0043 8.73282 13.8475 8.80234 13.7824 8.89057C13.7187 8.97694 13.7001 9.14493 13.6804 9.32277ZM10.5603 15.7465C10.5603 16.1766 10.9164 15.9961 10.8767 15.5679C10.8741 15.5399 10.8717 15.5119 10.8695 15.4838C10.8678 15.4631 10.8621 15.443 10.8526 15.4244C10.7975 15.3172 10.6494 15.3056 10.6118 15.4202C10.5788 15.5209 10.5603 15.6308 10.5603 15.7465ZM12.9449 12.7191C13.0799 12.5024 13.3003 12.3503 13.5492 12.3017C14.2884 12.1575 14.995 11.9358 15.5924 11.6609C16.0329 11.4579 16.5385 11.4578 16.98 11.6607C17.5774 11.9358 18.2839 12.1575 19.0231 12.3017C19.2718 12.3502 19.492 12.5023 19.6272 12.7188C19.9937 13.3063 20.4663 13.765 20.8891 14.099C21.0607 14.2346 21.3066 14.1302 21.3066 13.9115C21.3066 13.1159 20.9379 12.3659 20.3204 11.9055C20.2552 11.8569 20.2072 11.7893 20.1832 11.7122C19.8612 10.6789 18.8978 9.98474 17.7854 9.98474C17.767 9.98474 17.7491 9.98661 17.7311 9.98799L17.6656 9.99248C17.564 9.99722 17.4657 9.96315 17.3899 9.89713C17.1222 9.66399 16.7201 9.53032 16.2862 9.53032C15.8521 9.53032 15.4499 9.66399 15.1826 9.897C15.1066 9.96315 15.0073 9.99747 14.9067 9.99248L14.8409 9.98799C14.8229 9.98661 14.8051 9.98474 14.7868 9.98474C13.6745 9.98474 12.7109 10.6789 12.389 11.7122C12.365 11.7893 12.3171 11.8568 12.2519 11.9055C11.6343 12.366 11.2656 13.116 11.2656 13.9115C11.2656 14.1302 11.5115 14.2346 11.6832 14.099C12.1059 13.765 12.5785 13.3064 12.9449 12.7191ZM16.2862 19.9533C18.824 19.9533 20.8727 17.8442 20.9503 15.1518C20.9513 15.1157 20.9285 15.0775 20.8911 15.0525C20.329 14.6779 19.5387 14.0388 18.9663 13.1212C18.944 13.0854 18.9107 13.0614 18.8727 13.0541C18.0731 12.8979 17.3052 12.6566 16.6519 12.3558C16.5356 12.3024 16.4109 12.2757 16.2862 12.2757C16.1613 12.2757 16.0366 12.3024 15.9205 12.3558C15.2673 12.6564 14.4993 12.8979 13.6997 13.0541C13.6616 13.0614 13.6283 13.0853 13.606 13.1212C13.0335 14.0389 12.2433 14.6779 11.6812 15.0525C11.6438 15.0774 11.6212 15.1155 11.6222 15.1518C11.6997 17.8442 13.7483 19.9533 16.2862 19.9533ZM19.4462 21.0591L19.7359 20.8782C19.9911 20.7189 20.0763 20.3871 19.9293 20.1245L19.7909 19.8773C19.6929 19.702 19.4614 19.6582 19.2967 19.7732C19.2487 19.8068 19.2096 19.8518 19.1846 19.9047L18.1716 22.0448C17.9047 22.6087 18.5482 23.1669 19.0687 22.823C19.322 22.6556 19.4158 22.3288 19.2897 22.0526L19.2026 21.8616C19.0711 21.573 19.176 21.2283 19.4462 21.0591ZM13.3698 21.8616L13.2826 22.0526C13.1565 22.3288 13.2503 22.6556 13.5035 22.823C14.024 23.1669 14.6675 22.6088 14.4006 22.0449L13.3876 19.9046C13.3625 19.8517 13.3235 19.8067 13.2755 19.7732C13.1108 19.6581 12.8794 19.7019 12.7813 19.8772L12.6429 20.1245C12.496 20.3871 12.5811 20.7189 12.8363 20.8783L13.1258 21.0591C13.3965 21.2283 13.5012 21.5733 13.3698 21.8616ZM16.2862 22.0076C16.647 22.0076 16.9487 21.9638 17.191 21.902C17.3355 21.8651 17.45 21.7591 17.5138 21.6243C17.7272 21.1735 17.2695 20.6496 16.773 20.6969C16.6128 20.7122 16.4505 20.7201 16.2862 20.7201C16.1219 20.7201 15.9595 20.7122 15.7993 20.6969C15.3028 20.6496 14.8452 21.1735 15.0585 21.6243C15.1224 21.7591 15.2369 21.8652 15.3815 21.902C15.6238 21.9638 15.9254 22.0076 16.2862 22.0076ZM15.898 25.9942C15.898 25.5781 15.6891 25.1899 15.342 24.9605L12.5409 23.1096C12.2772 22.9354 12.1803 22.6017 12.3107 22.3159C12.4852 21.9336 12.3491 21.4812 11.9927 21.2586L11.8623 21.1771C11.5733 20.9964 11.4766 20.6235 11.6419 20.328C11.705 20.2153 11.5868 20.0982 11.4799 20.1706C11.3072 20.2875 11.1387 20.4213 10.9777 20.5746C9.64501 21.8434 9.16341 24.0477 9.54632 27.1264C9.55377 27.1863 9.60988 27.2332 9.67408 27.2332C10.5385 27.2332 11.2393 26.5324 11.2393 25.668V23.4576C11.2393 23.2459 11.4131 23.0742 11.6275 23.0742C11.842 23.0742 12.0157 23.2459 12.0157 23.4576V25.2921C12.0157 26.3641 12.8848 27.2332 13.9569 27.2332H14.659C15.3433 27.2332 15.898 26.6785 15.898 25.9942ZM15.9109 23.425C16.0608 23.7418 16.5115 23.7418 16.6614 23.425L16.6902 23.3642C16.82 23.09 16.5895 22.7744 16.2862 22.7744C15.9828 22.7744 15.7523 23.0901 15.8821 23.3643L15.9109 23.425ZM21.5945 20.5746C21.4333 20.4211 21.2644 20.2878 21.0914 20.1713C20.9852 20.0999 20.8678 20.2163 20.9303 20.328C21.0956 20.6238 20.9988 20.9967 20.7102 21.1771L20.5796 21.2587C20.2231 21.4812 20.087 21.9336 20.2616 22.3159C20.392 22.6019 20.2949 22.9357 20.0311 23.1096L17.2303 24.9605C16.8832 25.1899 16.6744 25.5781 16.6744 25.9942C16.6744 26.6785 17.2291 27.2332 17.9134 27.2332H18.6154C19.6875 27.2332 20.5565 26.3642 20.5565 25.2921V23.4576C20.5565 23.2459 20.7304 23.0742 20.9447 23.0742C21.159 23.0742 21.3329 23.2459 21.3329 23.4576V25.668C21.3329 26.5324 22.0337 27.2332 22.8982 27.2332C22.9624 27.2332 23.0185 27.1863 23.0258 27.1264C23.4089 24.0477 22.9272 21.8434 21.5945 20.5746ZM17.2494 17.1678C16.8921 17.1678 16.6915 17.632 16.3344 17.6427C16.3186 17.6432 16.3026 17.6434 16.2862 17.6434C16.2697 17.6434 16.2535 17.6432 16.2377 17.6427C15.8806 17.6319 15.68 17.1678 15.3227 17.1678C15.1083 17.1678 14.9345 17.3394 14.9345 17.5512C14.9345 18.049 15.5029 18.4102 16.2862 18.4102C17.0692 18.4102 17.6376 18.049 17.6376 17.5512C17.6376 17.3394 17.4637 17.1678 17.2494 17.1678ZM17.4809 15.0991C17.2764 15.1627 17.1627 15.3779 17.2271 15.5799C17.2913 15.7817 17.5092 15.8948 17.7139 15.8305C18.255 15.6628 18.5111 15.9684 18.5414 16.008C18.617 16.1123 18.7363 16.1682 18.8573 16.1682C18.9337 16.1682 19.0107 16.1461 19.0782 16.0999C19.2544 15.9794 19.2984 15.7406 19.1763 15.5665C19.1528 15.5332 18.5927 14.7539 17.4809 15.0991ZM13.4905 16.0926C13.5582 16.1408 13.6369 16.164 13.7152 16.164C13.8348 16.164 13.9535 16.1097 14.0305 16.0087C14.0578 15.9728 14.314 15.6614 14.8583 15.8305C15.063 15.8948 15.2806 15.7821 15.3451 15.5799C15.4095 15.3779 15.2959 15.1627 15.0913 15.0991C13.9808 14.7528 13.4195 15.5331 13.3962 15.5665C13.2758 15.7383 13.319 15.9703 13.4905 16.0926ZM18.4011 17.1628C18.3374 17.0068 18.1582 16.9313 17.9995 16.9924C17.84 17.0545 17.7614 17.2326 17.8244 17.3902C17.8446 17.4414 18.042 17.9033 18.6776 18.3548C18.7325 18.3937 18.7959 18.4125 18.8586 18.4125C18.9551 18.4125 19.0504 18.368 19.1111 18.2847C19.2112 18.1471 19.1793 17.9557 19.0401 17.8567C18.5593 17.5152 18.4064 17.1751 18.4011 17.1628ZM14.5752 16.9953C14.4177 16.9323 14.2371 17.0074 14.1712 17.1624C14.1698 17.1659 14.0193 17.5106 13.5322 17.8567C13.3929 17.9557 13.3612 18.1474 13.4614 18.2847C13.5221 18.368 13.6172 18.4125 13.7138 18.4125C13.7766 18.4125 13.84 18.3937 13.8949 18.3548C14.5304 17.9033 14.7275 17.4414 14.748 17.3902C14.8103 17.2338 14.733 17.0586 14.5752 16.9953ZM14.5081 14.296C14.7715 14.296 14.9108 14.2591 15.0336 14.2264C15.1357 14.1993 15.2165 14.1779 15.3979 14.1779C15.5793 14.1779 15.66 14.1993 15.7621 14.2264C15.885 14.2591 16.0242 14.296 16.2877 14.296C16.5508 14.296 16.6898 14.2591 16.8124 14.2264C16.9145 14.1993 16.9949 14.1779 17.1761 14.1779C17.357 14.1779 17.4374 14.1993 17.5395 14.2264C17.6621 14.2589 17.8011 14.296 18.0642 14.296C18.2358 14.296 18.3748 14.1586 18.3748 13.9892C18.3748 13.8199 18.2358 13.6825 18.0642 13.6825C17.8833 13.6825 17.8029 13.6611 17.7008 13.634C17.5782 13.6015 17.4392 13.5644 17.1761 13.5644C16.9127 13.5644 16.7737 13.6015 16.6511 13.634C16.5492 13.6611 16.4687 13.6825 16.2877 13.6825C16.1062 13.6825 16.0255 13.6611 15.9234 13.634C15.8005 13.6013 15.6613 13.5644 15.3979 13.5644C15.1344 13.5644 14.9952 13.6013 14.8723 13.634C14.7702 13.6611 14.6895 13.6825 14.5081 13.6825C14.3367 13.6825 14.1975 13.8199 14.1975 13.9892C14.1975 14.1586 14.3367 14.296 14.5081 14.296Z" fill="black"/>
</svg>
